<?xml version="1.0" encoding="utf-8"?>
<!-- Generator: Adobe Illustrator 25.0.1, SVG Export Plug-In . SVG Version: 6.00 Build 0)  -->
<svg version="1.1" id="Layer_1" xmlns="http://www.w3.org/2000/svg" xmlns:xlink="http://www.w3.org/1999/xlink" x="0px" y="0px"
	 viewBox="0 0 244.27 155.9" style="enable-background:new 0 0 244.27 155.9;" xml:space="preserve">
<style type="text/css">
	.st0{fill:#EAF7FA;}
	.st1{fill:#4F8AC9;}
	.st2{fill:#C1E7FB;}
	.st3{fill:#8CCFEA;}
	.st4{fill:#2E368F;}
	.st5{fill:#333333;}
	.st6{fill:none;stroke:#333333;stroke-width:0.2854;stroke-miterlimit:10;}
	.st7{fill:none;stroke:#333333;stroke-width:0.3574;stroke-miterlimit:10;}
	.st8{fill:none;stroke:#333333;stroke-width:0.4942;stroke-linecap:round;stroke-miterlimit:10;}
	.st9{fill:none;stroke:#333333;stroke-width:0.9883;stroke-linecap:round;stroke-miterlimit:10;}
	.st10{fill:#F58776;}
	.st11{fill:#E6294B;}
	.st12{fill:#FDD7C9;}
	.st13{fill:#F04E45;}
	.st14{fill:#9F224B;}
	.st15{fill:none;stroke:#333333;stroke-width:0.2607;stroke-miterlimit:10;}
	.st16{fill:none;stroke:#333333;stroke-width:0.2549;stroke-miterlimit:10;}
	.st17{fill:none;stroke:#333333;stroke-width:0.2838;stroke-miterlimit:10;}
	.st18{fill:none;stroke:#333333;stroke-width:0.2776;stroke-miterlimit:10;}
	.st19{fill:#C5CBD8;}
	.st20{fill:#131926;}
	.st21{fill:#596474;}
	.st22{fill:#8D98A6;}
	.st23{fill:#283240;}
	.st24{fill:#FBB675;}
	.st25{fill:#F68B43;}
	.st26{fill:#FFEAC9;}
	.st27{fill:#FFFFFF;}
</style>
<g>
	<g>
		<g>
			<rect x="104.18" y="19.57" class="st0" width="4.75" height="7.43"/>
			<rect x="104.18" y="64.16" class="st0" width="4.75" height="7.43"/>
			<rect x="104.18" y="56.73" class="st1" width="4.75" height="7.43"/>
			<rect x="104.18" y="49.3" class="st2" width="4.75" height="7.43"/>
			<rect x="104.18" y="41.87" class="st3" width="4.75" height="7.43"/>
			<rect x="104.18" y="34.44" class="st3" width="4.75" height="7.43"/>
			<rect x="104.18" y="27" class="st3" width="4.75" height="7.43"/>
			<rect x="99.42" y="19.57" class="st2" width="4.75" height="7.43"/>
			<rect x="99.43" y="64.16" class="st1" width="4.75" height="7.43"/>
			<rect x="99.43" y="56.73" class="st3" width="4.75" height="7.43"/>
			<rect x="99.43" y="49.3" class="st3" width="4.75" height="7.43"/>
			<rect x="99.42" y="41.87" class="st3" width="4.75" height="7.43"/>
			<rect x="99.42" y="34.43" class="st1" width="4.75" height="7.43"/>
			<rect x="99.42" y="27" class="st2" width="4.75" height="7.43"/>
			<rect x="94.67" y="19.57" class="st3" width="4.75" height="7.43"/>
			<rect x="94.67" y="64.16" class="st4" width="4.75" height="7.43"/>
			<rect x="94.67" y="56.73" class="st1" width="4.75" height="7.43"/>
			<rect x="94.67" y="49.3" class="st1" width="4.75" height="7.43"/>
			<rect x="94.67" y="41.87" class="st4" width="4.75" height="7.43"/>
			<rect x="94.67" y="34.44" class="st4" width="4.75" height="7.43"/>
			<rect x="94.67" y="27" class="st1" width="4.75" height="7.43"/>
			<rect x="89.92" y="19.57" class="st3" width="4.75" height="7.43"/>
			<rect x="89.92" y="64.16" class="st3" width="4.75" height="7.43"/>
			<rect x="89.92" y="56.73" class="st3" width="4.75" height="7.43"/>
			<rect x="89.92" y="49.3" class="st2" width="4.75" height="7.43"/>
			<rect x="89.92" y="41.87" class="st3" width="4.75" height="7.43"/>
			<rect x="89.92" y="34.44" class="st3" width="4.75" height="7.43"/>
			<rect x="89.92" y="27" class="st0" width="4.75" height="7.43"/>
			<rect x="85.17" y="19.57" class="st4" width="4.75" height="7.43"/>
			<rect x="85.17" y="64.16" class="st2" width="4.75" height="7.43"/>
			<rect x="85.17" y="56.73" class="st0" width="4.75" height="7.43"/>
			<rect x="85.17" y="49.3" class="st3" width="4.75" height="7.43"/>
			<rect x="85.17" y="41.87" class="st0" width="4.75" height="7.43"/>
			<rect x="85.17" y="34.43" class="st2" width="4.75" height="7.43"/>
			<rect x="85.17" y="27" class="st3" width="4.75" height="7.43"/>
			<rect x="80.42" y="19.57" class="st3" width="4.75" height="7.43"/>
			<rect x="80.42" y="64.16" class="st0" width="4.75" height="7.43"/>
			<rect x="80.42" y="56.73" class="st4" width="4.75" height="7.43"/>
			<rect x="80.42" y="49.3" class="st2" width="4.75" height="7.43"/>
			<rect x="80.42" y="41.87" class="st2" width="4.75" height="7.43"/>
			<rect x="80.42" y="34.44" class="st3" width="4.75" height="7.43"/>
			<rect x="80.42" y="27" class="st0" width="4.75" height="7.43"/>
			<rect x="75.67" y="19.57" class="st1" width="4.75" height="7.43"/>
			<rect x="75.67" y="64.16" class="st4" width="4.75" height="7.43"/>
			<rect x="75.67" y="56.73" class="st1" width="4.75" height="7.43"/>
			<rect x="75.67" y="49.3" class="st1" width="4.75" height="7.43"/>
			<rect x="75.67" y="41.87" class="st4" width="4.75" height="7.43"/>
			<rect x="75.67" y="34.43" class="st4" width="4.75" height="7.43"/>
			<rect x="75.67" y="27" class="st1" width="4.75" height="7.43"/>
			<rect x="70.92" y="19.57" class="st4" width="4.75" height="7.43"/>
			<rect x="70.92" y="64.16" class="st3" width="4.75" height="7.43"/>
			<rect x="70.92" y="56.73" class="st4" width="4.75" height="7.43"/>
			<rect x="70.92" y="49.3" class="st1" width="4.75" height="7.43"/>
			<rect x="70.92" y="41.87" class="st2" width="4.75" height="7.43"/>
			<rect x="70.92" y="34.43" class="st3" width="4.75" height="7.43"/>
			<rect x="70.92" y="27" class="st4" width="4.75" height="7.43"/>
			<rect x="66.16" y="19.57" class="st3" width="4.75" height="7.43"/>
			<rect x="66.16" y="64.16" class="st4" width="4.75" height="7.43"/>
			<rect x="66.16" y="56.73" class="st1" width="4.75" height="7.43"/>
			<rect x="66.16" y="49.3" class="st2" width="4.75" height="7.43"/>
			<rect x="66.16" y="41.87" class="st4" width="4.75" height="7.43"/>
			<rect x="66.16" y="34.44" class="st1" width="4.75" height="7.43"/>
			<rect x="66.16" y="27" class="st1" width="4.75" height="7.43"/>
			<rect x="61.41" y="19.57" class="st1" width="4.75" height="7.43"/>
			<rect x="61.41" y="64.16" class="st4" width="4.75" height="7.43"/>
			<rect x="61.41" y="56.73" class="st1" width="4.75" height="7.43"/>
			<rect x="61.41" y="49.3" class="st4" width="4.75" height="7.43"/>
			<rect x="61.41" y="41.87" class="st1" width="4.75" height="7.43"/>
			<rect x="61.41" y="34.44" class="st0" width="4.75" height="7.43"/>
			<rect x="61.41" y="27" class="st4" width="4.75" height="7.43"/>
			<rect x="56.66" y="19.57" class="st1" width="4.75" height="7.43"/>
			<rect x="56.66" y="64.16" class="st3" width="4.75" height="7.43"/>
			<rect x="56.66" y="56.73" class="st3" width="4.75" height="7.43"/>
			<rect x="56.66" y="49.3" class="st3" width="4.75" height="7.43"/>
			<rect x="56.66" y="41.87" class="st3" width="4.75" height="7.43"/>
			<rect x="56.66" y="34.43" class="st3" width="4.75" height="7.43"/>
			<rect x="56.66" y="27" class="st3" width="4.75" height="7.43"/>
			<rect x="51.91" y="19.57" class="st3" width="4.75" height="7.43"/>
			<rect x="51.91" y="64.16" class="st0" width="4.75" height="7.43"/>
			<rect x="51.91" y="56.73" class="st4" width="4.75" height="7.43"/>
			<rect x="51.91" y="49.3" class="st3" width="4.75" height="7.43"/>
			<rect x="51.91" y="41.87" class="st4" width="4.75" height="7.43"/>
			<rect x="51.91" y="34.44" class="st4" width="4.75" height="7.43"/>
			<rect x="51.91" y="27" class="st0" width="4.75" height="7.43"/>
			<rect x="47.16" y="19.57" class="st3" width="4.75" height="7.43"/>
			<rect x="47.16" y="64.16" class="st3" width="4.75" height="7.43"/>
			<rect x="47.16" y="56.73" class="st3" width="4.75" height="7.43"/>
			<rect x="47.16" y="49.3" class="st3" width="4.75" height="7.43"/>
			<rect x="47.16" y="41.87" class="st3" width="4.75" height="7.43"/>
			<rect x="47.16" y="34.44" class="st0" width="4.75" height="7.43"/>
			<rect x="47.16" y="27" class="st2" width="4.75" height="7.43"/>
			<rect x="42.41" y="19.57" class="st1" width="4.75" height="7.43"/>
			<rect x="42.41" y="64.16" class="st1" width="4.75" height="7.43"/>
			<rect x="42.41" y="56.73" class="st1" width="4.75" height="7.43"/>
			<rect x="42.41" y="49.3" class="st3" width="4.75" height="7.43"/>
			<rect x="42.41" y="41.87" class="st1" width="4.75" height="7.43"/>
			<rect x="42.41" y="34.44" class="st4" width="4.75" height="7.43"/>
			<rect x="42.41" y="27" class="st3" width="4.75" height="7.43"/>
			<rect x="37.65" y="19.57" class="st4" width="4.75" height="7.43"/>
			<rect x="37.65" y="64.16" class="st1" width="4.75" height="7.43"/>
			<rect x="37.65" y="56.73" class="st4" width="4.75" height="7.43"/>
			<rect x="37.65" y="49.3" class="st4" width="4.75" height="7.43"/>
			<rect x="37.65" y="41.87" class="st4" width="4.75" height="7.43"/>
			<rect x="37.65" y="34.43" class="st3" width="4.75" height="7.43"/>
			<rect x="37.65" y="27" class="st4" width="4.75" height="7.43"/>
			<rect x="32.9" y="19.57" class="st1" width="4.75" height="7.43"/>
			<rect x="32.9" y="64.16" class="st3" width="4.75" height="7.43"/>
			<rect x="32.9" y="56.73" class="st3" width="4.75" height="7.43"/>
			<rect x="32.9" y="49.3" class="st3" width="4.75" height="7.43"/>
			<rect x="32.9" y="41.87" class="st1" width="4.75" height="7.43"/>
			<rect x="32.9" y="34.44" class="st3" width="4.75" height="7.43"/>
			<rect x="32.9" y="27" class="st1" width="4.75" height="7.43"/>
			<rect x="28.15" y="64.16" class="st0" width="4.75" height="7.43"/>
			<rect x="28.15" y="56.73" class="st0" width="4.75" height="7.43"/>
			<rect x="28.15" y="49.3" class="st2" width="4.75" height="7.43"/>
			<rect x="28.15" y="41.87" class="st0" width="4.75" height="7.43"/>
			<rect x="28.15" y="34.43" class="st0" width="4.75" height="7.43"/>
			<rect x="28.15" y="27" class="st3" width="4.75" height="7.43"/>
			<rect x="28.15" y="19.57" class="st2" width="4.75" height="7.43"/>
			<rect x="23.4" y="64.16" class="st0" width="4.75" height="7.43"/>
			<rect x="23.4" y="56.73" class="st1" width="4.75" height="7.43"/>
			<rect x="23.4" y="49.3" class="st3" width="4.75" height="7.43"/>
			<rect x="23.4" y="41.87" class="st0" width="4.75" height="7.43"/>
			<rect x="23.4" y="34.43" class="st2" width="4.75" height="7.43"/>
			<rect x="23.4" y="27" class="st3" width="4.75" height="7.43"/>
			<rect x="23.4" y="19.57" class="st3" width="4.75" height="7.43"/>
		</g>
	</g>
	<path class="st5" d="M21.16,20.91c0,0.43-0.33,0.78-0.73,0.78c-0.41,0-0.73-0.35-0.73-0.78c0-0.43,0.33-0.78,0.73-0.78
		C20.83,20.13,21.16,20.48,21.16,20.91"/>
	<path class="st5" d="M20.28,21.56l-0.06,0.05c-0.04,0.03-0.1,0.05-0.15,0.06l-0.24,0.02c-0.06,0.01-0.12,0.02-0.18,0.05
		c-0.2,0.11-0.37,0.27-0.47,0.46c0,0-0.46,0.87-0.71,1.33c-0.09,0.16-0.02,0.36,0.15,0.45c0.09,0.05,0.21,0.02,0.26-0.07l0.64-1.13
		c0.04-0.08,0.18-0.17,0.19,0.02l0.05,0.47c0,0.03,0,0.06,0,0.09c-0.01,0.23-0.09,0.59-0.16,0.79l-0.65,2.01
		c-0.09,0.23,0.03,0.49,0.27,0.6c0.08,0.04,0.18,0,0.22-0.07l0.88-2.15c0.02-0.04,0.06-0.07,0.11-0.07c0.05,0,0.09,0.03,0.11,0.07
		l0.88,2.15c0.04,0.08,0.14,0.11,0.22,0.07c0.24-0.11,0.35-0.37,0.27-0.6l-0.65-2.01c-0.07-0.2-0.15-0.56-0.16-0.79
		c0-0.03,0-0.06,0-0.09l0.05-0.47c0.01-0.19,0.15-0.1,0.19-0.02l0.64,1.13c0.05,0.09,0.17,0.12,0.26,0.07
		c0.17-0.09,0.24-0.29,0.15-0.45c-0.25-0.47-0.71-1.33-0.71-1.33c-0.1-0.19-0.27-0.36-0.47-0.46c-0.06-0.03-0.12-0.05-0.18-0.05
		l-0.24-0.02c-0.06,0-0.11-0.02-0.15-0.06l-0.06-0.05H20.28z"/>
	<line class="st6" x1="20.42" y1="28.86" x2="20.42" y2="68.66"/>
	<polygon class="st5" points="20.42,70.02 19.2,68.11 20.42,68.56 21.65,68.11 	"/>
	<g>
		<path class="st5" d="M17.03,60.61v0.46H14.3v0.99h-0.37c0-0.52-0.14-0.99-0.71-1.1v-0.35H17.03z"/>
		<path class="st5" d="M13.22,58.08c0-0.83,0.49-1.16,0.97-1.16c0.34,0,0.65,0.21,0.79,0.53c0.15-0.46,0.48-0.68,0.95-0.68
			c0.74,0,1.16,0.56,1.16,1.26c0,0.73-0.38,1.29-1.16,1.29c-0.45,0-0.8-0.24-0.95-0.67c-0.13,0.32-0.45,0.53-0.79,0.53
			C13.56,59.19,13.22,58.66,13.22,58.08z M14.82,58.03c0-0.36-0.23-0.63-0.61-0.63c-0.38,0-0.59,0.27-0.59,0.64
			c0,0.37,0.2,0.67,0.59,0.67C14.62,58.71,14.82,58.41,14.82,58.03z M16.69,58.03c0-0.46-0.32-0.78-0.74-0.78
			c-0.41,0-0.73,0.35-0.73,0.78c0,0.45,0.29,0.81,0.73,0.81C16.41,58.84,16.69,58.51,16.69,58.03z"/>
		<path class="st5" d="M16.15,54.45c0.41-0.02,0.54-0.37,0.54-0.75c0-0.28-0.06-0.67-0.41-0.67c-0.35,0-0.41,0.45-0.52,0.91
			c-0.1,0.45-0.25,0.91-0.78,0.91c-0.56,0-0.79-0.55-0.79-1.04c0-0.61,0.19-1.1,0.87-1.14v0.46c-0.35,0.03-0.47,0.34-0.47,0.64
			c0,0.27,0.08,0.59,0.35,0.59c0.33,0,0.38-0.48,0.48-0.91c0.1-0.46,0.25-0.91,0.79-0.91c0.66,0,0.88,0.62,0.88,1.18
			c0,0.62-0.25,1.15-0.94,1.18V54.45z"/>
		<path class="st5" d="M17.01,49.58c0.05,0.08,0.08,0.18,0.08,0.33c0,0.24-0.13,0.39-0.43,0.39c0.3,0.25,0.43,0.59,0.43,0.98
			c0,0.5-0.23,0.92-0.78,0.92c-0.63,0-0.76-0.47-0.85-0.94c-0.1-0.5-0.06-0.93-0.41-0.93c-0.4,0-0.46,0.33-0.46,0.62
			c0,0.39,0.12,0.67,0.53,0.69v0.46c-0.69-0.03-0.93-0.56-0.93-1.18c0-0.5,0.11-1.04,0.76-1.04h1.43c0.21,0,0.31,0,0.31-0.14
			c0-0.04-0.01-0.08-0.03-0.14H17.01z M15.59,50.32c0.13,0.18,0.13,0.52,0.19,0.83c0.05,0.3,0.16,0.56,0.5,0.56
			c0.3,0,0.41-0.26,0.41-0.54c0-0.6-0.38-0.85-0.63-0.85H15.59z"/>
		<path class="st5" d="M14.25,49.16v-0.43h0.41v-0.01c-0.31-0.2-0.47-0.52-0.47-0.9c0-0.34,0.13-0.65,0.47-0.76
			c-0.3-0.19-0.47-0.52-0.47-0.87c0-0.55,0.23-0.92,0.81-0.92h2.04v0.46H15.2c-0.34,0-0.62,0.09-0.62,0.54
			c0,0.44,0.28,0.73,0.71,0.73h1.73v0.46H15.2c-0.36,0-0.62,0.11-0.62,0.52c0,0.54,0.5,0.74,0.71,0.74h1.73v0.46H14.25z"/>
		<path class="st5" d="M14.25,44.57v-0.46h0.38V44.1c-0.31-0.15-0.44-0.5-0.44-0.89c0-0.85,0.68-1.28,1.46-1.28s1.44,0.42,1.44,1.27
			c0,0.28-0.11,0.69-0.44,0.9v0.01h1.43v0.46H14.25z M14.59,43.28c0,0.61,0.53,0.85,1.05,0.85c0.55,0,1.05-0.25,1.05-0.88
			c0-0.62-0.53-0.83-1.07-0.83C15.09,42.42,14.59,42.69,14.59,43.28z"/>
		<path class="st5" d="M13.19,41.38v-0.46h3.83v0.46H13.19z"/>
		<path class="st5" d="M16.14,37.85c0.61,0.12,0.95,0.56,0.95,1.19c0,0.89-0.61,1.31-1.46,1.33c-0.83,0-1.44-0.55-1.44-1.31
			c0-0.98,0.92-1.28,1.59-1.26v2.08c0.48,0.02,0.91-0.26,0.91-0.86c0-0.38-0.18-0.64-0.54-0.72V37.85z M15.37,38.29
			c-0.44,0.02-0.78,0.35-0.78,0.8c0,0.48,0.36,0.76,0.78,0.79V38.29z"/>
		<path class="st5" d="M16.15,37.06c0.41-0.02,0.54-0.37,0.54-0.75c0-0.28-0.06-0.67-0.41-0.67c-0.35,0-0.41,0.45-0.52,0.91
			c-0.1,0.45-0.25,0.91-0.78,0.91c-0.56,0-0.79-0.55-0.79-1.04c0-0.61,0.19-1.1,0.87-1.14v0.46c-0.35,0.03-0.47,0.34-0.47,0.64
			c0,0.27,0.08,0.59,0.35,0.59c0.33,0,0.38-0.48,0.48-0.91c0.1-0.46,0.25-0.91,0.79-0.91c0.66,0,0.88,0.62,0.88,1.18
			c0,0.62-0.25,1.15-0.94,1.18V37.06z"/>
	</g>
	<line class="st7" x1="34.51" y1="16.75" x2="106.2" y2="16.75"/>
	<polygon class="st5" points="108.32,16.75 105.33,17.97 106.04,16.75 105.33,15.53 	"/>
	<g>
		<path class="st5" d="M50.38,11.18c-0.04-0.77,0.42-1.35,1.22-1.35c0.67,0,1.19,0.39,1.19,1.1c0,0.67-0.45,1.01-0.92,1.31
			c-0.48,0.29-0.98,0.53-1.07,1h1.96v0.4h-2.49c0.08-0.9,0.53-1.22,1.07-1.56c0.64-0.4,0.97-0.63,0.97-1.16
			c0-0.41-0.33-0.69-0.74-0.69c-0.53,0-0.76,0.49-0.74,0.95H50.38z"/>
		<path class="st5" d="M53.36,11.18c-0.04-0.77,0.42-1.35,1.22-1.35c0.67,0,1.19,0.39,1.19,1.1c0,0.67-0.45,1.01-0.92,1.31
			c-0.48,0.29-0.98,0.53-1.07,1h1.96v0.4h-2.49c0.08-0.9,0.53-1.22,1.07-1.56c0.64-0.4,0.97-0.63,0.97-1.16
			c0-0.41-0.33-0.69-0.74-0.69c-0.53,0-0.76,0.49-0.74,0.95H53.36z"/>
		<path class="st5" d="M57.6,9.83c1.19,0,1.27,1.1,1.27,1.94c0,0.84-0.08,1.93-1.27,1.93s-1.27-1.1-1.27-1.93
			C56.33,10.92,56.41,9.83,57.6,9.83z M57.6,13.3c0.78,0,0.78-0.97,0.78-1.54c0-0.56-0.01-1.53-0.78-1.53s-0.78,0.97-0.78,1.53
			C56.82,12.33,56.82,13.3,57.6,13.3z"/>
		<path class="st5" d="M61.61,10.3h-1.54l-0.2,1.1l0.01,0.01c0.17-0.19,0.45-0.27,0.71-0.27c0.68,0,1.23,0.44,1.23,1.31
			c0,0.64-0.45,1.27-1.33,1.27c-0.66,0-1.2-0.4-1.21-1.09h0.46c0.03,0.39,0.34,0.69,0.8,0.69c0.44,0,0.81-0.3,0.81-0.9
			c0-0.5-0.35-0.86-0.86-0.86c-0.29,0-0.53,0.15-0.71,0.36l-0.39-0.02l0.35-1.98h1.88V10.3z"/>
		<path class="st5" d="M64.6,10.3h-1.54l-0.2,1.1l0.01,0.01c0.17-0.19,0.45-0.27,0.71-0.27c0.68,0,1.23,0.44,1.23,1.31
			c0,0.64-0.45,1.27-1.33,1.27c-0.66,0-1.2-0.4-1.21-1.09h0.46c0.03,0.39,0.34,0.69,0.8,0.69c0.44,0,0.81-0.3,0.81-0.9
			c0-0.5-0.35-0.86-0.86-0.86c-0.29,0-0.53,0.15-0.71,0.36l-0.39-0.02l0.35-1.98h1.88V10.3z"/>
		<path class="st5" d="M66.89,10.86h0.43v0.41h0.01c0.2-0.31,0.52-0.47,0.9-0.47c0.34,0,0.65,0.13,0.76,0.47
			c0.19-0.3,0.52-0.47,0.87-0.47c0.55,0,0.92,0.23,0.92,0.81v2.04h-0.46v-1.82c0-0.34-0.09-0.62-0.54-0.62
			c-0.44,0-0.73,0.28-0.73,0.71v1.73h-0.46v-1.82c0-0.36-0.11-0.62-0.52-0.62c-0.54,0-0.74,0.5-0.74,0.71v1.73h-0.46V10.86z"/>
		<path class="st5" d="M71.54,9.8h1.8c0.72,0,1.17,0.39,1.17,1c0,0.46-0.2,0.84-0.67,0.97v0.01c0.45,0.09,0.54,0.41,0.57,0.79
			c0.03,0.38,0.01,0.79,0.23,1.06h-0.57c-0.15-0.16-0.06-0.57-0.14-0.95C73.88,12.32,73.79,12,73.3,12h-1.25v1.64h-0.51V9.8z
			 M73.11,11.57c0.48,0,0.89-0.12,0.89-0.68c0-0.38-0.2-0.66-0.68-0.66h-1.27v1.34H73.11z"/>
		<path class="st5" d="M75.21,9.8h0.54l2.02,3.11h0.01V9.8h0.48v3.83h-0.56l-2-3.08h-0.01v3.08h-0.48V9.8z"/>
		<path class="st5" d="M80.13,9.8h0.56l1.5,3.83h-0.56l-0.42-1.15h-1.62l-0.43,1.15h-0.53L80.13,9.8z M79.75,12.05h1.3l-0.64-1.79
			H80.4L79.75,12.05z"/>
	</g>
	<line class="st8" x1="24.11" y1="17.9" x2="27" y2="17.9"/>
	<line class="st8" x1="24.36" y1="16.96" x2="27.25" y2="16.96"/>
	<path class="st9" d="M24.07,18.41c0.01-1.41,0.5-1.41,0.51-2.82c0.01-1.41-0.49-1.41-0.48-2.83"/>
	<line class="st8" x1="24.57" y1="15.06" x2="27.46" y2="15.06"/>
	<line class="st8" x1="24.36" y1="14.13" x2="27.25" y2="14.13"/>
	<line class="st8" x1="24.55" y1="16.01" x2="27.45" y2="16.01"/>
	<line class="st8" x1="24.06" y1="13.2" x2="26.95" y2="13.2"/>
	<line class="st8" x1="28.87" y1="17.9" x2="31.76" y2="17.9"/>
	<line class="st8" x1="29.12" y1="16.96" x2="32.01" y2="16.96"/>
	<path class="st9" d="M28.83,18.41c0.01-1.41,0.5-1.41,0.51-2.82c0.01-1.41-0.49-1.41-0.48-2.83"/>
	<line class="st8" x1="29.33" y1="15.06" x2="32.22" y2="15.06"/>
	<line class="st8" x1="29.12" y1="14.13" x2="32.01" y2="14.13"/>
	<line class="st8" x1="29.31" y1="16.01" x2="32.21" y2="16.01"/>
	<line class="st8" x1="28.82" y1="13.2" x2="31.72" y2="13.2"/>
</g>
<g>
	<g>
		<g>
			<rect x="104.76" y="93.74" class="st10" width="4.75" height="7.43"/>
			<rect x="104.76" y="138.33" class="st10" width="4.75" height="7.43"/>
			<rect x="104.76" y="130.9" class="st11" width="4.75" height="7.43"/>
			<rect x="104.76" y="123.47" class="st12" width="4.75" height="7.43"/>
			<rect x="104.76" y="116.03" class="st13" width="4.75" height="7.43"/>
			<rect x="104.76" y="108.6" class="st13" width="4.75" height="7.43"/>
			<rect x="104.76" y="101.17" class="st13" width="4.75" height="7.43"/>
			<rect x="100.01" y="93.74" class="st12" width="4.75" height="7.43"/>
			<rect x="100.01" y="138.33" class="st11" width="4.75" height="7.43"/>
			<rect x="100.01" y="130.9" class="st13" width="4.75" height="7.43"/>
			<rect x="100.01" y="123.47" class="st13" width="4.75" height="7.43"/>
			<rect x="100.01" y="116.03" class="st13" width="4.75" height="7.43"/>
			<rect x="100.01" y="108.6" class="st11" width="4.75" height="7.43"/>
			<rect x="100.01" y="101.17" class="st12" width="4.75" height="7.43"/>
			<rect x="95.26" y="93.74" class="st13" width="4.75" height="7.43"/>
			<rect x="95.26" y="138.33" class="st14" width="4.75" height="7.43"/>
			<rect x="95.26" y="130.9" class="st11" width="4.75" height="7.43"/>
			<rect x="95.26" y="123.47" class="st11" width="4.75" height="7.43"/>
			<rect x="95.26" y="116.03" class="st14" width="4.75" height="7.43"/>
			<rect x="95.26" y="108.6" class="st14" width="4.75" height="7.43"/>
			<rect x="95.26" y="101.17" class="st11" width="4.75" height="7.43"/>
			<rect x="90.5" y="93.74" class="st13" width="4.75" height="7.43"/>
			<rect x="90.5" y="138.33" class="st13" width="4.75" height="7.43"/>
			<rect x="90.5" y="130.9" class="st13" width="4.75" height="7.43"/>
			<rect x="90.5" y="123.47" class="st12" width="4.75" height="7.43"/>
			<rect x="90.5" y="116.03" class="st13" width="4.75" height="7.43"/>
			<rect x="90.5" y="108.6" class="st13" width="4.75" height="7.43"/>
			<rect x="90.5" y="101.17" class="st10" width="4.75" height="7.43"/>
			<rect x="85.75" y="93.74" class="st10" width="4.75" height="7.43"/>
			<rect x="85.75" y="138.33" class="st12" width="4.75" height="7.43"/>
			<rect x="85.75" y="130.9" class="st10" width="4.75" height="7.43"/>
			<rect x="85.75" y="123.47" class="st13" width="4.75" height="7.43"/>
			<rect x="85.75" y="116.03" class="st10" width="4.75" height="7.43"/>
			<rect x="85.75" y="108.6" class="st12" width="4.75" height="7.43"/>
			<rect x="85.75" y="101.17" class="st13" width="4.75" height="7.43"/>
			<rect x="81" y="93.74" class="st13" width="4.75" height="7.43"/>
			<rect x="81" y="138.33" class="st10" width="4.75" height="7.43"/>
			<rect x="81" y="130.9" class="st13" width="4.75" height="7.43"/>
			<rect x="81" y="123.47" class="st12" width="4.75" height="7.43"/>
			<rect x="81" y="116.03" class="st12" width="4.75" height="7.43"/>
			<rect x="81" y="108.6" class="st13" width="4.75" height="7.43"/>
			<rect x="81" y="101.17" class="st10" width="4.75" height="7.43"/>
			<rect x="76.25" y="93.74" class="st11" width="4.75" height="7.43"/>
			<rect x="76.25" y="138.33" class="st14" width="4.75" height="7.43"/>
			<rect x="76.25" y="130.9" class="st11" width="4.75" height="7.43"/>
			<rect x="76.25" y="123.47" class="st11" width="4.75" height="7.43"/>
			<rect x="76.25" y="116.03" class="st14" width="4.75" height="7.43"/>
			<rect x="76.25" y="108.6" class="st14" width="4.75" height="7.43"/>
			<rect x="76.25" y="101.17" class="st11" width="4.75" height="7.43"/>
			<rect x="71.5" y="93.74" class="st14" width="4.75" height="7.43"/>
			<rect x="71.5" y="138.33" class="st13" width="4.75" height="7.43"/>
			<rect x="71.5" y="130.9" class="st14" width="4.75" height="7.43"/>
			<rect x="71.5" y="123.47" class="st11" width="4.75" height="7.43"/>
			<rect x="71.5" y="116.03" class="st12" width="4.75" height="7.43"/>
			<rect x="71.5" y="108.6" class="st13" width="4.75" height="7.43"/>
			<rect x="71.5" y="101.17" class="st14" width="4.75" height="7.43"/>
			<rect x="66.75" y="93.74" class="st13" width="4.75" height="7.43"/>
			<rect x="66.75" y="138.33" class="st14" width="4.75" height="7.43"/>
			<rect x="66.75" y="130.9" class="st11" width="4.75" height="7.43"/>
			<rect x="66.75" y="123.47" class="st12" width="4.75" height="7.43"/>
			<rect x="66.75" y="116.03" class="st14" width="4.75" height="7.43"/>
			<rect x="66.75" y="108.6" class="st11" width="4.75" height="7.43"/>
			<rect x="66.75" y="101.17" class="st11" width="4.75" height="7.43"/>
			<rect x="62" y="93.74" class="st11" width="4.75" height="7.43"/>
			<rect x="62" y="138.33" class="st14" width="4.75" height="7.43"/>
			<rect x="62" y="130.9" class="st11" width="4.75" height="7.43"/>
			<rect x="62" y="123.47" class="st14" width="4.75" height="7.43"/>
			<rect x="62" y="116.03" class="st11" width="4.75" height="7.43"/>
			<rect x="62" y="108.6" class="st10" width="4.75" height="7.43"/>
			<rect x="62" y="101.17" class="st14" width="4.75" height="7.43"/>
			<rect x="57.25" y="93.74" class="st11" width="4.75" height="7.43"/>
			<rect x="57.25" y="138.33" class="st13" width="4.75" height="7.43"/>
			<rect x="57.25" y="130.9" class="st13" width="4.75" height="7.43"/>
			<rect x="57.25" y="123.47" class="st13" width="4.75" height="7.43"/>
			<rect x="57.25" y="116.03" class="st13" width="4.75" height="7.43"/>
			<rect x="57.25" y="108.6" class="st13" width="4.75" height="7.43"/>
			<rect x="57.25" y="101.17" class="st13" width="4.75" height="7.43"/>
			<rect x="52.5" y="93.74" class="st13" width="4.75" height="7.43"/>
			<rect x="52.5" y="138.33" class="st10" width="4.75" height="7.43"/>
			<rect x="52.5" y="130.9" class="st12" width="4.75" height="7.43"/>
			<rect x="52.5" y="123.47" class="st13" width="4.75" height="7.43"/>
			<rect x="52.5" y="116.03" class="st12" width="4.75" height="7.43"/>
			<rect x="52.5" y="108.6" class="st12" width="4.75" height="7.43"/>
			<rect x="52.5" y="101.17" class="st10" width="4.75" height="7.43"/>
			<rect x="47.74" y="93.74" class="st13" width="4.75" height="7.43"/>
			<rect x="47.74" y="138.33" class="st13" width="4.75" height="7.43"/>
			<rect x="47.74" y="130.9" class="st13" width="4.75" height="7.43"/>
			<rect x="47.74" y="123.47" class="st13" width="4.75" height="7.43"/>
			<rect x="47.74" y="116.03" class="st13" width="4.75" height="7.43"/>
			<rect x="47.74" y="108.6" class="st10" width="4.75" height="7.43"/>
			<rect x="47.74" y="101.17" class="st12" width="4.75" height="7.43"/>
			<rect x="42.99" y="93.74" class="st11" width="4.75" height="7.43"/>
			<rect x="42.99" y="138.33" class="st11" width="4.75" height="7.43"/>
			<rect x="42.99" y="130.9" class="st11" width="4.75" height="7.43"/>
			<rect x="42.99" y="123.47" class="st13" width="4.75" height="7.43"/>
			<rect x="42.99" y="116.03" class="st11" width="4.75" height="7.43"/>
			<rect x="42.99" y="108.6" class="st14" width="4.75" height="7.43"/>
			<rect x="42.99" y="101.17" class="st13" width="4.75" height="7.43"/>
			<rect x="38.24" y="93.74" class="st14" width="4.75" height="7.43"/>
			<rect x="38.24" y="138.33" class="st11" width="4.75" height="7.43"/>
			<rect x="38.24" y="130.9" class="st14" width="4.75" height="7.43"/>
			<rect x="38.24" y="123.47" class="st11" width="4.75" height="7.43"/>
			<rect x="38.24" y="116.03" class="st14" width="4.75" height="7.43"/>
			<rect x="38.24" y="108.6" class="st13" width="4.75" height="7.43"/>
			<rect x="38.24" y="101.17" class="st14" width="4.75" height="7.43"/>
			<rect x="33.49" y="93.74" class="st11" width="4.75" height="7.43"/>
			<rect x="33.49" y="138.33" class="st13" width="4.75" height="7.43"/>
			<rect x="33.49" y="130.9" class="st13" width="4.75" height="7.43"/>
			<rect x="33.49" y="123.47" class="st13" width="4.75" height="7.43"/>
			<rect x="33.49" y="116.03" class="st11" width="4.75" height="7.43"/>
			<rect x="33.49" y="108.6" class="st13" width="4.75" height="7.43"/>
			<rect x="33.49" y="101.17" class="st11" width="4.75" height="7.43"/>
			<rect x="28.74" y="138.33" class="st10" width="4.75" height="7.43"/>
			<rect x="28.74" y="130.9" class="st10" width="4.75" height="7.43"/>
			<rect x="28.74" y="123.47" class="st12" width="4.75" height="7.43"/>
			<rect x="28.74" y="116.03" class="st10" width="4.75" height="7.43"/>
			<rect x="28.74" y="108.6" class="st10" width="4.75" height="7.43"/>
			<rect x="28.74" y="101.17" class="st13" width="4.75" height="7.43"/>
			<rect x="28.74" y="93.74" class="st12" width="4.75" height="7.43"/>
			<rect x="23.98" y="138.33" class="st10" width="4.75" height="7.43"/>
			<rect x="23.98" y="130.9" class="st11" width="4.75" height="7.43"/>
			<rect x="23.98" y="123.47" class="st13" width="4.75" height="7.43"/>
			<rect x="23.98" y="116.03" class="st10" width="4.75" height="7.43"/>
			<rect x="23.98" y="108.6" class="st12" width="4.75" height="7.43"/>
			<rect x="23.98" y="101.17" class="st13" width="4.75" height="7.43"/>
			<rect x="23.98" y="93.74" class="st13" width="4.75" height="7.43"/>
		</g>
	</g>
	<line class="st7" x1="34.73" y1="90.94" x2="107.21" y2="90.94"/>
	<polygon class="st5" points="109.33,90.94 106.34,92.16 107.05,90.94 106.34,89.72 	"/>
	<g>
		<path class="st5" d="M54.76,84.99c-0.04-0.34-0.28-0.57-0.64-0.57c-0.78,0-0.9,0.86-0.92,1.44l0.01,0.01
			c0.21-0.35,0.54-0.5,0.95-0.5c0.73,0,1.17,0.53,1.17,1.24c0,0.55-0.31,1.28-1.27,1.28c-1.13,0-1.31-1.03-1.31-1.83
			c0-1.05,0.32-2.04,1.4-2.04c0.63,0,1.02,0.35,1.07,0.97H54.76z M53.29,86.64c0,0.47,0.29,0.85,0.79,0.85
			c0.49,0,0.77-0.39,0.77-0.84c0-0.47-0.25-0.87-0.77-0.87C53.57,85.78,53.29,86.16,53.29,86.64z"/>
		<path class="st5" d="M57.43,87.82h-0.46V85.1h-0.99v-0.37c0.52,0,0.99-0.14,1.1-0.71h0.35V87.82z"/>
		<path class="st5" d="M61.03,84.48h-1.54l-0.2,1.1l0.01,0.01c0.17-0.19,0.45-0.27,0.71-0.27c0.68,0,1.23,0.44,1.23,1.31
			c0,0.64-0.45,1.27-1.33,1.27c-0.66,0-1.2-0.4-1.21-1.09h0.46c0.03,0.39,0.34,0.69,0.8,0.69c0.44,0,0.81-0.29,0.81-0.9
			c0-0.5-0.35-0.86-0.86-0.86c-0.29,0-0.53,0.14-0.71,0.36l-0.39-0.02l0.35-1.98h1.88V84.48z"/>
		<path class="st5" d="M63.34,85.05h0.46v0.38h0.01c0.15-0.31,0.5-0.44,0.89-0.44c0.85,0,1.28,0.68,1.28,1.46s-0.42,1.45-1.27,1.45
			c-0.29,0-0.69-0.11-0.9-0.44h-0.01v1.43h-0.46V85.05z M64.63,85.39c-0.61,0-0.85,0.53-0.85,1.05c0,0.55,0.25,1.05,0.88,1.05
			c0.62,0,0.83-0.53,0.83-1.07C65.49,85.89,65.22,85.39,64.63,85.39z"/>
		<path class="st5" d="M66.49,85.05h0.43v0.59h0.01c0.22-0.45,0.53-0.67,1.02-0.65v0.48c-0.74,0-1,0.42-1,1.12v1.24h-0.46V85.05z"/>
		<path class="st5" d="M69.49,84.98c0.88,0,1.35,0.64,1.35,1.46c0,0.81-0.47,1.45-1.35,1.45s-1.35-0.64-1.35-1.45
			C68.14,85.62,68.61,84.98,69.49,84.98z M69.49,87.48c0.48,0,0.86-0.38,0.86-1.05c0-0.68-0.39-1.05-0.86-1.05
			c-0.48,0-0.87,0.38-0.87,1.05C68.62,87.11,69.01,87.48,69.49,87.48z"/>
		<path class="st5" d="M72,85.05h0.55v0.4H72v1.72c0,0.21,0.06,0.25,0.34,0.25h0.21v0.4H72.2c-0.47,0-0.66-0.1-0.66-0.61v-1.77
			h-0.47v-0.4h0.47v-0.83H72V85.05z"/>
		<path class="st5" d="M75.43,86.94c-0.12,0.61-0.56,0.95-1.19,0.95c-0.89,0-1.3-0.61-1.33-1.46c0-0.83,0.55-1.45,1.3-1.45
			c0.98,0,1.28,0.92,1.26,1.59h-2.08c-0.02,0.48,0.26,0.91,0.86,0.91c0.38,0,0.64-0.18,0.72-0.54H75.43z M74.98,86.17
			c-0.02-0.44-0.35-0.78-0.8-0.78c-0.48,0-0.76,0.36-0.79,0.78H74.98z"/>
		<path class="st5" d="M76.42,84.55h-0.46v-0.56h0.46V84.55z M75.96,85.05h0.46v2.78h-0.46V85.05z"/>
		<path class="st5" d="M77.13,85.05h0.43v0.44h0.01c0.19-0.34,0.5-0.5,0.9-0.5c0.73,0,0.96,0.42,0.96,1.02v1.83h-0.46v-1.88
			c0-0.34-0.21-0.56-0.56-0.56c-0.55,0-0.82,0.37-0.82,0.87v1.57h-0.46V85.05z"/>
		<path class="st5" d="M80.39,86.95c0.02,0.41,0.37,0.54,0.75,0.54c0.29,0,0.67-0.06,0.67-0.41c0-0.35-0.45-0.41-0.91-0.52
			c-0.45-0.1-0.91-0.25-0.91-0.78c0-0.56,0.55-0.79,1.04-0.79c0.61,0,1.1,0.19,1.14,0.87h-0.46c-0.03-0.35-0.34-0.47-0.64-0.47
			c-0.27,0-0.59,0.08-0.59,0.35c0,0.33,0.48,0.38,0.91,0.48c0.46,0.1,0.91,0.25,0.91,0.79c0,0.66-0.62,0.88-1.18,0.88
			c-0.62,0-1.15-0.25-1.18-0.94H80.39z"/>
	</g>
	<path class="st5" d="M31.52,86.4c-0.1-0.24,0.02-0.5,0.26-0.6c0.24-0.09,0.5,0.02,0.6,0.26c0.09,0.24-0.02,0.5-0.26,0.6
		C31.89,86.75,31.62,86.63,31.52,86.4"/>
	<path class="st5" d="M30.42,85.81c-0.09-0.24,0.02-0.5,0.26-0.6s0.5,0.02,0.6,0.26c0.09,0.24-0.02,0.5-0.26,0.6
		S30.51,86.05,30.42,85.81"/>
	<polygon class="st15" points="29.68,86.25 30.77,85.57 31.91,86.17 31.96,87.45 30.87,88.14 29.73,87.54 	"/>
	<path class="st5" d="M31.5,87.66c-0.09-0.24,0.02-0.5,0.26-0.6c0.24-0.09,0.5,0.02,0.6,0.26c0.09,0.24-0.02,0.5-0.26,0.6
		C31.87,88.02,31.6,87.9,31.5,87.66"/>
	<path class="st5" d="M30.44,88.29c-0.09-0.24,0.02-0.5,0.26-0.6c0.24-0.09,0.5,0.02,0.6,0.26c0.09,0.24-0.02,0.5-0.26,0.6
		C30.81,88.64,30.54,88.53,30.44,88.29"/>
	<path class="st5" d="M29.21,86.46c-0.09-0.24,0.02-0.5,0.26-0.6c0.24-0.09,0.5,0.02,0.6,0.26c0.09,0.24-0.02,0.5-0.26,0.6
		C29.57,86.81,29.31,86.7,29.21,86.46"/>
	<path class="st5" d="M29.34,87.71c-0.09-0.24,0.02-0.5,0.26-0.6c0.24-0.09,0.5,0.02,0.6,0.26c0.09,0.24-0.02,0.5-0.26,0.6
		C29.7,88.06,29.43,87.94,29.34,87.71"/>
	<line class="st16" x1="30.87" y1="88.13" x2="30.94" y2="89.29"/>
	<line class="st16" x1="30.84" y1="89.54" x2="29.77" y2="89.97"/>
	<path class="st5" d="M30.53,89.74c-0.09-0.24,0.02-0.5,0.26-0.6c0.24-0.09,0.5,0.02,0.6,0.26c0.09,0.24-0.02,0.5-0.26,0.6
		C30.89,90.1,30.63,89.98,30.53,89.74"/>
	<path class="st5" d="M29.07,90.24c-0.09-0.24,0.02-0.5,0.26-0.6c0.24-0.09,0.5,0.02,0.6,0.26c0.09,0.24-0.02,0.5-0.26,0.6
		C29.43,90.59,29.17,90.48,29.07,90.24"/>
	<line class="st16" x1="30.83" y1="89.51" x2="31.59" y2="90.39"/>
	<path class="st5" d="M32.07,90.96c-0.19,0.17-0.48,0.14-0.65-0.05c-0.17-0.19-0.14-0.48,0.05-0.65c0.19-0.17,0.48-0.14,0.65,0.05
		C32.28,90.5,32.26,90.79,32.07,90.96"/>
	<line class="st16" x1="31.74" y1="90.62" x2="31.05" y2="91.54"/>
	<path class="st5" d="M30.6,92.14c-0.2-0.15-0.25-0.44-0.09-0.64c0.15-0.2,0.44-0.25,0.64-0.09c0.2,0.15,0.25,0.44,0.09,0.64
		C31.09,92.25,30.8,92.29,30.6,92.14"/>
	<line class="st16" x1="31.51" y1="90.45" x2="32.49" y2="91.06"/>
	<path class="st5" d="M33.12,91.47c-0.14,0.21-0.42,0.28-0.64,0.14c-0.21-0.14-0.28-0.42-0.14-0.64c0.14-0.22,0.42-0.28,0.64-0.14
		C33.19,90.97,33.25,91.26,33.12,91.47"/>
	<polygon class="st17" points="27.55,89.48 26.4,90.27 25.14,89.67 25.03,88.28 26.18,87.48 27.44,88.09 	"/>
	<path class="st5" d="M25.51,88.02c0.11,0.25,0,0.55-0.25,0.66c-0.25,0.11-0.55,0-0.66-0.25c-0.11-0.25,0-0.55,0.25-0.66
		C25.1,87.66,25.4,87.77,25.51,88.02"/>
	<path class="st5" d="M26.64,87.3c0.11,0.25,0,0.55-0.25,0.66c-0.25,0.11-0.55,0-0.66-0.25c-0.11-0.25,0-0.55,0.25-0.66
		C26.23,86.93,26.53,87.04,26.64,87.3"/>
	<path class="st5" d="M25.6,89.45c0.11,0.25,0,0.55-0.25,0.66c-0.25,0.11-0.55,0-0.66-0.25c-0.11-0.25,0-0.55,0.25-0.66
		C25.19,89.09,25.49,89.2,25.6,89.45"/>
	<path class="st5" d="M26.86,90.08c0.11,0.25,0,0.55-0.25,0.66c-0.25,0.11-0.55,0-0.66-0.25c-0.11-0.25,0-0.55,0.25-0.66
		C26.45,89.71,26.75,89.83,26.86,90.08"/>
	<path class="st5" d="M28.06,89.24c0.11,0.25,0,0.55-0.25,0.66c-0.25,0.11-0.55,0-0.66-0.25c-0.11-0.25,0-0.55,0.25-0.66
		C27.65,88.87,27.95,88.98,28.06,89.24"/>
	<path class="st5" d="M27.87,87.89c0.11,0.25,0,0.55-0.25,0.66c-0.25,0.11-0.55,0-0.66-0.25c-0.11-0.25,0-0.55,0.25-0.66
		C27.46,87.52,27.76,87.63,27.87,87.89"/>
	<path class="st5" d="M26.61,85.92c0.11,0.25,0,0.55-0.25,0.66c-0.25,0.11-0.55,0-0.66-0.25c-0.11-0.25,0-0.55,0.25-0.66
		C26.2,85.55,26.49,85.66,26.61,85.92"/>
	<line class="st18" x1="26.21" y1="87.45" x2="26.15" y2="86.12"/>
	<line class="st18" x1="26.31" y1="90.1" x2="27.14" y2="91.05"/>
	<path class="st5" d="M27.67,91.66c-0.21,0.18-0.53,0.16-0.71-0.05c-0.18-0.21-0.16-0.52,0.05-0.71c0.21-0.18,0.52-0.16,0.71,0.05
		C27.9,91.16,27.88,91.48,27.67,91.66"/>
	<path class="st5" d="M21.53,95.03c0,0.43-0.33,0.78-0.73,0.78c-0.41,0-0.73-0.35-0.73-0.78c0-0.43,0.33-0.78,0.73-0.78
		C21.2,94.25,21.53,94.6,21.53,95.03"/>
	<path class="st5" d="M20.65,95.67l-0.06,0.05c-0.04,0.03-0.1,0.05-0.15,0.06l-0.24,0.02c-0.06,0.01-0.12,0.02-0.18,0.05
		c-0.2,0.11-0.37,0.27-0.47,0.46c0,0-0.46,0.87-0.71,1.33c-0.09,0.16-0.02,0.36,0.15,0.45c0.09,0.05,0.21,0.02,0.26-0.07l0.64-1.13
		c0.04-0.08,0.18-0.17,0.19,0.02l0.05,0.47c0,0.03,0,0.06,0,0.09c-0.01,0.23-0.09,0.59-0.16,0.79l-0.65,2.01
		c-0.09,0.23,0.03,0.49,0.27,0.6c0.08,0.04,0.18,0,0.22-0.08l0.88-2.15c0.02-0.04,0.06-0.07,0.11-0.07c0.05,0,0.09,0.03,0.11,0.07
		l0.88,2.15c0.04,0.08,0.14,0.11,0.22,0.08c0.24-0.11,0.35-0.37,0.27-0.6l-0.65-2.01c-0.07-0.2-0.15-0.56-0.16-0.79
		c0-0.03,0-0.06,0-0.09l0.05-0.47c0.01-0.19,0.15-0.1,0.19-0.02l0.64,1.13c0.05,0.09,0.17,0.12,0.26,0.07
		c0.17-0.09,0.24-0.29,0.15-0.45c-0.25-0.47-0.71-1.33-0.71-1.33c-0.1-0.19-0.27-0.36-0.47-0.46c-0.06-0.03-0.12-0.05-0.18-0.05
		l-0.24-0.02c-0.06,0-0.11-0.02-0.15-0.06l-0.06-0.05H20.65z"/>
	<line class="st6" x1="20.79" y1="103" x2="20.79" y2="142.8"/>
	<polygon class="st5" points="20.79,144.15 19.57,142.25 20.79,142.7 22.01,142.25 	"/>
	<g>
		<path class="st5" d="M17.39,134v0.46h-2.73v0.99H14.3c0-0.52-0.14-0.99-0.71-1.1V134H17.39z"/>
		<path class="st5" d="M14.05,130.41v1.54l1.1,0.2l0.01-0.01c-0.19-0.17-0.27-0.45-0.27-0.71c0-0.68,0.43-1.23,1.3-1.23
			c0.64,0,1.27,0.45,1.27,1.33c0,0.66-0.4,1.2-1.09,1.21v-0.46c0.39-0.03,0.69-0.34,0.69-0.8c0-0.44-0.3-0.81-0.9-0.81
			c-0.51,0-0.87,0.35-0.87,0.86c0,0.29,0.14,0.53,0.36,0.71l-0.02,0.39l-1.98-0.35v-1.88H14.05z"/>
		<path class="st5" d="M16.52,127.84c0.41-0.02,0.54-0.37,0.54-0.75c0-0.28-0.06-0.67-0.41-0.67c-0.35,0-0.41,0.45-0.52,0.91
			c-0.1,0.45-0.25,0.91-0.78,0.91c-0.56,0-0.79-0.55-0.79-1.04c0-0.61,0.19-1.1,0.87-1.14v0.46c-0.36,0.03-0.47,0.34-0.47,0.64
			c0,0.27,0.08,0.59,0.35,0.59c0.33,0,0.38-0.48,0.48-0.91c0.1-0.46,0.25-0.91,0.79-0.91c0.66,0,0.88,0.62,0.88,1.18
			c0,0.62-0.25,1.15-0.94,1.18V127.84z"/>
		<path class="st5" d="M17.38,122.98c0.05,0.08,0.08,0.18,0.08,0.33c0,0.24-0.13,0.39-0.43,0.39c0.29,0.25,0.43,0.59,0.43,0.98
			c0,0.5-0.23,0.92-0.78,0.92c-0.63,0-0.76-0.47-0.85-0.94c-0.1-0.5-0.06-0.93-0.41-0.93c-0.4,0-0.46,0.33-0.46,0.62
			c0,0.39,0.12,0.67,0.53,0.69v0.46c-0.69-0.03-0.93-0.56-0.93-1.18c0-0.5,0.11-1.04,0.76-1.04h1.43c0.21,0,0.31,0,0.31-0.14
			c0-0.04-0.01-0.08-0.03-0.14H17.38z M15.96,123.72c0.13,0.18,0.13,0.52,0.19,0.83c0.05,0.3,0.16,0.56,0.5,0.56
			c0.3,0,0.41-0.26,0.41-0.54c0-0.6-0.38-0.85-0.63-0.85H15.96z"/>
		<path class="st5" d="M14.62,122.55v-0.43h0.41v-0.01c-0.31-0.2-0.47-0.52-0.47-0.9c0-0.34,0.13-0.65,0.47-0.76
			c-0.29-0.19-0.47-0.52-0.47-0.87c0-0.55,0.23-0.92,0.81-0.92h2.04v0.46h-1.82c-0.34,0-0.62,0.09-0.62,0.54
			c0,0.44,0.28,0.73,0.71,0.73h1.73v0.46h-1.82c-0.36,0-0.62,0.11-0.62,0.52c0,0.54,0.5,0.74,0.71,0.74h1.73v0.46H14.62z"/>
		<path class="st5" d="M14.62,117.96v-0.46h0.38v-0.01c-0.31-0.15-0.44-0.5-0.44-0.89c0-0.85,0.68-1.28,1.46-1.28
			c0.79,0,1.45,0.42,1.45,1.27c0,0.29-0.11,0.69-0.44,0.9v0.01h1.43v0.46H14.62z M14.95,116.67c0,0.61,0.53,0.85,1.05,0.85
			c0.55,0,1.05-0.25,1.05-0.88c0-0.62-0.53-0.83-1.07-0.83C15.46,115.82,14.95,116.08,14.95,116.67z"/>
		<path class="st5" d="M13.56,114.77v-0.46h3.83v0.46H13.56z"/>
		<path class="st5" d="M16.51,111.24c0.61,0.12,0.95,0.56,0.95,1.19c0,0.89-0.61,1.3-1.46,1.33c-0.83,0-1.45-0.55-1.45-1.31
			c0-0.98,0.92-1.28,1.59-1.26v2.08c0.48,0.02,0.91-0.26,0.91-0.87c0-0.38-0.18-0.64-0.54-0.72V111.24z M15.74,111.68
			c-0.44,0.02-0.78,0.35-0.78,0.8c0,0.48,0.36,0.76,0.78,0.79V111.68z"/>
		<path class="st5" d="M16.52,110.45c0.41-0.02,0.54-0.37,0.54-0.75c0-0.29-0.06-0.67-0.41-0.67c-0.35,0-0.41,0.45-0.52,0.91
			c-0.1,0.45-0.25,0.91-0.78,0.91c-0.56,0-0.79-0.55-0.79-1.04c0-0.61,0.19-1.1,0.87-1.14v0.46c-0.36,0.03-0.47,0.34-0.47,0.64
			c0,0.27,0.08,0.59,0.35,0.59c0.33,0,0.38-0.48,0.48-0.91c0.1-0.46,0.25-0.91,0.79-0.91c0.66,0,0.88,0.62,0.88,1.18
			c0,0.62-0.25,1.15-0.94,1.18V110.45z"/>
	</g>
</g>
<g>
	<g>
		<g>
			<rect x="231.16" y="64.17" class="st19" width="4.75" height="7.43"/>
			<rect x="231.16" y="56.73" class="st20" width="4.75" height="7.43"/>
			<rect x="231.16" y="49.3" class="st21" width="4.75" height="7.43"/>
			<rect x="231.16" y="41.87" class="st22" width="4.75" height="7.43"/>
			<rect x="231.16" y="34.43" class="st20" width="4.75" height="7.43"/>
			<rect x="231.16" y="27" class="st19" width="4.75" height="7.43"/>
			<rect x="231.16" y="19.57" class="st19" width="4.75" height="7.43"/>
			<rect x="226.41" y="64.17" class="st22" width="4.75" height="7.43"/>
			<rect x="226.41" y="56.73" class="st20" width="4.75" height="7.43"/>
			<rect x="226.41" y="49.3" class="st22" width="4.75" height="7.43"/>
			<rect x="226.41" y="41.87" class="st22" width="4.75" height="7.43"/>
			<rect x="226.41" y="34.43" class="st19" width="4.75" height="7.43"/>
			<rect x="226.41" y="27" class="st22" width="4.75" height="7.43"/>
			<rect x="226.41" y="19.57" class="st22" width="4.75" height="7.43"/>
			<rect x="221.66" y="64.17" class="st23" width="4.75" height="7.43"/>
			<rect x="221.66" y="56.73" class="st19" width="4.75" height="7.43"/>
			<rect x="221.66" y="49.3" class="st19" width="4.75" height="7.43"/>
			<rect x="221.66" y="41.87" class="st23" width="4.75" height="7.43"/>
			<rect x="221.66" y="34.43" class="st23" width="4.75" height="7.43"/>
			<rect x="221.66" y="27" class="st21" width="4.75" height="7.43"/>
			<rect x="221.66" y="19.57" class="st22" width="4.75" height="7.43"/>
			<rect x="216.91" y="64.17" class="st22" width="4.75" height="7.43"/>
			<rect x="216.91" y="56.73" class="st22" width="4.75" height="7.43"/>
			<rect x="216.91" y="49.3" class="st21" width="4.75" height="7.43"/>
			<rect x="216.91" y="41.87" class="st22" width="4.75" height="7.43"/>
			<rect x="216.91" y="34.43" class="st22" width="4.75" height="7.43"/>
			<rect x="216.91" y="27" class="st19" width="4.75" height="7.43"/>
			<rect x="216.91" y="19.57" class="st22" width="4.75" height="7.43"/>
			<rect x="212.16" y="64.17" class="st22" width="4.75" height="7.43"/>
			<rect x="212.16" y="56.73" class="st21" width="4.75" height="7.43"/>
			<rect x="212.16" y="49.3" class="st22" width="4.75" height="7.43"/>
			<rect x="212.16" y="41.87" class="st19" width="4.75" height="7.43"/>
			<rect x="212.16" y="34.43" class="st22" width="4.75" height="7.43"/>
			<rect x="212.16" y="27" class="st21" width="4.75" height="7.43"/>
			<rect x="212.16" y="19.57" class="st23" width="4.75" height="7.43"/>
			<rect x="207.41" y="64.17" class="st19" width="4.75" height="7.43"/>
			<rect x="207.41" y="56.73" class="st23" width="4.75" height="7.43"/>
			<rect x="207.41" y="49.3" class="st22" width="4.75" height="7.43"/>
			<rect x="207.41" y="41.87" class="st22" width="4.75" height="7.43"/>
			<rect x="207.41" y="34.43" class="st21" width="4.75" height="7.43"/>
			<rect x="207.41" y="27" class="st19" width="4.75" height="7.43"/>
			<rect x="207.41" y="19.57" class="st21" width="4.75" height="7.43"/>
			<rect x="202.65" y="64.17" class="st23" width="4.75" height="7.43"/>
			<rect x="202.65" y="56.73" class="st20" width="4.75" height="7.43"/>
			<rect x="202.65" y="49.3" class="st20" width="4.75" height="7.43"/>
			<rect x="202.65" y="41.87" class="st23" width="4.75" height="7.43"/>
			<rect x="202.65" y="34.43" class="st23" width="4.75" height="7.43"/>
			<rect x="202.65" y="27" class="st22" width="4.75" height="7.43"/>
			<rect x="202.65" y="19.57" class="st23" width="4.75" height="7.43"/>
			<rect x="197.9" y="64.17" class="st21" width="4.75" height="7.43"/>
			<rect x="197.9" y="56.73" class="st23" width="4.75" height="7.43"/>
			<rect x="197.9" y="49.3" class="st20" width="4.75" height="7.43"/>
			<rect x="197.9" y="41.87" class="st22" width="4.75" height="7.43"/>
			<rect x="197.9" y="34.43" class="st21" width="4.75" height="7.43"/>
			<rect x="197.9" y="27" class="st23" width="4.75" height="7.43"/>
			<rect x="197.9" y="19.57" class="st22" width="4.75" height="7.43"/>
			<rect x="193.15" y="64.17" class="st23" width="4.75" height="7.43"/>
			<rect x="193.15" y="56.73" class="st22" width="4.75" height="7.43"/>
			<rect x="193.15" y="49.3" class="st22" width="4.75" height="7.43"/>
			<rect x="193.15" y="41.87" class="st23" width="4.75" height="7.43"/>
			<rect x="193.15" y="34.43" class="st22" width="4.75" height="7.43"/>
			<rect x="193.15" y="27" class="st22" width="4.75" height="7.43"/>
			<rect x="193.15" y="19.57" class="st21" width="4.75" height="7.43"/>
			<rect x="188.4" y="64.17" class="st22" width="4.75" height="7.43"/>
			<rect x="188.4" y="56.73" class="st20" width="4.75" height="7.43"/>
			<rect x="188.4" y="49.3" class="st23" width="4.75" height="7.43"/>
			<rect x="188.4" y="41.87" class="st20" width="4.75" height="7.43"/>
			<rect x="188.4" y="34.43" class="st19" width="4.75" height="7.43"/>
			<rect x="188.4" y="27" class="st23" width="4.75" height="7.43"/>
			<rect x="188.4" y="19.57" class="st20" width="4.75" height="7.43"/>
			<rect x="183.65" y="64.17" class="st21" width="4.75" height="7.43"/>
			<rect x="183.65" y="56.73" class="st21" width="4.75" height="7.43"/>
			<rect x="183.65" y="49.3" class="st19" width="4.75" height="7.43"/>
			<rect x="183.65" y="41.87" class="st19" width="4.75" height="7.43"/>
			<rect x="183.65" y="34.43" class="st21" width="4.75" height="7.43"/>
			<rect x="183.65" y="27" class="st21" width="4.75" height="7.43"/>
			<rect x="183.65" y="19.57" class="st20" width="4.75" height="7.43"/>
			<rect x="178.9" y="64.17" class="st19" width="4.75" height="7.43"/>
			<rect x="178.9" y="56.73" class="st23" width="4.75" height="7.43"/>
			<rect x="178.9" y="49.3" class="st21" width="4.75" height="7.43"/>
			<rect x="178.9" y="41.87" class="st23" width="4.75" height="7.43"/>
			<rect x="178.9" y="34.43" class="st23" width="4.75" height="7.43"/>
			<rect x="178.9" y="27" class="st19" width="4.75" height="7.43"/>
			<rect x="178.9" y="19.57" class="st19" width="4.75" height="7.43"/>
			<rect x="174.14" y="64.17" class="st22" width="4.75" height="7.43"/>
			<rect x="174.14" y="56.73" class="st19" width="4.75" height="7.43"/>
			<rect x="174.14" y="49.3" class="st22" width="4.75" height="7.43"/>
			<rect x="174.14" y="41.87" class="st21" width="4.75" height="7.43"/>
			<rect x="174.14" y="34.43" class="st23" width="4.75" height="7.43"/>
			<rect x="174.14" y="27" class="st22" width="4.75" height="7.43"/>
			<rect x="174.14" y="19.57" class="st19" width="4.75" height="7.43"/>
			<rect x="169.39" y="64.17" class="st20" width="4.75" height="7.43"/>
			<rect x="169.39" y="56.73" class="st23" width="4.75" height="7.43"/>
			<rect x="169.39" y="49.3" class="st19" width="4.75" height="7.43"/>
			<rect x="169.39" y="41.87" class="st20" width="4.75" height="7.43"/>
			<rect x="169.39" y="34.43" class="st23" width="4.75" height="7.43"/>
			<rect x="169.39" y="27" class="st21" width="4.75" height="7.43"/>
			<rect x="169.39" y="19.57" class="st22" width="4.75" height="7.43"/>
			<rect x="164.64" y="64.17" class="st20" width="4.75" height="7.43"/>
			<rect x="164.64" y="56.73" class="st23" width="4.75" height="7.43"/>
			<rect x="164.64" y="49.3" class="st23" width="4.75" height="7.43"/>
			<rect x="164.64" y="41.87" class="st22" width="4.75" height="7.43"/>
			<rect x="164.64" y="34.43" class="st21" width="4.75" height="7.43"/>
			<rect x="164.64" y="27" class="st23" width="4.75" height="7.43"/>
			<rect x="164.64" y="19.57" class="st23" width="4.75" height="7.43"/>
			<rect x="159.89" y="64.17" class="st21" width="4.75" height="7.43"/>
			<rect x="159.89" y="56.73" class="st21" width="4.75" height="7.43"/>
			<rect x="159.89" y="49.3" class="st21" width="4.75" height="7.43"/>
			<rect x="159.89" y="41.87" class="st20" width="4.75" height="7.43"/>
			<rect x="159.89" y="34.43" class="st21" width="4.75" height="7.43"/>
			<rect x="159.89" y="27" class="st20" width="4.75" height="7.43"/>
			<rect x="159.89" y="19.57" class="st20" width="4.75" height="7.43"/>
			<rect x="155.14" y="64.17" class="st19" width="4.75" height="7.43"/>
			<rect x="155.14" y="56.73" class="st19" width="4.75" height="7.43"/>
			<rect x="155.14" y="49.3" class="st22" width="4.75" height="7.43"/>
			<rect x="155.14" y="41.87" class="st19" width="4.75" height="7.43"/>
			<rect x="155.14" y="34.43" class="st19" width="4.75" height="7.43"/>
			<rect x="155.14" y="27" class="st21" width="4.75" height="7.43"/>
			<rect x="155.14" y="19.57" class="st22" width="4.75" height="7.43"/>
			<rect x="150.39" y="64.17" class="st19" width="4.75" height="7.43"/>
			<rect x="150.39" y="56.73" class="st23" width="4.75" height="7.43"/>
			<rect x="150.39" y="49.3" class="st21" width="4.75" height="7.43"/>
			<rect x="150.39" y="41.87" class="st19" width="4.75" height="7.43"/>
			<rect x="150.39" y="34.43" class="st22" width="4.75" height="7.43"/>
			<rect x="150.39" y="27" class="st21" width="4.75" height="7.43"/>
			<rect x="150.39" y="19.57" class="st22" width="4.75" height="7.43"/>
		</g>
	</g>
	<path class="st5" d="M148.14,20.91c0,0.43-0.33,0.78-0.73,0.78c-0.41,0-0.73-0.35-0.73-0.78c0-0.43,0.33-0.78,0.73-0.78
		C147.82,20.13,148.14,20.48,148.14,20.91"/>
	<path class="st5" d="M147.27,21.56l-0.06,0.05c-0.04,0.03-0.1,0.05-0.15,0.06l-0.24,0.02c-0.06,0.01-0.12,0.02-0.18,0.05
		c-0.2,0.11-0.37,0.27-0.47,0.46c0,0-0.46,0.87-0.71,1.33c-0.09,0.16-0.02,0.36,0.15,0.45c0.09,0.05,0.21,0.02,0.26-0.07l0.64-1.13
		c0.04-0.08,0.18-0.17,0.19,0.02l0.05,0.47c0,0.03,0,0.06,0,0.09c-0.01,0.23-0.09,0.59-0.16,0.79l-0.65,2.01
		c-0.09,0.23,0.03,0.49,0.27,0.6c0.08,0.04,0.18,0,0.22-0.07l0.88-2.15c0.02-0.04,0.06-0.07,0.11-0.07c0.05,0,0.09,0.03,0.11,0.07
		l0.88,2.15c0.04,0.08,0.14,0.11,0.22,0.07c0.24-0.11,0.35-0.37,0.27-0.6l-0.65-2.01c-0.07-0.2-0.15-0.56-0.16-0.79
		c0-0.03,0-0.06,0-0.09l0.05-0.47c0.01-0.19,0.15-0.1,0.19-0.02l0.64,1.13c0.05,0.09,0.17,0.12,0.26,0.07
		c0.17-0.09,0.24-0.29,0.15-0.45c-0.25-0.47-0.71-1.33-0.71-1.33c-0.1-0.19-0.27-0.36-0.47-0.46c-0.06-0.03-0.12-0.05-0.18-0.05
		l-0.24-0.02c-0.06,0-0.11-0.02-0.15-0.06l-0.06-0.05H147.27z"/>
	<line class="st6" x1="147.41" y1="28.86" x2="147.41" y2="68.66"/>
	<polygon class="st5" points="147.41,70.02 146.19,68.11 147.41,68.56 148.63,68.11 	"/>
	<g>
		<path class="st5" d="M144.01,59.87v0.46h-2.73v0.99h-0.37c0-0.52-0.14-0.99-0.71-1.1v-0.35H144.01z"/>
		<path class="st5" d="M140.2,57.33c0-0.83,0.49-1.16,0.97-1.16c0.34,0,0.65,0.21,0.79,0.53c0.15-0.46,0.48-0.68,0.95-0.68
			c0.74,0,1.16,0.56,1.16,1.26c0,0.73-0.38,1.29-1.16,1.29c-0.45,0-0.8-0.24-0.95-0.67c-0.13,0.32-0.45,0.53-0.79,0.53
			C140.55,58.45,140.2,57.92,140.2,57.33z M141.8,57.29c0-0.36-0.23-0.63-0.61-0.63c-0.38,0-0.59,0.27-0.59,0.64
			c0,0.37,0.2,0.67,0.59,0.67C141.61,57.96,141.8,57.66,141.8,57.29z M143.67,57.29c0-0.46-0.32-0.78-0.74-0.78
			c-0.41,0-0.73,0.35-0.73,0.78c0,0.45,0.29,0.81,0.73,0.81C143.39,58.1,143.67,57.76,143.67,57.29z"/>
		<path class="st5" d="M143.14,53.7c0.41-0.02,0.54-0.37,0.54-0.75c0-0.28-0.06-0.67-0.41-0.67c-0.35,0-0.41,0.45-0.52,0.91
			c-0.1,0.45-0.25,0.91-0.78,0.91c-0.56,0-0.79-0.55-0.79-1.04c0-0.61,0.19-1.1,0.87-1.14v0.46c-0.35,0.03-0.47,0.34-0.47,0.64
			c0,0.27,0.08,0.59,0.35,0.59c0.33,0,0.38-0.48,0.48-0.91c0.1-0.46,0.25-0.91,0.79-0.91c0.66,0,0.88,0.62,0.88,1.18
			c0,0.62-0.25,1.15-0.94,1.18V53.7z"/>
		<path class="st5" d="M144,48.84c0.05,0.08,0.08,0.18,0.08,0.33c0,0.24-0.13,0.39-0.43,0.39c0.3,0.25,0.43,0.59,0.43,0.98
			c0,0.5-0.23,0.92-0.78,0.92c-0.63,0-0.76-0.47-0.85-0.94c-0.1-0.5-0.06-0.93-0.41-0.93c-0.4,0-0.46,0.33-0.46,0.62
			c0,0.39,0.12,0.67,0.53,0.69v0.46c-0.69-0.03-0.93-0.56-0.93-1.18c0-0.5,0.11-1.04,0.76-1.04h1.43c0.21,0,0.31,0,0.31-0.14
			c0-0.04-0.01-0.08-0.03-0.14H144z M142.58,49.58c0.13,0.18,0.13,0.52,0.19,0.83c0.05,0.3,0.16,0.56,0.5,0.56
			c0.3,0,0.41-0.26,0.41-0.54c0-0.6-0.38-0.85-0.63-0.85H142.58z"/>
		<path class="st5" d="M141.23,48.42v-0.43h0.41v-0.01c-0.31-0.2-0.47-0.52-0.47-0.9c0-0.34,0.13-0.65,0.47-0.76
			c-0.3-0.19-0.47-0.52-0.47-0.87c0-0.55,0.23-0.92,0.81-0.92h2.04v0.46h-1.82c-0.34,0-0.62,0.09-0.62,0.54
			c0,0.44,0.28,0.73,0.71,0.73h1.73v0.46h-1.82c-0.36,0-0.62,0.11-0.62,0.52c0,0.54,0.5,0.74,0.71,0.74h1.73v0.46H141.23z"/>
		<path class="st5" d="M141.23,43.83v-0.46h0.38v-0.01c-0.31-0.15-0.44-0.5-0.44-0.89c0-0.85,0.68-1.28,1.46-1.28
			s1.44,0.42,1.44,1.27c0,0.29-0.11,0.69-0.44,0.9v0.01h1.43v0.46H141.23z M141.57,42.54c0,0.61,0.53,0.85,1.05,0.85
			c0.55,0,1.05-0.25,1.05-0.88c0-0.62-0.53-0.83-1.07-0.83C142.08,41.68,141.57,41.95,141.57,42.54z"/>
		<path class="st5" d="M140.18,40.64v-0.46h3.83v0.46H140.18z"/>
		<path class="st5" d="M143.13,37.1c0.61,0.12,0.95,0.56,0.95,1.19c0,0.89-0.61,1.31-1.46,1.33c-0.83,0-1.44-0.55-1.44-1.31
			c0-0.98,0.92-1.28,1.59-1.26v2.08c0.48,0.02,0.91-0.26,0.91-0.86c0-0.38-0.18-0.64-0.54-0.72V37.1z M142.36,37.54
			c-0.44,0.02-0.78,0.35-0.78,0.8c0,0.48,0.36,0.76,0.78,0.79V37.54z"/>
		<path class="st5" d="M143.14,36.31c0.41-0.02,0.54-0.37,0.54-0.75c0-0.28-0.06-0.67-0.41-0.67c-0.35,0-0.41,0.45-0.52,0.91
			c-0.1,0.45-0.25,0.91-0.78,0.91c-0.56,0-0.79-0.55-0.79-1.04c0-0.61,0.19-1.1,0.87-1.14v0.46c-0.35,0.03-0.47,0.34-0.47,0.64
			c0,0.27,0.08,0.59,0.35,0.59c0.33,0,0.38-0.48,0.48-0.91c0.1-0.46,0.25-0.91,0.79-0.91c0.66,0,0.88,0.62,0.88,1.18
			c0,0.62-0.25,1.15-0.94,1.18V36.31z"/>
	</g>
	<line class="st7" x1="161.5" y1="16.75" x2="233.18" y2="16.75"/>
	<polygon class="st5" points="235.3,16.75 232.32,17.97 233.02,16.75 232.32,15.53 	"/>
	<g>
		<path class="st5" d="M180.74,11.46c0.07,0.01,0.13,0.01,0.2,0.01c0.39,0,0.73-0.21,0.73-0.62c0-0.4-0.29-0.61-0.68-0.61
			c-0.5,0-0.71,0.38-0.72,0.83h-0.46c0.03-0.73,0.41-1.23,1.18-1.23c0.66,0,1.16,0.32,1.16,1.02c0,0.33-0.24,0.62-0.53,0.76v0.01
			c0.46,0.1,0.69,0.47,0.69,0.92c0,0.76-0.6,1.16-1.31,1.16c-0.77,0-1.28-0.46-1.27-1.24h0.46c0.02,0.49,0.29,0.84,0.81,0.84
			c0.45,0,0.83-0.27,0.83-0.74c0-0.48-0.36-0.73-0.81-0.73c-0.09,0-0.19,0.01-0.27,0.02V11.46z"/>
		<path class="st5" d="M182.79,11.18c-0.04-0.77,0.42-1.35,1.22-1.35c0.67,0,1.19,0.39,1.19,1.1c0,0.67-0.45,1.01-0.92,1.31
			c-0.48,0.29-0.98,0.53-1.07,1h1.96v0.4h-2.49c0.08-0.9,0.53-1.22,1.07-1.56c0.64-0.4,0.97-0.63,0.97-1.16
			c0-0.41-0.33-0.69-0.74-0.69c-0.53,0-0.76,0.49-0.74,0.95H182.79z"/>
		<path class="st5" d="M187.78,12.34h0.52v0.4h-0.52v0.89h-0.43v-0.89h-1.67V12.3l1.73-2.48h0.37V12.34z M187.35,12.34v-1.86h-0.01
			l-1.27,1.86H187.35z"/>
		<path class="st5" d="M190.01,9.83c1.19,0,1.27,1.1,1.27,1.94c0,0.84-0.08,1.93-1.27,1.93s-1.27-1.1-1.27-1.93
			C188.74,10.92,188.82,9.83,190.01,9.83z M190.01,13.3c0.78,0,0.78-0.97,0.78-1.54c0-0.56-0.01-1.53-0.78-1.53
			s-0.78,0.97-0.78,1.53C189.22,12.33,189.23,13.3,190.01,13.3z"/>
		<path class="st5" d="M193.61,12.76c0.02,0.41,0.37,0.54,0.75,0.54c0.28,0,0.67-0.06,0.67-0.41c0-0.35-0.45-0.41-0.91-0.52
			c-0.45-0.1-0.91-0.25-0.91-0.78c0-0.56,0.55-0.79,1.04-0.79c0.61,0,1.1,0.19,1.14,0.87h-0.46c-0.03-0.35-0.34-0.47-0.64-0.47
			c-0.27,0-0.59,0.08-0.59,0.35c0,0.33,0.48,0.38,0.91,0.48c0.46,0.1,0.91,0.25,0.91,0.79c0,0.66-0.62,0.88-1.18,0.88
			c-0.62,0-1.15-0.25-1.18-0.94H193.61z"/>
		<path class="st5" d="M196.09,9.8h1.8c0.72,0,1.17,0.39,1.17,1c0,0.46-0.2,0.84-0.67,0.97v0.01c0.45,0.09,0.54,0.41,0.57,0.79
			c0.03,0.38,0.01,0.79,0.23,1.06h-0.57c-0.15-0.16-0.06-0.57-0.14-0.95c-0.05-0.38-0.15-0.69-0.64-0.69h-1.25v1.64h-0.51V9.8z
			 M197.66,11.57c0.48,0,0.89-0.12,0.89-0.68c0-0.38-0.2-0.66-0.68-0.66h-1.27v1.34H197.66z"/>
		<path class="st5" d="M199.76,9.8h0.54l2.02,3.11h0.01V9.8h0.48v3.83h-0.56l-2-3.08h-0.01v3.08h-0.48V9.8z"/>
		<path class="st5" d="M204.68,9.8h0.56l1.5,3.83h-0.56l-0.42-1.15h-1.62l-0.43,1.15h-0.53L204.68,9.8z M204.3,12.05h1.3l-0.64-1.79
			h-0.01L204.3,12.05z"/>
	</g>
	<path class="st5" d="M157.43,13.33c0.5,0,0.91,0.41,0.91,0.91c0,0.5-0.41,0.91-0.91,0.91c-0.5,0-0.91-0.41-0.91-0.91
		C156.52,13.74,156.93,13.33,157.43,13.33"/>
	<path class="st5" d="M156.65,12.27c0.46,0,0.84,0.37,0.84,0.84c0,0.46-0.37,0.84-0.84,0.84c-0.46,0-0.84-0.37-0.84-0.84
		C155.81,12.65,156.19,12.27,156.65,12.27"/>
	<path class="st5" d="M157.59,11.34c0.46,0,0.84,0.37,0.84,0.84c0,0.46-0.37,0.84-0.84,0.84c-0.46,0-0.84-0.37-0.84-0.84
		C156.75,11.71,157.13,11.34,157.59,11.34"/>
	<path class="st5" d="M158.61,14.37c0.45,0,0.81,0.36,0.81,0.81c0,0.44-0.36,0.81-0.81,0.81c-0.44,0-0.81-0.36-0.81-0.81
		C157.81,14.73,158.17,14.37,158.61,14.37"/>
	<path class="st5" d="M157.43,14.92c0.43,0,0.78,0.35,0.78,0.78c0,0.43-0.35,0.78-0.78,0.78s-0.78-0.35-0.78-0.78
		C156.65,15.27,157,14.92,157.43,14.92"/>
	<path class="st5" d="M156.7,15.89c0.49,0,0.89,0.4,0.89,0.89c0,0.49-0.4,0.89-0.89,0.89s-0.89-0.4-0.89-0.89
		C155.81,16.29,156.21,15.89,156.7,15.89"/>
	<path class="st5" d="M157.82,16.78c0.49,0,0.89,0.4,0.89,0.89c0,0.49-0.4,0.89-0.89,0.89c-0.49,0-0.89-0.4-0.89-0.89
		C156.93,17.18,157.32,16.78,157.82,16.78"/>
	<path class="st5" d="M153.61,16.34c-0.5-0.03-0.88-0.47-0.85-0.97c0.03-0.5,0.47-0.88,0.97-0.85c0.5,0.03,0.88,0.47,0.85,0.97
		C154.54,15.99,154.11,16.37,153.61,16.34"/>
	<path class="st5" d="M153.73,18.53c-0.45,0.12-0.9-0.15-1.02-0.59c-0.12-0.45,0.15-0.9,0.59-1.02c0.45-0.12,0.9,0.15,1.02,0.59
		C154.44,17.95,154.18,18.41,153.73,18.53"/>
	<path class="st5" d="M153.02,17.55c-0.45,0.12-0.9-0.15-1.02-0.59c-0.12-0.45,0.15-0.91,0.59-1.02c0.45-0.12,0.9,0.15,1.02,0.59
		C153.73,16.97,153.47,17.43,153.02,17.55"/>
	<path class="st5" d="M151.85,17.86c-0.43,0.11-0.87-0.14-0.99-0.57c-0.11-0.43,0.14-0.87,0.57-0.99c0.43-0.11,0.87,0.14,0.99,0.57
		C152.54,17.3,152.28,17.75,151.85,17.86"/>
	<path class="st5" d="M154.55,15.17c-0.41,0.11-0.84-0.14-0.95-0.55c-0.11-0.41,0.14-0.84,0.55-0.95c0.41-0.11,0.84,0.14,0.95,0.55
		C155.21,14.63,154.96,15.06,154.55,15.17"/>
	<path class="st5" d="M153.63,14.28c-0.47,0.13-0.96-0.16-1.09-0.63c-0.13-0.47,0.16-0.96,0.63-1.09c0.47-0.13,0.96,0.16,1.09,0.63
		C154.39,13.67,154.11,14.15,153.63,14.28"/>
	<path class="st5" d="M152.64,13.29c-0.47,0.13-0.96-0.16-1.09-0.63c-0.13-0.47,0.16-0.96,0.63-1.09c0.47-0.13,0.96,0.16,1.09,0.63
		C153.4,12.68,153.12,13.16,152.64,13.29"/>
</g>
<g>
	<polyline class="st24" points="155.94,145.76 151.19,145.76 151.19,138.33 155.94,138.33 	"/>
	<polyline class="st25" points="155.94,138.33 151.19,138.33 151.19,130.9 155.94,130.9 	"/>
	<polyline class="st24" points="155.94,130.9 151.19,130.9 151.19,123.47 155.94,123.47 	"/>
	<polyline class="st24" points="155.94,123.47 151.19,123.47 151.19,116.03 155.94,116.03 	"/>
	<polyline class="st26" points="155.94,116.03 151.19,116.03 151.19,108.6 155.94,108.6 	"/>
	<polyline class="st25" points="155.94,108.6 151.19,108.6 151.19,101.17 155.94,101.17 	"/>
	<polyline class="st25" points="155.94,101.17 151.19,101.17 151.19,93.74 155.94,93.74 	"/>
	<path class="st5" d="M148.73,95.03c0,0.43-0.33,0.78-0.73,0.78c-0.41,0-0.73-0.35-0.73-0.78c0-0.43,0.33-0.78,0.73-0.78
		C148.4,94.25,148.73,94.6,148.73,95.03"/>
	<path class="st5" d="M147.85,95.67l-0.06,0.05c-0.04,0.03-0.1,0.05-0.15,0.06l-0.24,0.02c-0.06,0.01-0.12,0.02-0.18,0.05
		c-0.2,0.11-0.37,0.27-0.47,0.46c0,0-0.46,0.87-0.71,1.33c-0.09,0.16-0.02,0.36,0.15,0.45c0.09,0.05,0.21,0.02,0.26-0.07l0.64-1.13
		c0.04-0.08,0.18-0.17,0.19,0.02l0.05,0.47c0,0.03,0,0.06,0,0.09c-0.01,0.23-0.09,0.59-0.16,0.79l-0.65,2.01
		c-0.09,0.23,0.03,0.49,0.27,0.6c0.08,0.04,0.18,0,0.22-0.08l0.88-2.15c0.02-0.04,0.06-0.07,0.11-0.07c0.05,0,0.09,0.03,0.11,0.07
		l0.88,2.15c0.04,0.08,0.14,0.11,0.22,0.08c0.24-0.11,0.35-0.37,0.27-0.6l-0.65-2.01c-0.07-0.2-0.15-0.56-0.16-0.79
		c0-0.03,0-0.06,0-0.09l0.05-0.47c0.01-0.19,0.15-0.1,0.19-0.02l0.64,1.13c0.05,0.09,0.17,0.12,0.26,0.07
		c0.17-0.09,0.24-0.29,0.15-0.45c-0.25-0.47-0.71-1.33-0.71-1.33c-0.1-0.19-0.27-0.36-0.47-0.46c-0.06-0.03-0.12-0.05-0.18-0.05
		l-0.24-0.02c-0.06,0-0.11-0.02-0.15-0.06l-0.06-0.05H147.85z"/>
	<line class="st6" x1="147.99" y1="103" x2="147.99" y2="142.8"/>
	<polygon class="st5" points="147.99,144.15 146.77,142.25 147.99,142.7 149.22,142.25 	"/>
	<g>
		<path class="st5" d="M142.42,138.66c0.01-0.07,0.01-0.13,0.01-0.2c0-0.39-0.21-0.72-0.62-0.72c-0.4,0-0.61,0.29-0.61,0.68
			c0,0.5,0.38,0.71,0.83,0.72v0.46c-0.72-0.03-1.23-0.41-1.23-1.18c0-0.66,0.32-1.16,1.02-1.16c0.33,0,0.62,0.24,0.76,0.53h0.01
			c0.1-0.46,0.47-0.69,0.92-0.69c0.76,0,1.16,0.6,1.16,1.31c0,0.77-0.46,1.28-1.24,1.27v-0.46c0.49-0.02,0.84-0.29,0.84-0.81
			c0-0.45-0.27-0.83-0.74-0.83c-0.48,0-0.73,0.36-0.73,0.81c0,0.09,0.01,0.19,0.02,0.27H142.42z"/>
		<path class="st5" d="M142.89,136.58v-1.55h0.43v1.55H142.89z"/>
		<path class="st5" d="M142.71,132.54c-0.35,0.07-0.55,0.31-0.55,0.69c0,0.66,0.52,0.87,1.08,0.87c0.51,0,1.02-0.23,1.02-0.81
			c0-0.44-0.26-0.7-0.68-0.76v-0.47c0.68,0.1,1.08,0.53,1.08,1.22c0,0.85-0.59,1.3-1.42,1.3c-0.83,0-1.49-0.43-1.49-1.31
			c0-0.63,0.3-1.13,0.96-1.2V132.54z"/>
		<path class="st5" d="M140.76,131.51v-0.46h3.83v0.46H140.76z"/>
		<path class="st5" d="M144.58,127.89c0.05,0.08,0.08,0.18,0.08,0.33c0,0.24-0.13,0.39-0.43,0.39c0.29,0.25,0.43,0.59,0.43,0.98
			c0,0.5-0.23,0.92-0.78,0.92c-0.63,0-0.76-0.47-0.85-0.94c-0.1-0.5-0.06-0.93-0.41-0.93c-0.4,0-0.46,0.33-0.46,0.62
			c0,0.39,0.12,0.67,0.53,0.69v0.46c-0.69-0.03-0.93-0.56-0.93-1.18c0-0.5,0.11-1.04,0.76-1.04h1.43c0.21,0,0.31,0,0.31-0.15
			c0-0.04-0.01-0.08-0.03-0.14H144.58z M143.16,128.63c0.13,0.18,0.13,0.52,0.19,0.83c0.05,0.3,0.16,0.56,0.5,0.56
			c0.3,0,0.41-0.26,0.41-0.54c0-0.6-0.38-0.85-0.63-0.85H143.16z"/>
		<path class="st5" d="M143.72,127.19c0.41-0.02,0.54-0.37,0.54-0.75c0-0.29-0.06-0.67-0.41-0.67c-0.35,0-0.41,0.45-0.52,0.91
			c-0.1,0.45-0.25,0.91-0.78,0.91c-0.56,0-0.79-0.55-0.79-1.04c0-0.61,0.19-1.1,0.87-1.14v0.46c-0.36,0.03-0.47,0.34-0.47,0.64
			c0,0.27,0.08,0.59,0.35,0.59c0.33,0,0.38-0.48,0.48-0.91c0.1-0.46,0.25-0.91,0.79-0.91c0.66,0,0.88,0.62,0.88,1.18
			c0,0.62-0.25,1.15-0.94,1.18V127.19z"/>
		<path class="st5" d="M143.72,124.51c0.41-0.02,0.54-0.37,0.54-0.75c0-0.28-0.06-0.67-0.41-0.67c-0.35,0-0.41,0.45-0.52,0.91
			c-0.1,0.45-0.25,0.91-0.78,0.91c-0.56,0-0.79-0.55-0.79-1.04c0-0.61,0.19-1.1,0.87-1.14v0.46c-0.36,0.03-0.47,0.34-0.47,0.64
			c0,0.27,0.08,0.59,0.35,0.59c0.33,0,0.38-0.48,0.48-0.91c0.1-0.46,0.25-0.91,0.79-0.91c0.66,0,0.88,0.62,0.88,1.18
			c0,0.62-0.25,1.15-0.94,1.18V124.51z"/>
		<path class="st5" d="M144.6,119.36v0.49l-2.78,1.03v-0.51l2.32-0.78v-0.01l-2.32-0.76v-0.48L144.6,119.36z"/>
		<path class="st5" d="M143.71,115.57c0.61,0.12,0.95,0.56,0.95,1.19c0,0.89-0.61,1.3-1.46,1.33c-0.83,0-1.45-0.55-1.45-1.31
			c0-0.98,0.92-1.28,1.59-1.26v2.08c0.48,0.02,0.91-0.26,0.91-0.87c0-0.38-0.18-0.64-0.54-0.72V115.57z M142.94,116.01
			c-0.44,0.02-0.78,0.35-0.78,0.8c0,0.48,0.36,0.76,0.78,0.79V116.01z"/>
		<path class="st5" d="M142.71,113.17c-0.35,0.07-0.55,0.31-0.55,0.69c0,0.66,0.52,0.87,1.08,0.87c0.51,0,1.02-0.23,1.02-0.81
			c0-0.44-0.26-0.7-0.68-0.76v-0.47c0.68,0.1,1.08,0.53,1.08,1.22c0,0.85-0.59,1.3-1.42,1.3c-0.83,0-1.49-0.43-1.49-1.31
			c0-0.63,0.3-1.13,0.96-1.2V113.17z"/>
		<path class="st5" d="M141.82,111.54v-0.55h0.4v0.55h1.72c0.21,0,0.25-0.06,0.25-0.34v-0.21h0.4v0.35c0,0.47-0.1,0.66-0.61,0.66
			h-1.77v0.47h-0.4V112h-0.83v-0.46H141.82z"/>
		<path class="st5" d="M141.75,109.29c0-0.88,0.64-1.35,1.46-1.35c0.81,0,1.45,0.47,1.45,1.35s-0.64,1.35-1.45,1.35
			C142.39,110.63,141.75,110.17,141.75,109.29z M144.26,109.29c0-0.48-0.38-0.87-1.05-0.87c-0.68,0-1.05,0.39-1.05,0.87
			c0,0.48,0.38,0.86,1.05,0.86C143.88,110.15,144.26,109.76,144.26,109.29z"/>
		<path class="st5" d="M141.82,107.42v-0.43h0.59v-0.01c-0.45-0.22-0.67-0.53-0.65-1.02h0.48c0,0.74,0.42,1,1.12,1h1.24v0.46H141.82
			z"/>
	</g>
</g>
<g>
	<circle class="st4" cx="12.23" cy="15.43" r="4.48"/>
	<g>
		<path class="st27" d="M11.73,12.82h1.03l1.7,4.55h-1.04l-0.34-1.01h-1.7l-0.36,1.01H10L11.73,12.82z M11.63,15.61h1.18l-0.57-1.67
			h-0.01L11.63,15.61z"/>
	</g>
</g>
<g>
	<circle class="st20" cx="140.18" cy="15.43" r="4.48"/>
	<g>
		<path class="st27" d="M138.38,12.82h2.14c0.87,0,1.45,0.28,1.45,1.13c0,0.45-0.22,0.76-0.62,0.95c0.55,0.16,0.84,0.59,0.84,1.15
			c0,0.92-0.78,1.32-1.61,1.32h-2.21V12.82z M139.38,14.66h1.01c0.35,0,0.61-0.16,0.61-0.54c0-0.43-0.33-0.52-0.69-0.52h-0.94V14.66
			z M139.38,16.59h1.07c0.4,0,0.74-0.13,0.74-0.6c0-0.47-0.29-0.65-0.72-0.65h-1.09V16.59z"/>
	</g>
</g>
<g>
	<circle class="st14" cx="12.91" cy="89.61" r="4.48"/>
	<g>
		<path class="st27" d="M14.03,88.79c-0.06-0.45-0.5-0.8-1-0.8c-0.9,0-1.24,0.76-1.24,1.56c0,0.76,0.34,1.52,1.24,1.52
			c0.61,0,0.96-0.42,1.03-1.02h0.97c-0.1,1.13-0.89,1.86-2,1.86c-1.41,0-2.24-1.05-2.24-2.37c0-1.35,0.83-2.41,2.24-2.41
			c1,0,1.84,0.59,1.96,1.64H14.03z"/>
	</g>
</g>
<g>
	<circle class="st25" cx="137.34" cy="89.61" r="4.48"/>
	<g>
		<path class="st27" d="M135.69,87.26h1.96c1.18,0,2.07,0.74,2.07,2.25c0,1.32-0.68,2.3-2.07,2.3h-1.96V87.26z M136.69,90.98h0.89
			c0.58,0,1.14-0.36,1.14-1.37c0-0.92-0.32-1.5-1.31-1.5h-0.71V90.98z"/>
	</g>
</g>
</svg>
