<?xml version="1.0" encoding="utf-8"?>
<!-- Generator: Adobe Illustrator 25.0.1, SVG Export Plug-In . SVG Version: 6.00 Build 0)  -->
<svg version="1.1" xmlns="http://www.w3.org/2000/svg" xmlns:xlink="http://www.w3.org/1999/xlink" x="0px" y="0px"
	 viewBox="0 0 617.78 393.94" style="enable-background:new 0 0 617.78 393.94;" xml:space="preserve">
<style type="text/css">
	.st0{display:none;fill:#FFFFFF;}
	.st1{display:none;fill:#00468B;}
	.st2{fill:#00468B;}
	.st3{fill:#FFFFFF;}
	.st4{fill:#010101;}
	.st5{fill:none;}
	.st6{fill:#EAF7FA;}
	.st7{fill:#4F8AC9;}
	.st8{fill:#C1E7FB;}
	.st9{fill:#8CCFEA;}
	.st10{fill:#2E368F;}
	.st11{fill:#333333;stroke:#FFFFFF;stroke-width:0.2854;stroke-miterlimit:10;}
	.st12{fill:#333333;stroke:#FFFFFF;stroke-width:0.3574;stroke-miterlimit:10;}
	.st13{fill:#FFFFFF;stroke:#FFFFFF;stroke-width:0.4942;stroke-linecap:round;stroke-miterlimit:10;}
	.st14{fill:#FFFFFF;stroke:#FFFFFF;stroke-width:0.9883;stroke-linecap:round;stroke-miterlimit:10;}
	.st15{fill:#F58776;}
	.st16{fill:#E6294B;}
	.st17{fill:#FDD7C9;}
	.st18{fill:#F04E45;}
	.st19{fill:#9F224B;}
	.st20{fill:none;stroke:#FFFFFF;stroke-width:0.2607;stroke-miterlimit:10;}
	.st21{fill:#FFFFFF;stroke:#FFFFFF;stroke-width:0.2549;stroke-miterlimit:10;}
	.st22{fill:none;stroke:#FFFFFF;stroke-width:0.2838;stroke-miterlimit:10;}
	.st23{fill:#FFFFFF;stroke:#FFFFFF;stroke-width:0.2776;stroke-miterlimit:10;}
	.st24{fill:#C5CBD8;}
	.st25{fill:#131926;}
	.st26{fill:#596474;}
	.st27{fill:#8D98A6;}
	.st28{fill:#283240;}
	.st29{fill:#FFFFFF;stroke:#FFFFFF;stroke-width:0.3574;stroke-miterlimit:10;}
	.st30{fill:#FBB675;}
	.st31{fill:#F68B43;}
	.st32{fill:#FFEAC9;}
	.st33{fill:#4E8AC8;}
	.st34{opacity:0.12;fill:#8ACFEB;}
	.st35{fill:none;stroke:#333333;stroke-width:0.3574;stroke-miterlimit:10;}
	.st36{fill:#333333;}
	.st37{fill:none;stroke:#333333;stroke-width:0.25;stroke-linecap:round;stroke-miterlimit:10;}
	.st38{clip-path:url(#SVGID_2_);}
	.st39{clip-path:url(#SVGID_4_);fill:#72A9D6;}
	.st40{clip-path:url(#SVGID_4_);fill:#CCECF7;}
	.st41{clip-path:url(#SVGID_4_);fill:#ABD1E8;}
	.st42{clip-path:url(#SVGID_4_);fill:#4C6DB5;}
	.st43{clip-path:url(#SVGID_6_);}
	.st44{clip-path:url(#SVGID_8_);fill:#4C6DB5;}
	.st45{clip-path:url(#SVGID_8_);fill:#CCECF7;}
	.st46{clip-path:url(#SVGID_8_);fill:#ABD1E8;}
	.st47{clip-path:url(#SVGID_8_);fill:#72A9D6;}
	.st48{clip-path:url(#SVGID_10_);}
	.st49{clip-path:url(#SVGID_12_);fill:#4C6DB5;}
	.st50{clip-path:url(#SVGID_12_);fill:#72A9D6;}
	.st51{clip-path:url(#SVGID_12_);fill:#ABD1E8;}
	.st52{clip-path:url(#SVGID_12_);fill:#CCECF7;}
	.st53{clip-path:url(#SVGID_14_);}
	.st54{clip-path:url(#SVGID_16_);fill:#ACC9E3;}
	.st55{clip-path:url(#SVGID_16_);fill:#303E93;}
	.st56{clip-path:url(#SVGID_16_);fill:#DBE8F3;}
	.st57{clip-path:url(#SVGID_16_);fill:#485AA8;}
	.st58{fill:#485AA8;}
	.st59{fill:#ACC9E3;}
	.st60{fill:#303E93;}
	.st61{fill:#DBE8F3;}
	.st62{clip-path:url(#SVGID_18_);}
	.st63{clip-path:url(#SVGID_20_);fill:#303E93;}
	.st64{clip-path:url(#SVGID_20_);fill:#DBE8F3;}
	.st65{clip-path:url(#SVGID_20_);fill:#ACC9E3;}
	.st66{clip-path:url(#SVGID_20_);fill:#485AA8;}
	.st67{clip-path:url(#SVGID_22_);}
	.st68{clip-path:url(#SVGID_24_);fill:#ACC9E3;}
	.st69{clip-path:url(#SVGID_24_);fill:#485AA8;}
	.st70{clip-path:url(#SVGID_24_);fill:#DBE8F3;}
	.st71{clip-path:url(#SVGID_24_);fill:#303E93;}
	.st72{clip-path:url(#SVGID_26_);}
	.st73{clip-path:url(#SVGID_28_);fill:#F9AA8B;}
	.st74{clip-path:url(#SVGID_28_);fill:#FDDCD0;}
	.st75{clip-path:url(#SVGID_28_);fill:#F37157;}
	.st76{clip-path:url(#SVGID_30_);}
	.st77{clip-path:url(#SVGID_32_);fill:#F9AA8B;}
	.st78{clip-path:url(#SVGID_32_);fill:#F37157;}
	.st79{clip-path:url(#SVGID_32_);fill:#FDDCD0;}
	.st80{fill:#E28257;}
	.st81{fill:#B24226;}
	.st82{fill:#F5AD88;}
	.st83{opacity:0.5;fill:#9AB7B0;}
	.st84{clip-path:url(#SVGID_34_);}
	.st85{clip-path:url(#SVGID_36_);fill:#EF3959;}
	.st86{clip-path:url(#SVGID_36_);fill:#F8AEAD;}
	.st87{clip-path:url(#SVGID_36_);fill:#F26E69;}
	.st88{clip-path:url(#SVGID_38_);}
	.st89{clip-path:url(#SVGID_40_);fill:#F26E69;}
	.st90{clip-path:url(#SVGID_40_);fill:#F8AEAD;}
	.st91{clip-path:url(#SVGID_40_);fill:#EF3959;}
	.st92{clip-path:url(#SVGID_42_);}
	.st93{clip-path:url(#SVGID_44_);fill:#F26E69;}
	.st94{clip-path:url(#SVGID_44_);fill:#EF3959;}
	.st95{clip-path:url(#SVGID_44_);fill:#F8AEAD;}
	.st96{clip-path:url(#SVGID_46_);}
	.st97{clip-path:url(#SVGID_48_);fill:#FDDCD7;}
	.st98{clip-path:url(#SVGID_48_);fill:#F8A59B;}
	.st99{clip-path:url(#SVGID_48_);fill:#EF4643;}
	.st100{fill:#FDDCD7;}
	.st101{fill:#F8A59B;}
	.st102{clip-path:url(#SVGID_50_);}
	.st103{clip-path:url(#SVGID_52_);fill:#FDDCD7;}
	.st104{clip-path:url(#SVGID_52_);fill:#F8A59B;}
	.st105{clip-path:url(#SVGID_52_);fill:#EF4643;}
	.st106{fill:#EF4643;}
	.st107{clip-path:url(#SVGID_54_);}
	.st108{clip-path:url(#SVGID_56_);fill:#F8A59B;}
	.st109{clip-path:url(#SVGID_56_);fill:#EF4643;}
	.st110{clip-path:url(#SVGID_56_);fill:#FDDCD7;}
	.st111{clip-path:url(#SVGID_58_);}
	.st112{clip-path:url(#SVGID_60_);fill:#F9AA8B;}
	.st113{clip-path:url(#SVGID_60_);fill:#FDDCD0;}
	.st114{clip-path:url(#SVGID_60_);fill:#F37157;}
	.st115{clip-path:url(#SVGID_62_);}
	.st116{clip-path:url(#SVGID_64_);fill:#F9AA8B;}
	.st117{clip-path:url(#SVGID_64_);fill:#F37157;}
	.st118{clip-path:url(#SVGID_64_);fill:#FDDCD0;}
	.st119{fill:#E28764;}
	.st120{fill:#B3462E;}
	.st121{fill:#F5B397;}
	.st122{clip-path:url(#SVGID_66_);}
	.st123{clip-path:url(#SVGID_68_);fill:#BACEE3;}
	.st124{clip-path:url(#SVGID_68_);fill:#44489B;}
	.st125{clip-path:url(#SVGID_68_);fill:#D3E6F7;}
	.st126{clip-path:url(#SVGID_68_);fill:#5D68B0;}
	.st127{fill:#5D68B0;}
	.st128{fill:#BACEE3;}
	.st129{fill:#44489B;}
	.st130{fill:#D3E6F7;}
	.st131{clip-path:url(#SVGID_70_);}
	.st132{clip-path:url(#SVGID_72_);fill:#82BADA;}
	.st133{clip-path:url(#SVGID_72_);fill:#BFE7F7;}
	.st134{clip-path:url(#SVGID_72_);fill:#B5D6EA;}
	.st135{clip-path:url(#SVGID_72_);fill:#5380C1;}
	.st136{clip-path:url(#SVGID_74_);}
	.st137{clip-path:url(#SVGID_76_);fill:#5380C1;}
	.st138{clip-path:url(#SVGID_76_);fill:#BFE7F7;}
	.st139{clip-path:url(#SVGID_76_);fill:#B5D6EA;}
	.st140{clip-path:url(#SVGID_76_);fill:#82BADA;}
	.st141{clip-path:url(#SVGID_78_);}
	.st142{clip-path:url(#SVGID_80_);fill:#5380C1;}
	.st143{clip-path:url(#SVGID_80_);fill:#82BADA;}
	.st144{clip-path:url(#SVGID_80_);fill:#B5D6EA;}
	.st145{clip-path:url(#SVGID_80_);fill:#BFE7F7;}
	.st146{fill:#2C3C3F;}
	.st147{clip-path:url(#SVGID_82_);}
	.st148{clip-path:url(#SVGID_84_);fill:#44489B;}
	.st149{clip-path:url(#SVGID_84_);fill:#D3E6F7;}
	.st150{clip-path:url(#SVGID_84_);fill:#BACEE3;}
	.st151{clip-path:url(#SVGID_84_);fill:#5D68B0;}
	.st152{clip-path:url(#SVGID_86_);}
	.st153{clip-path:url(#SVGID_88_);fill:#BACEE3;}
	.st154{clip-path:url(#SVGID_88_);fill:#5D68B0;}
	.st155{clip-path:url(#SVGID_88_);fill:#D3E6F7;}
	.st156{clip-path:url(#SVGID_88_);fill:#44489B;}
	.st157{clip-path:url(#SVGID_90_);}
	.st158{clip-path:url(#SVGID_92_);fill:#B3B4B4;}
	.st159{clip-path:url(#SVGID_92_);fill:#E6E6E6;}
	.st160{clip-path:url(#SVGID_92_);fill:#CCCCCB;}
	.st161{clip-path:url(#SVGID_92_);fill:#808080;}
	.st162{clip-path:url(#SVGID_94_);}
	.st163{clip-path:url(#SVGID_96_);fill:#E6E6E6;}
	.st164{clip-path:url(#SVGID_96_);fill:#B3B4B4;}
	.st165{clip-path:url(#SVGID_96_);fill:#808080;}
	.st166{clip-path:url(#SVGID_96_);fill:#CCCCCB;}
	.st167{clip-path:url(#SVGID_98_);}
	.st168{clip-path:url(#SVGID_100_);fill:#808080;}
	.st169{clip-path:url(#SVGID_100_);fill:#B3B4B4;}
	.st170{clip-path:url(#SVGID_100_);fill:#CCCCCB;}
	.st171{clip-path:url(#SVGID_100_);fill:#E6E6E6;}
	.st172{clip-path:url(#SVGID_102_);}
	.st173{clip-path:url(#SVGID_104_);fill:#9D9FA1;}
	.st174{clip-path:url(#SVGID_104_);fill:#C6C6C5;}
	.st175{clip-path:url(#SVGID_104_);fill:#2B353E;}
	.st176{clip-path:url(#SVGID_104_);fill:#636C6F;}
	.st177{fill:#2B353E;}
	.st178{fill:#C6C6C5;}
	.st179{fill:#636C6F;}
	.st180{fill:#9D9FA1;}
	.st181{clip-path:url(#SVGID_106_);}
	.st182{clip-path:url(#SVGID_108_);fill:#636C6F;}
	.st183{clip-path:url(#SVGID_108_);fill:#2B353E;}
	.st184{clip-path:url(#SVGID_108_);fill:#C6C6C5;}
	.st185{clip-path:url(#SVGID_108_);fill:#9D9FA1;}
	.st186{clip-path:url(#SVGID_110_);}
	.st187{clip-path:url(#SVGID_112_);fill:#2B353E;}
	.st188{clip-path:url(#SVGID_112_);fill:#9D9FA1;}
	.st189{clip-path:url(#SVGID_112_);fill:#636C6F;}
	.st190{clip-path:url(#SVGID_112_);fill:#C6C6C5;}
	.st191{opacity:0.502;fill:none;stroke:#8DCFE9;stroke-width:7.5602;stroke-miterlimit:10;}
	.st192{fill:none;stroke:#8DCFE9;stroke-width:7.5602;stroke-miterlimit:10;}
	.st193{opacity:0.502;fill:none;stroke:#141927;stroke-width:7.5602;stroke-miterlimit:10;}
	.st194{fill:none;stroke:#141927;stroke-width:7.5602;stroke-miterlimit:10;}
	.st195{opacity:0.502;fill:none;stroke:#E62C4D;stroke-width:7.5602;stroke-miterlimit:10;}
	.st196{fill:none;stroke:#E62C4D;stroke-width:7.5602;stroke-miterlimit:10;}
	.st197{opacity:0.502;fill:none;stroke:#E62C4D;stroke-width:7.5602;stroke-linejoin:round;stroke-miterlimit:10;}
	.st198{opacity:0.4;fill:none;stroke:#8151A1;stroke-width:0.3024;stroke-linejoin:round;stroke-miterlimit:10;}
	.st199{opacity:0.4;fill:none;stroke:#FAA51A;stroke-width:0.3024;stroke-linejoin:round;stroke-miterlimit:10;}
	.st200{fill:#FAA51A;}
	.st201{fill:none;stroke:#FAA51A;stroke-width:0.2786;stroke-linecap:round;stroke-linejoin:round;stroke-miterlimit:10;}
	.st202{fill:#8151A1;}
	.st203{fill:none;stroke:#8151A1;stroke-width:0.2786;stroke-linecap:round;stroke-linejoin:round;stroke-miterlimit:10;}
	.st204{clip-path:url(#SVGID_114_);fill:none;stroke:#EBEBEB;stroke-width:0.1351;stroke-linejoin:round;stroke-miterlimit:10;}
	.st205{clip-path:url(#SVGID_116_);fill:none;stroke:#EBEBEB;stroke-width:0.1351;stroke-linejoin:round;stroke-miterlimit:10;}
	.st206{fill:none;stroke:#8DCFE9;stroke-width:0.0897;stroke-linecap:round;stroke-linejoin:round;stroke-miterlimit:10;}
	.st207{opacity:0.8;fill:#FFFFFF;}
	.st208{fill:none;stroke:#333333;stroke-width:0.1351;stroke-linejoin:round;stroke-miterlimit:10;}
	
		.st209{clip-path:url(#SVGID_118_);fill:none;stroke:#AAAAAA;stroke-width:0.1351;stroke-linejoin:round;stroke-miterlimit:10;stroke-dasharray:0.5403,0.5403;}
	
		.st210{clip-path:url(#SVGID_120_);fill:none;stroke:#AAAAAA;stroke-width:0.1351;stroke-linejoin:round;stroke-miterlimit:10;stroke-dasharray:0.5403,0.5403;}
	.st211{fill:#4E4E4E;}
	.st212{fill:none;stroke:#010101;stroke-width:0.1018;stroke-linecap:round;stroke-linejoin:round;stroke-miterlimit:10;}
	.st213{fill:#AEBED1;}
	.st214{fill:#EE2978;}
	.st215{fill:#3E58A7;}
	.st216{opacity:0.6;fill:#FFFFFF;}
	.st217{fill:#174889;}
	.st218{fill:#121212;}
	.st219{fill:#333333;stroke:#FFFFFF;stroke-width:0.2956;stroke-miterlimit:10;}
	.st220{fill:#333333;stroke:#FFFFFF;stroke-width:0.3702;stroke-miterlimit:10;}
	.st221{fill:#FFFFFF;stroke:#FFFFFF;stroke-width:0.5119;stroke-linecap:round;stroke-miterlimit:10;}
	.st222{fill:#FFFFFF;stroke:#FFFFFF;stroke-width:1.0238;stroke-linecap:round;stroke-miterlimit:10;}
	.st223{fill:none;stroke:#FFFFFF;stroke-width:0.27;stroke-miterlimit:10;}
	.st224{fill:#FFFFFF;stroke:#FFFFFF;stroke-width:0.264;stroke-miterlimit:10;}
	.st225{fill:none;stroke:#FFFFFF;stroke-width:0.294;stroke-miterlimit:10;}
	.st226{fill:#FFFFFF;stroke:#FFFFFF;stroke-width:0.2876;stroke-miterlimit:10;}
	.st227{fill:#FFFFFF;stroke:#FFFFFF;stroke-width:0.3702;stroke-miterlimit:10;}
	.st228{fill:none;stroke:#333333;stroke-width:0.3893;stroke-miterlimit:10;}
	.st229{fill:none;stroke:#333333;stroke-width:0.2723;stroke-linecap:round;stroke-miterlimit:10;}
	.st230{clip-path:url(#SVGID_122_);}
	.st231{clip-path:url(#SVGID_124_);fill:#72A9D6;}
	.st232{clip-path:url(#SVGID_124_);fill:#CCECF7;}
	.st233{clip-path:url(#SVGID_124_);fill:#ABD1E8;}
	.st234{clip-path:url(#SVGID_124_);fill:#4C6DB5;}
	.st235{clip-path:url(#SVGID_126_);}
	.st236{clip-path:url(#SVGID_128_);fill:#4C6DB5;}
	.st237{clip-path:url(#SVGID_128_);fill:#CCECF7;}
	.st238{clip-path:url(#SVGID_128_);fill:#ABD1E8;}
	.st239{clip-path:url(#SVGID_128_);fill:#72A9D6;}
	.st240{clip-path:url(#SVGID_130_);}
	.st241{clip-path:url(#SVGID_132_);fill:#4C6DB5;}
	.st242{clip-path:url(#SVGID_132_);fill:#72A9D6;}
	.st243{clip-path:url(#SVGID_132_);fill:#ABD1E8;}
	.st244{clip-path:url(#SVGID_132_);fill:#CCECF7;}
	.st245{clip-path:url(#SVGID_134_);}
	.st246{clip-path:url(#SVGID_136_);fill:#ACC9E3;}
	.st247{clip-path:url(#SVGID_136_);fill:#303E93;}
	.st248{clip-path:url(#SVGID_136_);fill:#DBE8F3;}
	.st249{clip-path:url(#SVGID_136_);fill:#485AA8;}
	.st250{clip-path:url(#SVGID_138_);}
	.st251{clip-path:url(#SVGID_140_);fill:#303E93;}
	.st252{clip-path:url(#SVGID_140_);fill:#DBE8F3;}
	.st253{clip-path:url(#SVGID_140_);fill:#ACC9E3;}
	.st254{clip-path:url(#SVGID_140_);fill:#485AA8;}
	.st255{clip-path:url(#SVGID_142_);}
	.st256{clip-path:url(#SVGID_144_);fill:#ACC9E3;}
	.st257{clip-path:url(#SVGID_144_);fill:#485AA8;}
	.st258{clip-path:url(#SVGID_144_);fill:#DBE8F3;}
	.st259{clip-path:url(#SVGID_144_);fill:#303E93;}
	.st260{clip-path:url(#SVGID_146_);}
	.st261{clip-path:url(#SVGID_148_);fill:#F9AA8B;}
	.st262{clip-path:url(#SVGID_148_);fill:#FDDCD0;}
	.st263{clip-path:url(#SVGID_148_);fill:#F37157;}
	.st264{clip-path:url(#SVGID_150_);}
	.st265{clip-path:url(#SVGID_152_);fill:#F9AA8B;}
	.st266{clip-path:url(#SVGID_152_);fill:#F37157;}
	.st267{clip-path:url(#SVGID_152_);fill:#FDDCD0;}
	.st268{clip-path:url(#SVGID_154_);}
	.st269{clip-path:url(#SVGID_156_);fill:#EF3959;}
	.st270{clip-path:url(#SVGID_156_);fill:#F8AEAD;}
	.st271{clip-path:url(#SVGID_156_);fill:#F26E69;}
	.st272{clip-path:url(#SVGID_158_);}
	.st273{clip-path:url(#SVGID_160_);fill:#F26E69;}
	.st274{clip-path:url(#SVGID_160_);fill:#F8AEAD;}
	.st275{clip-path:url(#SVGID_160_);fill:#EF3959;}
	.st276{clip-path:url(#SVGID_162_);}
	.st277{clip-path:url(#SVGID_164_);fill:#F26E69;}
	.st278{clip-path:url(#SVGID_164_);fill:#EF3959;}
	.st279{clip-path:url(#SVGID_164_);fill:#F8AEAD;}
	.st280{clip-path:url(#SVGID_166_);}
	.st281{clip-path:url(#SVGID_168_);fill:#FDDCD7;}
	.st282{clip-path:url(#SVGID_168_);fill:#F8A59B;}
	.st283{clip-path:url(#SVGID_168_);fill:#EF4643;}
	.st284{clip-path:url(#SVGID_170_);}
	.st285{clip-path:url(#SVGID_172_);fill:#FDDCD7;}
	.st286{clip-path:url(#SVGID_172_);fill:#F8A59B;}
	.st287{clip-path:url(#SVGID_172_);fill:#EF4643;}
	.st288{clip-path:url(#SVGID_174_);}
	.st289{clip-path:url(#SVGID_176_);fill:#F8A59B;}
	.st290{clip-path:url(#SVGID_176_);fill:#EF4643;}
	.st291{clip-path:url(#SVGID_176_);fill:#FDDCD7;}
	.st292{clip-path:url(#SVGID_178_);}
	.st293{clip-path:url(#SVGID_180_);fill:#F9AA8B;}
	.st294{clip-path:url(#SVGID_180_);fill:#FDDCD0;}
	.st295{clip-path:url(#SVGID_180_);fill:#F37157;}
	.st296{clip-path:url(#SVGID_182_);}
	.st297{clip-path:url(#SVGID_184_);fill:#F9AA8B;}
	.st298{clip-path:url(#SVGID_184_);fill:#F37157;}
	.st299{clip-path:url(#SVGID_184_);fill:#FDDCD0;}
	.st300{clip-path:url(#SVGID_186_);}
	.st301{clip-path:url(#SVGID_188_);fill:#BACEE3;}
	.st302{clip-path:url(#SVGID_188_);fill:#44489B;}
	.st303{clip-path:url(#SVGID_188_);fill:#D3E6F7;}
	.st304{clip-path:url(#SVGID_188_);fill:#5D68B0;}
	.st305{clip-path:url(#SVGID_190_);}
	.st306{clip-path:url(#SVGID_192_);fill:#82BADA;}
	.st307{clip-path:url(#SVGID_192_);fill:#BFE7F7;}
	.st308{clip-path:url(#SVGID_192_);fill:#B5D6EA;}
	.st309{clip-path:url(#SVGID_192_);fill:#5380C1;}
	.st310{clip-path:url(#SVGID_194_);}
	.st311{clip-path:url(#SVGID_196_);fill:#5380C1;}
	.st312{clip-path:url(#SVGID_196_);fill:#BFE7F7;}
	.st313{clip-path:url(#SVGID_196_);fill:#B5D6EA;}
	.st314{clip-path:url(#SVGID_196_);fill:#82BADA;}
	.st315{clip-path:url(#SVGID_198_);}
	.st316{clip-path:url(#SVGID_200_);fill:#5380C1;}
	.st317{clip-path:url(#SVGID_200_);fill:#82BADA;}
	.st318{clip-path:url(#SVGID_200_);fill:#B5D6EA;}
	.st319{clip-path:url(#SVGID_200_);fill:#BFE7F7;}
	.st320{clip-path:url(#SVGID_202_);}
	.st321{clip-path:url(#SVGID_204_);fill:#44489B;}
	.st322{clip-path:url(#SVGID_204_);fill:#D3E6F7;}
	.st323{clip-path:url(#SVGID_204_);fill:#BACEE3;}
	.st324{clip-path:url(#SVGID_204_);fill:#5D68B0;}
	.st325{clip-path:url(#SVGID_206_);}
	.st326{clip-path:url(#SVGID_208_);fill:#BACEE3;}
	.st327{clip-path:url(#SVGID_208_);fill:#5D68B0;}
	.st328{clip-path:url(#SVGID_208_);fill:#D3E6F7;}
	.st329{clip-path:url(#SVGID_208_);fill:#44489B;}
	.st330{clip-path:url(#SVGID_210_);}
	.st331{clip-path:url(#SVGID_212_);fill:#B3B4B4;}
	.st332{clip-path:url(#SVGID_212_);fill:#E6E6E6;}
	.st333{clip-path:url(#SVGID_212_);fill:#CCCCCB;}
	.st334{clip-path:url(#SVGID_212_);fill:#808080;}
	.st335{clip-path:url(#SVGID_214_);}
	.st336{clip-path:url(#SVGID_216_);fill:#E6E6E6;}
	.st337{clip-path:url(#SVGID_216_);fill:#B3B4B4;}
	.st338{clip-path:url(#SVGID_216_);fill:#808080;}
	.st339{clip-path:url(#SVGID_216_);fill:#CCCCCB;}
	.st340{clip-path:url(#SVGID_218_);}
	.st341{clip-path:url(#SVGID_220_);fill:#808080;}
	.st342{clip-path:url(#SVGID_220_);fill:#B3B4B4;}
	.st343{clip-path:url(#SVGID_220_);fill:#CCCCCB;}
	.st344{clip-path:url(#SVGID_220_);fill:#E6E6E6;}
	.st345{clip-path:url(#SVGID_222_);}
	.st346{clip-path:url(#SVGID_224_);fill:#9D9FA1;}
	.st347{clip-path:url(#SVGID_224_);fill:#C6C6C5;}
	.st348{clip-path:url(#SVGID_224_);fill:#2B353E;}
	.st349{clip-path:url(#SVGID_224_);fill:#636C6F;}
	.st350{clip-path:url(#SVGID_226_);}
	.st351{clip-path:url(#SVGID_228_);fill:#636C6F;}
	.st352{clip-path:url(#SVGID_228_);fill:#2B353E;}
	.st353{clip-path:url(#SVGID_228_);fill:#C6C6C5;}
	.st354{clip-path:url(#SVGID_228_);fill:#9D9FA1;}
	.st355{clip-path:url(#SVGID_230_);}
	.st356{clip-path:url(#SVGID_232_);fill:#2B353E;}
	.st357{clip-path:url(#SVGID_232_);fill:#9D9FA1;}
	.st358{clip-path:url(#SVGID_232_);fill:#636C6F;}
	.st359{clip-path:url(#SVGID_232_);fill:#C6C6C5;}
	.st360{opacity:0.502;fill:none;stroke:#8DCFE9;stroke-width:8.2353;stroke-miterlimit:10;}
	.st361{fill:none;stroke:#8DCFE9;stroke-width:8.2353;stroke-miterlimit:10;}
	.st362{opacity:0.502;fill:none;stroke:#141927;stroke-width:8.2353;stroke-miterlimit:10;}
	.st363{fill:none;stroke:#141927;stroke-width:8.2353;stroke-miterlimit:10;}
	.st364{opacity:0.502;fill:none;stroke:#E62C4D;stroke-width:8.2353;stroke-miterlimit:10;}
	.st365{fill:none;stroke:#E62C4D;stroke-width:8.2353;stroke-miterlimit:10;}
	.st366{opacity:0.502;fill:none;stroke:#E62C4D;stroke-width:8.2353;stroke-linejoin:round;stroke-miterlimit:10;}
	.st367{opacity:0.4;fill:none;stroke:#8151A1;stroke-width:0.3294;stroke-linejoin:round;stroke-miterlimit:10;}
	.st368{opacity:0.4;fill:none;stroke:#FAA51A;stroke-width:0.3294;stroke-linejoin:round;stroke-miterlimit:10;}
	.st369{fill:none;stroke:#FAA51A;stroke-width:0.3035;stroke-linecap:round;stroke-linejoin:round;stroke-miterlimit:10;}
	.st370{fill:none;stroke:#8151A1;stroke-width:0.3035;stroke-linecap:round;stroke-linejoin:round;stroke-miterlimit:10;}
	.st371{clip-path:url(#SVGID_234_);fill:none;stroke:#EBEBEB;stroke-width:0.1471;stroke-linejoin:round;stroke-miterlimit:10;}
	.st372{clip-path:url(#SVGID_236_);fill:none;stroke:#EBEBEB;stroke-width:0.1471;stroke-linejoin:round;stroke-miterlimit:10;}
	.st373{fill:none;stroke:#8DCFE9;stroke-width:0.0977;stroke-linecap:round;stroke-linejoin:round;stroke-miterlimit:10;}
	.st374{fill:none;stroke:#333333;stroke-width:0.1471;stroke-linejoin:round;stroke-miterlimit:10;}
	
		.st375{clip-path:url(#SVGID_238_);fill:none;stroke:#AAAAAA;stroke-width:0.1471;stroke-linejoin:round;stroke-miterlimit:10;stroke-dasharray:0.5886,0.5886;}
	
		.st376{clip-path:url(#SVGID_240_);fill:none;stroke:#AAAAAA;stroke-width:0.1471;stroke-linejoin:round;stroke-miterlimit:10;stroke-dasharray:0.5886,0.5886;}
	.st377{fill:none;stroke:#010101;stroke-width:0.1109;stroke-linecap:round;stroke-linejoin:round;stroke-miterlimit:10;}
	.st378{stroke:#000000;stroke-width:0.5225;stroke-miterlimit:10;}
	.st379{stroke:#000000;stroke-width:0.6543;stroke-miterlimit:10;}
	.st380{stroke:#000000;stroke-width:0.9048;stroke-linecap:round;stroke-miterlimit:10;}
	.st381{stroke:#000000;stroke-width:1.8095;stroke-linecap:round;stroke-miterlimit:10;}
	.st382{clip-path:url(#SVGID_242_);}
	.st383{clip-path:url(#SVGID_244_);fill:#72A9D6;}
	.st384{clip-path:url(#SVGID_244_);fill:#CCECF7;}
	.st385{clip-path:url(#SVGID_244_);fill:#ABD1E8;}
	.st386{clip-path:url(#SVGID_244_);fill:#4C6DB5;}
	.st387{clip-path:url(#SVGID_246_);}
	.st388{clip-path:url(#SVGID_248_);fill:#4C6DB5;}
	.st389{clip-path:url(#SVGID_248_);fill:#CCECF7;}
	.st390{clip-path:url(#SVGID_248_);fill:#ABD1E8;}
	.st391{clip-path:url(#SVGID_248_);fill:#72A9D6;}
	.st392{clip-path:url(#SVGID_250_);}
	.st393{clip-path:url(#SVGID_252_);fill:#4C6DB5;}
	.st394{clip-path:url(#SVGID_252_);fill:#72A9D6;}
	.st395{clip-path:url(#SVGID_252_);fill:#ABD1E8;}
	.st396{clip-path:url(#SVGID_252_);fill:#CCECF7;}
	.st397{clip-path:url(#SVGID_254_);}
	.st398{clip-path:url(#SVGID_256_);fill:#ACC9E3;}
	.st399{clip-path:url(#SVGID_256_);fill:#303E93;}
	.st400{clip-path:url(#SVGID_256_);fill:#DBE8F3;}
	.st401{clip-path:url(#SVGID_256_);fill:#485AA8;}
	.st402{clip-path:url(#SVGID_258_);}
	.st403{clip-path:url(#SVGID_260_);fill:#303E93;}
	.st404{clip-path:url(#SVGID_260_);fill:#DBE8F3;}
	.st405{clip-path:url(#SVGID_260_);fill:#ACC9E3;}
	.st406{clip-path:url(#SVGID_260_);fill:#485AA8;}
	.st407{clip-path:url(#SVGID_262_);}
	.st408{clip-path:url(#SVGID_264_);fill:#ACC9E3;}
	.st409{clip-path:url(#SVGID_264_);fill:#485AA8;}
	.st410{clip-path:url(#SVGID_264_);fill:#DBE8F3;}
	.st411{clip-path:url(#SVGID_264_);fill:#303E93;}
	.st412{clip-path:url(#SVGID_266_);}
	.st413{clip-path:url(#SVGID_268_);fill:#F9AA8B;}
	.st414{clip-path:url(#SVGID_268_);fill:#FDDCD0;}
	.st415{clip-path:url(#SVGID_268_);fill:#F37157;}
	.st416{clip-path:url(#SVGID_270_);}
	.st417{clip-path:url(#SVGID_272_);fill:#F9AA8B;}
	.st418{clip-path:url(#SVGID_272_);fill:#F37157;}
	.st419{clip-path:url(#SVGID_272_);fill:#FDDCD0;}
	.st420{fill:none;stroke:#9AB7B0;stroke-width:1.1936;stroke-miterlimit:10;}
	.st421{fill:none;stroke:#9AB7B0;stroke-width:1.1936;stroke-miterlimit:10;stroke-dasharray:3.5232,3.5232;}
	.st422{fill:#9AB7B0;}
	.st423{fill:none;stroke:#9AB7B0;stroke-width:0.916;stroke-miterlimit:10;}
	.st424{fill:none;stroke:#9AB7B0;stroke-width:0.916;stroke-miterlimit:10;stroke-dasharray:2.6378,2.6378;}
	.st425{clip-path:url(#SVGID_274_);}
	.st426{clip-path:url(#SVGID_276_);fill:#72A9D6;}
	.st427{clip-path:url(#SVGID_276_);fill:#CCECF7;}
	.st428{clip-path:url(#SVGID_276_);fill:#ABD1E8;}
	.st429{clip-path:url(#SVGID_276_);fill:#4C6DB5;}
	.st430{clip-path:url(#SVGID_278_);}
	.st431{clip-path:url(#SVGID_280_);fill:#4C6DB5;}
	.st432{clip-path:url(#SVGID_280_);fill:#CCECF7;}
	.st433{clip-path:url(#SVGID_280_);fill:#ABD1E8;}
	.st434{clip-path:url(#SVGID_280_);fill:#72A9D6;}
	.st435{clip-path:url(#SVGID_282_);}
	.st436{clip-path:url(#SVGID_284_);fill:#4C6DB5;}
	.st437{clip-path:url(#SVGID_284_);fill:#72A9D6;}
	.st438{clip-path:url(#SVGID_284_);fill:#ABD1E8;}
	.st439{clip-path:url(#SVGID_284_);fill:#CCECF7;}
	.st440{clip-path:url(#SVGID_286_);}
	.st441{clip-path:url(#SVGID_288_);fill:#ACC9E3;}
	.st442{clip-path:url(#SVGID_288_);fill:#303E93;}
	.st443{clip-path:url(#SVGID_288_);fill:#DBE8F3;}
	.st444{clip-path:url(#SVGID_288_);fill:#485AA8;}
	.st445{clip-path:url(#SVGID_290_);}
	.st446{clip-path:url(#SVGID_292_);fill:#303E93;}
	.st447{clip-path:url(#SVGID_292_);fill:#DBE8F3;}
	.st448{clip-path:url(#SVGID_292_);fill:#ACC9E3;}
	.st449{clip-path:url(#SVGID_292_);fill:#485AA8;}
	.st450{clip-path:url(#SVGID_294_);}
	.st451{clip-path:url(#SVGID_296_);fill:#ACC9E3;}
	.st452{clip-path:url(#SVGID_296_);fill:#485AA8;}
	.st453{clip-path:url(#SVGID_296_);fill:#DBE8F3;}
	.st454{clip-path:url(#SVGID_296_);fill:#303E93;}
	.st455{fill:none;stroke:#9AB7B0;stroke-miterlimit:10;}
	.st456{fill:none;stroke:#9AB7B0;stroke-miterlimit:10;stroke-dasharray:1.7049,1.7049;}
	.st457{fill:none;stroke:#9AB7B0;stroke-miterlimit:10;stroke-dasharray:5.2279,5.2279;}
	.st458{clip-path:url(#SVGID_298_);}
	.st459{clip-path:url(#SVGID_300_);fill:#EF3959;}
	.st460{clip-path:url(#SVGID_300_);fill:#F8AEAD;}
	.st461{clip-path:url(#SVGID_300_);fill:#F26E69;}
	.st462{clip-path:url(#SVGID_302_);}
	.st463{clip-path:url(#SVGID_304_);fill:#F26E69;}
	.st464{clip-path:url(#SVGID_304_);fill:#F8AEAD;}
	.st465{clip-path:url(#SVGID_304_);fill:#EF3959;}
	.st466{clip-path:url(#SVGID_306_);}
	.st467{clip-path:url(#SVGID_308_);fill:#F26E69;}
	.st468{clip-path:url(#SVGID_308_);fill:#EF3959;}
	.st469{clip-path:url(#SVGID_308_);fill:#F8AEAD;}
	.st470{clip-path:url(#SVGID_310_);}
	.st471{clip-path:url(#SVGID_312_);fill:#FDDCD7;}
	.st472{clip-path:url(#SVGID_312_);fill:#F8A59B;}
	.st473{clip-path:url(#SVGID_312_);fill:#EF4643;}
	.st474{clip-path:url(#SVGID_314_);}
	.st475{clip-path:url(#SVGID_316_);fill:#FDDCD7;}
	.st476{clip-path:url(#SVGID_316_);fill:#F8A59B;}
	.st477{clip-path:url(#SVGID_316_);fill:#EF4643;}
	.st478{clip-path:url(#SVGID_318_);}
	.st479{clip-path:url(#SVGID_320_);fill:#F8A59B;}
	.st480{clip-path:url(#SVGID_320_);fill:#EF4643;}
	.st481{clip-path:url(#SVGID_320_);fill:#FDDCD7;}
	.st482{clip-path:url(#SVGID_322_);}
	.st483{clip-path:url(#SVGID_324_);fill:#B3B4B4;}
	.st484{clip-path:url(#SVGID_324_);fill:#E6E6E6;}
	.st485{clip-path:url(#SVGID_324_);fill:#CCCCCB;}
	.st486{clip-path:url(#SVGID_324_);fill:#808080;}
	.st487{clip-path:url(#SVGID_326_);}
	.st488{clip-path:url(#SVGID_328_);fill:#E6E6E6;}
	.st489{clip-path:url(#SVGID_328_);fill:#B3B4B4;}
	.st490{clip-path:url(#SVGID_328_);fill:#808080;}
	.st491{clip-path:url(#SVGID_328_);fill:#CCCCCB;}
	.st492{clip-path:url(#SVGID_330_);}
	.st493{clip-path:url(#SVGID_332_);fill:#808080;}
	.st494{clip-path:url(#SVGID_332_);fill:#B3B4B4;}
	.st495{clip-path:url(#SVGID_332_);fill:#CCCCCB;}
	.st496{clip-path:url(#SVGID_332_);fill:#E6E6E6;}
	.st497{clip-path:url(#SVGID_334_);}
	.st498{clip-path:url(#SVGID_336_);fill:#9D9FA1;}
	.st499{clip-path:url(#SVGID_336_);fill:#C6C6C5;}
	.st500{clip-path:url(#SVGID_336_);fill:#2B353E;}
	.st501{clip-path:url(#SVGID_336_);fill:#636C6F;}
	.st502{clip-path:url(#SVGID_338_);}
	.st503{clip-path:url(#SVGID_340_);fill:#636C6F;}
	.st504{clip-path:url(#SVGID_340_);fill:#2B353E;}
	.st505{clip-path:url(#SVGID_340_);fill:#C6C6C5;}
	.st506{clip-path:url(#SVGID_340_);fill:#9D9FA1;}
	.st507{clip-path:url(#SVGID_342_);}
	.st508{clip-path:url(#SVGID_344_);fill:#2B353E;}
	.st509{clip-path:url(#SVGID_344_);fill:#9D9FA1;}
	.st510{clip-path:url(#SVGID_344_);fill:#636C6F;}
	.st511{clip-path:url(#SVGID_344_);fill:#C6C6C5;}
	.st512{clip-path:url(#SVGID_346_);}
	.st513{clip-path:url(#SVGID_348_);fill:#F9AA8B;}
	.st514{clip-path:url(#SVGID_348_);fill:#FDDCD0;}
	.st515{clip-path:url(#SVGID_348_);fill:#F37157;}
	.st516{clip-path:url(#SVGID_350_);}
	.st517{clip-path:url(#SVGID_352_);fill:#F9AA8B;}
	.st518{clip-path:url(#SVGID_352_);fill:#F37157;}
	.st519{clip-path:url(#SVGID_352_);fill:#FDDCD0;}
	.st520{clip-path:url(#SVGID_354_);}
	.st521{clip-path:url(#SVGID_356_);fill:#BACEE3;}
	.st522{clip-path:url(#SVGID_356_);fill:#44489B;}
	.st523{clip-path:url(#SVGID_356_);fill:#D3E6F7;}
	.st524{clip-path:url(#SVGID_356_);fill:#5D68B0;}
	.st525{clip-path:url(#SVGID_358_);}
	.st526{clip-path:url(#SVGID_360_);fill:#82BADA;}
	.st527{clip-path:url(#SVGID_360_);fill:#BFE7F7;}
	.st528{clip-path:url(#SVGID_360_);fill:#B5D6EA;}
	.st529{clip-path:url(#SVGID_360_);fill:#5380C1;}
	.st530{clip-path:url(#SVGID_362_);}
	.st531{clip-path:url(#SVGID_364_);fill:#5380C1;}
	.st532{clip-path:url(#SVGID_364_);fill:#BFE7F7;}
	.st533{clip-path:url(#SVGID_364_);fill:#B5D6EA;}
	.st534{clip-path:url(#SVGID_364_);fill:#82BADA;}
	.st535{clip-path:url(#SVGID_366_);}
	.st536{clip-path:url(#SVGID_368_);fill:#5380C1;}
	.st537{clip-path:url(#SVGID_368_);fill:#82BADA;}
	.st538{clip-path:url(#SVGID_368_);fill:#B5D6EA;}
	.st539{clip-path:url(#SVGID_368_);fill:#BFE7F7;}
	.st540{clip-path:url(#SVGID_370_);}
	.st541{clip-path:url(#SVGID_372_);fill:#44489B;}
	.st542{clip-path:url(#SVGID_372_);fill:#D3E6F7;}
	.st543{clip-path:url(#SVGID_372_);fill:#BACEE3;}
	.st544{clip-path:url(#SVGID_372_);fill:#5D68B0;}
	.st545{clip-path:url(#SVGID_374_);}
	.st546{clip-path:url(#SVGID_376_);fill:#BACEE3;}
	.st547{clip-path:url(#SVGID_376_);fill:#5D68B0;}
	.st548{clip-path:url(#SVGID_376_);fill:#D3E6F7;}
	.st549{clip-path:url(#SVGID_376_);fill:#44489B;}
	.st550{fill:none;stroke:#9AB7B0;stroke-miterlimit:10;stroke-dasharray:4.7296,4.7296;}
	.st551{fill:none;stroke:#333333;stroke-width:1.3203;stroke-miterlimit:10;}
	.st552{fill:none;stroke:#333333;stroke-width:0.9237;stroke-linecap:round;stroke-miterlimit:10;}
	.st553{fill:none;stroke:#9AB7B0;stroke-width:1.1731;stroke-miterlimit:10;}
	.st554{fill:none;stroke:#9AB7B0;stroke-width:1.1731;stroke-miterlimit:10;stroke-dasharray:3.335,3.335;}
	.st555{fill:none;stroke:#9AB7B0;stroke-width:1.1041;stroke-miterlimit:10;}
	.st556{fill:none;stroke:#9AB7B0;stroke-width:1.1041;stroke-miterlimit:10;stroke-dasharray:3.3352,3.3352;}
</style>
<g id="Background">
</g>
<g id="Images">
</g>
<g id="Text">
	<g id="HEADINGS">
	</g>
	<g id="TEXTS">
	</g>
	<g id="TITLES">
	</g>
</g>
<g id="A4">
	<g>
		<path class="st2" d="M284.12,28.33v0.78c0,1.98,0.32,2.94,1.56,2.94c1.11,0,1.46-0.73,1.56-2.33h3.97
			c-0.08,3.15-2.01,4.69-5.56,4.69c-5.4,0-5.82-3.37-5.82-7.16c0-3.58,1.17-6.24,5.82-6.24c5.32,0,5.69,2.99,5.69,7.32H284.12z
			 M287.22,26.12c0-1.79-0.26-2.75-1.46-2.75c-1.4,0-1.64,1.04-1.64,2.75H287.22z"/>
		<path class="st2" d="M300.27,32.52h-0.05c-0.32,0.87-1.19,1.88-3.1,1.88c-2.89,0-4.42-1.84-4.42-6.59c0-3.96,0.64-6.8,4.16-6.8
			c1.19,0,2.49,0.35,3.2,1.72h0.05v-5.46h4.29v16.81h-4.13V32.52z M298.63,23.78c-1.56,0-1.64,1.53-1.64,3.84c0,2.05,0.05,4,1.67,4
			c1.27,0,1.54-1.37,1.54-3.84C300.19,25.53,300.08,23.78,298.63,23.78z"/>
		<path class="st2" d="M314.17,21.34h3.97v12.29c0,2.87-1.43,4.78-5.96,4.78c-4.16,0-5.37-1.62-5.37-3.53h3.97
			c0.08,0.35,0.21,0.61,0.45,0.78c0.26,0.17,0.61,0.26,1.06,0.26c1.43,0,1.72-0.82,1.72-3.25v-0.78h-0.05
			c-0.58,1.46-1.93,1.88-3.39,1.88c-3.1,0-4.02-2.73-4.02-6.24c0-3.01,0.45-6.52,4.18-6.52c1.93,0,2.89,0.89,3.39,2.05h0.05V21.34z
			 M312.39,30.99c1.17,0,1.62-0.75,1.62-3.63c0-2.33-0.32-3.44-1.56-3.44c-1.4,0-1.62,1.46-1.62,3.55
			C310.83,30.14,311.23,30.99,312.39,30.99z"/>
		<path class="st2" d="M324.33,28.33v0.78c0,1.98,0.32,2.94,1.56,2.94c1.11,0,1.46-0.73,1.56-2.33h3.97
			c-0.08,3.15-2.01,4.69-5.56,4.69c-5.4,0-5.82-3.37-5.82-7.16c0-3.58,1.17-6.24,5.82-6.24c5.32,0,5.69,2.99,5.69,7.32H324.33z
			 M327.43,26.12c0-1.79-0.26-2.75-1.46-2.75c-1.4,0-1.64,1.04-1.64,2.75H327.43z"/>
		<path class="st2" d="M333.44,17.26h7.47c3.79,0,5.08,2.07,5.08,4.38c0,2.45-1.11,3.65-3.18,4.1v0.05
			c2.83,0.35,2.99,1.93,3.04,4.19c0.08,3.32,0.21,3.65,0.85,3.88v0.21h-4.79c-0.34-0.57-0.48-1.51-0.48-3.41
			c0-2.92-0.45-3.53-1.85-3.53h-1.69v6.95h-4.45V17.26z M337.89,24.35h1.38c1.8,0,2.28-1.2,2.28-2.19c0-1.27-0.53-2.12-2.3-2.12
			h-1.35V24.35z"/>
	</g>
	<path class="st34" d="M556.51,381.55H60.61c-20.12,0-36.42-16.31-36.42-36.42V85.63c0-20.12,16.31-36.42,36.42-36.42h495.9
		c20.12,0,36.42,16.31,36.42,36.42v259.5C592.94,365.25,576.63,381.55,556.51,381.55z"/>
	<g>
		<rect x="75.91" y="132.55" class="st6" width="19.82" height="12.68"/>
		<rect x="293.88" y="132.55" class="st6" width="19.82" height="12.68"/>
		<rect x="274.06" y="132.55" class="st6" width="19.82" height="12.68"/>
		<rect x="254.24" y="132.55" class="st7" width="19.82" height="12.68"/>
		<rect x="214.61" y="132.55" class="st6" width="19.82" height="12.68"/>
		<rect x="194.8" y="132.55" class="st7" width="19.82" height="12.68"/>
		<rect x="174.97" y="132.55" class="st8" width="19.82" height="12.68"/>
		<rect x="135.38" y="132.55" class="st9" width="19.82" height="12.68"/>
		<rect x="115.55" y="132.55" class="st9" width="19.82" height="12.68"/>
		<rect x="95.74" y="132.55" class="st9" width="19.82" height="12.68"/>
		<rect x="75.91" y="145.23" class="st8" width="19.82" height="12.67"/>
		<rect x="293.88" y="145.23" class="st9" width="19.82" height="12.67"/>
		<rect x="274.06" y="145.23" class="st6" width="19.82" height="12.67"/>
		<rect x="254.24" y="145.23" class="st9" width="19.82" height="12.67"/>
		<rect x="214.61" y="145.23" class="st7" width="19.82" height="12.67"/>
		<rect x="194.8" y="145.23" class="st9" width="19.82" height="12.67"/>
		<rect x="174.97" y="145.23" class="st9" width="19.82" height="12.67"/>
		<rect x="135.38" y="145.23" class="st9" width="19.82" height="12.67"/>
		<rect x="115.55" y="145.23" class="st7" width="19.82" height="12.67"/>
		<rect x="95.74" y="145.23" class="st8" width="19.82" height="12.67"/>
		<rect x="75.91" y="157.9" class="st9" width="19.82" height="12.68"/>
		<rect x="293.88" y="157.9" class="st10" width="19.82" height="12.68"/>
		<rect x="274.06" y="157.9" class="st7" width="19.82" height="12.68"/>
		<rect x="254.24" y="157.9" class="st7" width="19.82" height="12.68"/>
		<rect x="214.61" y="157.9" class="st10" width="19.82" height="12.68"/>
		<rect x="194.8" y="157.9" class="st7" width="19.82" height="12.68"/>
		<rect x="174.97" y="157.9" class="st7" width="19.82" height="12.68"/>
		<rect x="135.38" y="157.9" class="st10" width="19.82" height="12.68"/>
		<rect x="115.55" y="157.9" class="st10" width="19.82" height="12.68"/>
		<rect x="95.74" y="157.9" class="st7" width="19.82" height="12.68"/>
		<rect x="75.91" y="170.58" class="st9" width="19.82" height="12.67"/>
		<rect x="293.88" y="170.58" class="st8" width="19.82" height="12.67"/>
		<rect x="274.06" y="170.58" class="st9" width="19.82" height="12.67"/>
		<rect x="254.24" y="170.58" class="st7" width="19.82" height="12.67"/>
		<rect x="214.61" y="170.58" class="st9" width="19.82" height="12.67"/>
		<rect x="194.8" y="170.58" class="st9" width="19.82" height="12.67"/>
		<rect x="174.97" y="170.58" class="st8" width="19.82" height="12.67"/>
		<rect x="135.38" y="170.58" class="st9" width="19.82" height="12.67"/>
		<rect x="115.55" y="170.58" class="st9" width="19.82" height="12.67"/>
		<rect x="95.74" y="170.58" class="st6" width="19.82" height="12.67"/>
		<rect x="75.91" y="183.24" class="st10" width="19.82" height="12.67"/>
		<rect x="293.88" y="183.24" class="st6" width="19.82" height="12.67"/>
		<rect x="274.06" y="183.24" class="st6" width="19.82" height="12.67"/>
		<rect x="254.24" y="183.24" class="st6" width="19.82" height="12.67"/>
		<rect x="214.61" y="183.24" class="st8" width="19.82" height="12.67"/>
		<rect x="194.8" y="183.24" class="st6" width="19.82" height="12.67"/>
		<rect x="174.97" y="183.24" class="st9" width="19.82" height="12.67"/>
		<rect x="135.38" y="183.24" class="st6" width="19.82" height="12.67"/>
		<rect x="115.55" y="183.24" class="st8" width="19.82" height="12.67"/>
		<rect x="95.74" y="183.24" class="st9" width="19.82" height="12.67"/>
		<rect x="75.91" y="195.91" class="st9" width="19.82" height="12.68"/>
		<rect x="293.88" y="195.91" class="st9" width="19.82" height="12.68"/>
		<rect x="274.06" y="195.91" class="st9" width="19.82" height="12.68"/>
		<rect x="254.24" y="195.91" class="st9" width="19.82" height="12.68"/>
		<rect x="214.61" y="195.91" class="st6" width="19.82" height="12.68"/>
		<rect x="194.8" y="195.91" class="st10" width="19.82" height="12.68"/>
		<rect x="174.97" y="195.91" class="st8" width="19.82" height="12.68"/>
		<rect x="135.38" y="195.91" class="st8" width="19.82" height="12.68"/>
		<rect x="115.55" y="195.91" class="st9" width="19.82" height="12.68"/>
		<rect x="95.74" y="195.91" class="st6" width="19.82" height="12.68"/>
		<rect x="75.91" y="208.59" class="st7" width="19.82" height="12.67"/>
		<rect x="293.88" y="208.59" class="st8" width="19.82" height="12.67"/>
		<rect x="274.06" y="208.59" class="st9" width="19.82" height="12.67"/>
		<rect x="254.24" y="208.59" class="st7" width="19.82" height="12.67"/>
		<rect x="214.61" y="208.59" class="st10" width="19.82" height="12.67"/>
		<rect x="194.8" y="208.59" class="st7" width="19.82" height="12.67"/>
		<rect x="174.97" y="208.59" class="st7" width="19.82" height="12.67"/>
		<rect x="135.38" y="208.59" class="st10" width="19.82" height="12.67"/>
		<rect x="115.55" y="208.59" class="st10" width="19.82" height="12.67"/>
		<rect x="95.74" y="208.59" class="st7" width="19.82" height="12.67"/>
		<rect x="75.91" y="221.26" class="st10" width="19.82" height="12.67"/>
		<rect x="293.88" y="221.26" class="st9" width="19.82" height="12.67"/>
		<rect x="274.06" y="221.26" class="st7" width="19.82" height="12.67"/>
		<rect x="254.24" y="221.26" class="st9" width="19.82" height="12.67"/>
		<rect x="214.61" y="221.26" class="st9" width="19.82" height="12.67"/>
		<rect x="194.8" y="221.26" class="st10" width="19.82" height="12.67"/>
		<rect x="174.97" y="221.26" class="st7" width="19.82" height="12.67"/>
		<rect x="135.38" y="221.26" class="st8" width="19.82" height="12.67"/>
		<rect x="115.55" y="221.26" class="st9" width="19.82" height="12.67"/>
		<rect x="95.74" y="221.26" class="st10" width="19.82" height="12.67"/>
		<rect x="75.91" y="233.92" class="st9" width="19.82" height="12.68"/>
		<rect x="293.88" y="233.92" class="st10" width="19.82" height="12.68"/>
		<rect x="274.06" y="233.92" class="st9" width="19.82" height="12.68"/>
		<rect x="254.24" y="233.92" class="st9" width="19.82" height="12.68"/>
		<rect x="214.61" y="233.92" class="st10" width="19.82" height="12.68"/>
		<rect x="194.8" y="233.92" class="st7" width="19.82" height="12.68"/>
		<rect x="174.97" y="233.92" class="st8" width="19.82" height="12.68"/>
		<rect x="135.38" y="233.92" class="st10" width="19.82" height="12.68"/>
		<rect x="115.55" y="233.92" class="st7" width="19.82" height="12.68"/>
		<rect x="95.74" y="233.92" class="st7" width="19.82" height="12.68"/>
		<rect x="75.91" y="246.6" class="st7" width="19.82" height="12.67"/>
		<rect x="293.88" y="246.6" class="st7" width="19.82" height="12.67"/>
		<rect x="274.06" y="246.6" class="st7" width="19.82" height="12.67"/>
		<rect x="254.24" y="246.6" class="st10" width="19.82" height="12.67"/>
		<rect x="214.61" y="246.6" class="st10" width="19.82" height="12.67"/>
		<rect x="194.8" y="246.6" class="st7" width="19.82" height="12.67"/>
		<rect x="174.97" y="246.6" class="st10" width="19.82" height="12.67"/>
		<rect x="135.38" y="246.6" class="st7" width="19.82" height="12.67"/>
		<rect x="115.55" y="246.6" class="st6" width="19.82" height="12.67"/>
		<rect x="95.74" y="246.6" class="st10" width="19.82" height="12.67"/>
		<rect x="75.91" y="259.27" class="st7" width="19.82" height="12.67"/>
		<rect x="293.88" y="259.27" class="st9" width="19.82" height="12.67"/>
		<rect x="274.06" y="259.27" class="st9" width="19.82" height="12.67"/>
		<rect x="254.24" y="259.27" class="st7" width="19.82" height="12.67"/>
		<rect x="214.61" y="259.27" class="st9" width="19.82" height="12.67"/>
		<rect x="194.8" y="259.27" class="st9" width="19.82" height="12.67"/>
		<rect x="174.97" y="259.27" class="st9" width="19.82" height="12.67"/>
		<rect x="135.38" y="259.27" class="st9" width="19.82" height="12.67"/>
		<rect x="115.55" y="259.27" class="st9" width="19.82" height="12.67"/>
		<rect x="95.74" y="259.27" class="st9" width="19.82" height="12.67"/>
		<rect x="75.91" y="271.94" class="st9" width="19.82" height="12.68"/>
		<rect x="293.88" y="271.94" class="st8" width="19.82" height="12.68"/>
		<rect x="274.06" y="271.94" class="st6" width="19.82" height="12.68"/>
		<rect x="254.24" y="271.94" class="st8" width="19.82" height="12.68"/>
		<rect x="214.61" y="271.94" class="st6" width="19.82" height="12.68"/>
		<rect x="194.8" y="271.94" class="st10" width="19.82" height="12.68"/>
		<rect x="174.97" y="271.94" class="st9" width="19.82" height="12.68"/>
		<rect x="135.38" y="271.94" class="st10" width="19.82" height="12.68"/>
		<rect x="115.55" y="271.94" class="st10" width="19.82" height="12.68"/>
		<rect x="95.74" y="271.94" class="st6" width="19.82" height="12.68"/>
		<rect x="75.91" y="284.62" class="st9" width="19.82" height="12.67"/>
		<rect x="293.88" y="284.62" class="st6" width="19.82" height="12.67"/>
		<rect x="274.06" y="284.62" class="st6" width="19.82" height="12.67"/>
		<rect x="254.24" y="284.62" class="st8" width="19.82" height="12.67"/>
		<rect x="214.61" y="284.62" class="st9" width="19.82" height="12.67"/>
		<rect x="194.8" y="284.62" class="st9" width="19.82" height="12.67"/>
		<rect x="174.97" y="284.62" class="st9" width="19.82" height="12.67"/>
		<rect x="135.38" y="284.62" class="st9" width="19.82" height="12.67"/>
		<rect x="115.55" y="284.62" class="st6" width="19.82" height="12.67"/>
		<rect x="95.74" y="284.62" class="st8" width="19.82" height="12.67"/>
		<rect x="75.91" y="297.28" class="st7" width="19.82" height="12.67"/>
		<rect x="293.88" y="297.28" class="st7" width="19.82" height="12.67"/>
		<rect x="274.06" y="297.28" class="st6" width="19.82" height="12.67"/>
		<rect x="254.24" y="297.28" class="st7" width="19.82" height="12.67"/>
		<rect x="214.61" y="297.28" class="st7" width="19.82" height="12.67"/>
		<rect x="194.8" y="297.28" class="st7" width="19.82" height="12.67"/>
		<rect x="174.97" y="297.28" class="st9" width="19.82" height="12.67"/>
		<rect x="135.38" y="297.28" class="st7" width="19.82" height="12.67"/>
		<rect x="115.55" y="297.28" class="st10" width="19.82" height="12.67"/>
		<rect x="95.74" y="297.28" class="st9" width="19.82" height="12.67"/>
		<rect x="75.91" y="309.95" class="st10" width="19.82" height="12.68"/>
		<rect x="293.88" y="309.95" class="st10" width="19.82" height="12.68"/>
		<rect x="274.06" y="309.95" class="st7" width="19.82" height="12.68"/>
		<rect x="254.24" y="309.95" class="st10" width="19.82" height="12.68"/>
		<rect x="214.61" y="309.95" class="st7" width="19.82" height="12.68"/>
		<rect x="194.8" y="309.95" class="st10" width="19.82" height="12.68"/>
		<rect x="174.97" y="309.95" class="st10" width="19.82" height="12.68"/>
		<rect x="135.38" y="309.95" class="st10" width="19.82" height="12.68"/>
		<rect x="115.55" y="309.95" class="st9" width="19.82" height="12.68"/>
		<rect x="95.74" y="309.95" class="st10" width="19.82" height="12.68"/>
		<rect x="75.91" y="322.63" class="st7" width="19.82" height="12.67"/>
		<rect x="293.88" y="322.63" class="st7" width="19.82" height="12.67"/>
		<rect x="274.06" y="322.63" class="st6" width="19.82" height="12.67"/>
		<rect x="254.24" y="322.63" class="st7" width="19.82" height="12.67"/>
		<rect x="214.61" y="322.63" class="st9" width="19.82" height="12.67"/>
		<rect x="194.8" y="322.63" class="st9" width="19.82" height="12.67"/>
		<rect x="174.97" y="322.63" class="st9" width="19.82" height="12.67"/>
		<rect x="135.38" y="322.63" class="st7" width="19.82" height="12.67"/>
		<rect x="115.55" y="322.63" class="st9" width="19.82" height="12.67"/>
		<rect x="95.74" y="322.63" class="st7" width="19.82" height="12.67"/>
		<rect x="293.88" y="335.3" class="st9" width="19.82" height="12.67"/>
		<rect x="274.06" y="335.3" class="st8" width="19.82" height="12.67"/>
		<rect x="254.24" y="335.3" class="st6" width="19.82" height="12.67"/>
		<rect x="214.61" y="335.3" class="st6" width="19.82" height="12.67"/>
		<rect x="194.8" y="335.3" class="st6" width="19.82" height="12.67"/>
		<rect x="174.97" y="335.3" class="st8" width="19.82" height="12.67"/>
		<rect x="135.38" y="335.3" class="st6" width="19.82" height="12.67"/>
		<rect x="115.55" y="335.3" class="st6" width="19.82" height="12.67"/>
		<rect x="95.74" y="335.3" class="st9" width="19.82" height="12.67"/>
		<rect x="75.91" y="335.3" class="st8" width="19.82" height="12.67"/>
		<rect x="293.88" y="347.96" class="st8" width="19.82" height="12.68"/>
		<rect x="274.06" y="347.96" class="st9" width="19.82" height="12.68"/>
		<rect x="254.24" y="347.96" class="st8" width="19.82" height="12.68"/>
		<rect x="214.61" y="347.96" class="st6" width="19.82" height="12.68"/>
		<rect x="194.8" y="347.96" class="st7" width="19.82" height="12.68"/>
		<rect x="174.97" y="347.96" class="st9" width="19.82" height="12.68"/>
		<rect x="135.38" y="347.96" class="st6" width="19.82" height="12.68"/>
		<rect x="115.55" y="347.96" class="st8" width="19.82" height="12.68"/>
		<rect x="95.74" y="347.96" class="st9" width="19.82" height="12.68"/>
		<rect x="75.91" y="347.96" class="st9" width="19.82" height="12.68"/>
		<rect x="95.71" y="132.55" class="st5" width="198.21" height="228.09"/>
		<rect x="95.71" y="132.55" class="st5" width="198.21" height="228.09"/>
		<polyline class="st32" points="75.95,119.88 75.95,107.21 95.77,107.21 95.77,119.88 		"/>
		<polyline class="st32" points="95.76,119.88 95.76,107.21 115.59,107.21 115.59,119.88 		"/>
		<polyline class="st32" points="115.59,119.88 115.59,107.21 135.41,107.21 135.41,119.88 		"/>
		<polyline class="st32" points="135.41,119.88 135.41,107.21 155.23,107.21 155.23,119.88 		"/>
		<polyline class="st30" points="175.01,119.88 175.01,107.21 194.83,107.21 194.83,119.88 		"/>
		<polyline class="st30" points="194.83,119.88 194.83,107.21 214.65,107.21 214.65,119.88 		"/>
		<polyline class="st30" points="214.65,119.88 214.65,107.21 234.47,107.21 234.47,119.88 		"/>
		<polyline class="st31" points="254.27,119.88 254.27,107.21 274.09,107.21 274.09,119.88 		"/>
		<polyline class="st31" points="274.09,119.88 274.09,107.21 293.92,107.21 293.92,119.88 		"/>
		<polyline class="st31" points="293.92,119.88 293.92,107.21 313.73,107.21 313.73,119.88 		"/>
		<line class="st551" x1="58.66" y1="136.78" x2="58.66" y2="354.21"/>
		<polygon class="st36" points="58.66,360.64 61.91,351.58 58.66,353.73 55.4,351.58 		"/>
		<g>
			<g>
				<path class="st2" d="M39.45,308.45v-2.32h8.61v-5.15H50v7.47H39.45z"/>
				<path class="st2" d="M42.15,296.19c0-2.41,1.6-3.96,4.04-3.96c2.43,0,4.02,1.55,4.02,3.96c0,2.4-1.6,3.95-4.02,3.95
					C43.75,300.14,42.15,298.59,42.15,296.19z M48.63,296.19c0-1.43-1.23-1.86-2.44-1.86c-1.23,0-2.45,0.43-2.45,1.86
					c0,1.42,1.23,1.85,2.45,1.85C47.4,298.04,48.63,297.61,48.63,296.19z"/>
				<path class="st2" d="M49.52,283.53c1.26,0,3.39,0.44,3.39,3.96c0,1.51-0.71,3.27-2.45,3.37v-2.08c0.78-0.19,1.05-0.83,1.05-1.57
					c0-1.17-0.8-1.7-1.89-1.69H48.6v0.03c0.8,0.46,1.18,1.38,1.18,2.29c0,2.29-1.74,3.27-3.84,3.27c-1.98,0-3.79-1.14-3.79-3.28
					c0-1,0.34-1.77,1.23-2.28v-0.03h-1.02v-2H49.52z M46.09,285.52c-1.24,0-2.35,0.43-2.35,1.79c0,1.18,1.03,1.7,2.17,1.7
					c1.09,0,2.29-0.41,2.29-1.7C48.2,286.11,47.18,285.52,46.09,285.52z"/>
				<path class="st2" d="M41.18,270.36v2.1h-1.73v-2.1H41.18z M43.76,277.28v1.26h-1.4v-1.26h-0.59c-1.35,0-2.32-0.84-2.32-2.56
					c0-0.37,0.04-0.75,0.06-1.11h1.57c-0.03,0.25-0.04,0.5-0.04,0.77c0,0.56,0.24,0.8,0.87,0.8h0.46v-1.45h1.4v1.45H50v2.1H43.76z
					 M42.36,272.46v-2.1H50v2.1H42.36z"/>
				<path class="st2" d="M42.36,266.05v-1.54h1.4v1.54h3.79c0.71,0,0.89-0.18,0.89-0.89c0-0.22-0.01-0.43-0.06-0.65h1.64
					c0.06,0.36,0.07,0.81,0.07,1.23c0,1.29-0.3,2.41-1.82,2.41h-4.51v1.27h-1.4v-1.27h-2.29v-2.1H42.36z"/>
				<path class="st2" d="M42.36,260.84v-1.54h1.4v1.54h3.79c0.71,0,0.89-0.18,0.89-0.89c0-0.22-0.01-0.43-0.06-0.65h1.64
					c0.06,0.36,0.07,0.81,0.07,1.23c0,1.29-0.3,2.41-1.82,2.41h-4.51v1.27h-1.4v-1.27h-2.29v-2.1H42.36z"/>
				<path class="st2" d="M46.69,256.57c1.33-0.06,1.94-0.71,1.94-1.88c0-0.84-0.52-1.52-0.99-1.66v-1.85
					c1.8,0.59,2.57,1.85,2.57,3.58c0,2.41-1.66,3.9-4.02,3.9c-2.29,0-4.04-1.58-4.04-3.9c0-2.6,2.19-3.86,4.54-3.71V256.57z
					 M45.36,253.16c-1.06,0.19-1.63,0.65-1.63,1.67c0,1.33,1.03,1.72,1.63,1.75V253.16z"/>
				<path class="st2" d="M49.03,244.36v0.03c0.83,0.49,1.18,1.35,1.18,2.32c0,2.31-1.98,3.43-4.1,3.43c-2.06,0-3.96-1.14-3.96-3.39
					c0-0.9,0.38-1.79,1.14-2.26v-0.03h-3.84v-2.1H50v2H49.03z M43.73,246.2c0,1.38,1.18,1.85,2.44,1.85c1.2,0,2.45-0.55,2.45-1.85
					c0-1.39-1.21-1.8-2.47-1.8C44.92,244.39,43.73,244.84,43.73,246.2z"/>
				<path class="st2" d="M49.52,229.33c1.26,0,3.39,0.44,3.39,3.96c0,1.51-0.71,3.27-2.45,3.37v-2.08c0.78-0.19,1.05-0.83,1.05-1.57
					c0-1.17-0.8-1.7-1.89-1.69H48.6v0.03c0.8,0.46,1.18,1.38,1.18,2.29c0,2.29-1.74,3.27-3.84,3.27c-1.98,0-3.79-1.14-3.79-3.28
					c0-1,0.34-1.77,1.23-2.28v-0.03h-1.02v-2H49.52z M46.09,231.33c-1.24,0-2.35,0.43-2.35,1.79c0,1.18,1.03,1.7,2.17,1.7
					c1.09,0,2.29-0.41,2.29-1.7C48.2,231.92,47.18,231.33,46.09,231.33z"/>
				<path class="st2" d="M46.69,225.92c1.33-0.06,1.94-0.71,1.94-1.88c0-0.84-0.52-1.52-0.99-1.66v-1.85
					c1.8,0.59,2.57,1.85,2.57,3.58c0,2.41-1.66,3.9-4.02,3.9c-2.29,0-4.04-1.58-4.04-3.9c0-2.6,2.19-3.86,4.54-3.71V225.92z
					 M45.36,222.51c-1.06,0.19-1.63,0.65-1.63,1.67c0,1.33,1.03,1.72,1.63,1.75V222.51z"/>
				<path class="st2" d="M42.36,219.17v-2h1.06v-0.04c-0.86-0.53-1.27-1.45-1.27-2.34c0-2.23,1.26-2.79,3.15-2.79H50v2.1h-4.32
					c-1.26,0-1.88,0.37-1.88,1.35c0,1.14,0.64,1.63,2.19,1.63H50v2.1H42.36z"/>
				<path class="st2" d="M46.69,208.68c1.33-0.06,1.94-0.71,1.94-1.88c0-0.84-0.52-1.52-0.99-1.66v-1.85
					c1.8,0.59,2.57,1.85,2.57,3.58c0,2.41-1.66,3.9-4.02,3.9c-2.29,0-4.04-1.58-4.04-3.9c0-2.6,2.19-3.86,4.54-3.71V208.68z
					 M45.36,205.26c-1.06,0.19-1.63,0.65-1.63,1.67c0,1.33,1.03,1.72,1.63,1.75V205.26z"/>
				<path class="st2" d="M45.05,192.61c-0.86,0.13-1.32,0.68-1.32,1.55c0,1.34,1.36,1.79,2.48,1.79c1.09,0,2.41-0.43,2.41-1.75
					c0-0.98-0.62-1.54-1.55-1.67v-2.03c2.03,0.27,3.13,1.67,3.13,3.68c0,2.31-1.63,3.86-3.92,3.86c-2.38,0-4.14-1.42-4.14-3.9
					c0-1.8,0.95-3.46,2.9-3.59V192.61z"/>
				<path class="st2" d="M42.15,185.62c0-2.41,1.6-3.96,4.04-3.96c2.43,0,4.02,1.55,4.02,3.96c0,2.4-1.6,3.95-4.02,3.95
					C43.75,189.57,42.15,188.02,42.15,185.62z M48.63,185.62c0-1.43-1.23-1.86-2.44-1.86c-1.23,0-2.45,0.43-2.45,1.86
					c0,1.42,1.23,1.85,2.45,1.85C47.4,187.47,48.63,187.04,48.63,185.62z"/>
				<path class="st2" d="M50,173.13v2h-1.06v0.04c0.86,0.53,1.27,1.45,1.27,2.34c0,2.23-1.26,2.79-3.15,2.79h-4.7v-2.1h4.32
					c1.26,0,1.88-0.37,1.88-1.34c0-1.14-0.64-1.63-2.19-1.63h-4.01v-2.1H50z"/>
				<path class="st2" d="M42.36,171.54v-2h1.06v-0.04c-0.86-0.53-1.27-1.45-1.27-2.34c0-2.23,1.26-2.79,3.15-2.79H50v2.1h-4.32
					c-1.26,0-1.88,0.37-1.88,1.35c0,1.14,0.64,1.63,2.19,1.63H50v2.1H42.36z"/>
				<path class="st2" d="M42.36,160.11v-1.54h1.4v1.54h3.79c0.71,0,0.89-0.18,0.89-0.89c0-0.22-0.01-0.43-0.06-0.65h1.64
					c0.06,0.36,0.07,0.81,0.07,1.23c0,1.29-0.3,2.41-1.82,2.41h-4.51v1.27h-1.4v-1.27h-2.29v-2.1H42.36z"/>
			</g>
		</g>
		<line class="st552" x1="50.12" y1="118.85" x2="57.83" y2="118.85"/>
		<line class="st552" x1="50.79" y1="121.34" x2="58.5" y2="121.34"/>
		<path class="st552" d="M50.01,117.49c0.02,3.76,1.34,3.76,1.35,7.52c0.02,3.77-1.3,3.77-1.28,7.54"/>
		<line class="st552" x1="51.36" y1="126.41" x2="59.07" y2="126.41"/>
		<line class="st552" x1="50.78" y1="128.89" x2="58.49" y2="128.89"/>
		<line class="st552" x1="51.31" y1="123.87" x2="59.02" y2="123.87"/>
		<line class="st552" x1="50.18" y1="131.37" x2="57.89" y2="131.37"/>
		<line class="st552" x1="62.82" y1="118.85" x2="70.53" y2="118.85"/>
		<line class="st552" x1="63.49" y1="121.34" x2="71.2" y2="121.34"/>
		<path class="st552" d="M62.71,117.49c0.02,3.76,1.34,3.76,1.35,7.52c0.02,3.77-1.3,3.77-1.28,7.54"/>
		<line class="st552" x1="64.05" y1="126.41" x2="71.76" y2="126.41"/>
		<line class="st552" x1="63.48" y1="128.89" x2="71.19" y2="128.89"/>
		<line class="st552" x1="64" y1="123.87" x2="71.71" y2="123.87"/>
		<line class="st552" x1="62.88" y1="131.37" x2="70.59" y2="131.37"/>
		<path class="st36" d="M83.25,86.68c0,1.15-0.88,2.07-1.96,2.07c-1.08,0-1.96-0.93-1.96-2.07c0-1.15,0.88-2.08,1.96-2.08
			C82.37,84.6,83.25,85.53,83.25,86.68"/>
		<path class="st36" d="M80.9,88.4l-0.17,0.12c-0.11,0.09-0.25,0.14-0.4,0.15l-0.64,0.05c-0.17,0.01-0.33,0.06-0.48,0.14
			c-0.54,0.28-0.98,0.71-1.26,1.23c0,0-1.24,2.31-1.9,3.55c-0.23,0.44-0.06,0.96,0.4,1.2c0.24,0.13,0.56,0.05,0.69-0.19l1.7-3
			c0.12-0.21,0.49-0.46,0.51,0.06l0.13,1.26c0.01,0.08,0.01,0.15,0.01,0.23c-0.01,0.6-0.23,1.57-0.42,2.1l-1.74,5.36
			c-0.23,0.62,0.08,1.31,0.72,1.6c0.22,0.1,0.49,0.01,0.59-0.2l2.35-5.74c0.05-0.11,0.16-0.19,0.29-0.19c0.13,0,0.24,0.07,0.28,0.18
			l2.35,5.75c0.1,0.21,0.36,0.3,0.59,0.2c0.64-0.29,0.94-0.97,0.72-1.6l-1.74-5.36c-0.19-0.53-0.41-1.5-0.42-2.1
			c0-0.08,0-0.15,0.01-0.23l0.13-1.26c0.02-0.51,0.39-0.27,0.51-0.06l1.7,3c0.13,0.23,0.44,0.32,0.69,0.19
			c0.45-0.24,0.63-0.77,0.4-1.2c-0.67-1.24-1.9-3.55-1.9-3.55c-0.28-0.52-0.72-0.95-1.26-1.23c-0.15-0.08-0.31-0.12-0.48-0.14
			l-0.64-0.05c-0.15-0.01-0.29-0.07-0.4-0.15l-0.17-0.12H80.9z"/>
		<line class="st551" x1="89.41" y1="93.44" x2="306.36" y2="93.44"/>
		<polygon class="st36" points="313.73,93.44 303.35,96.69 305.81,93.44 303.35,90.18 		"/>
		<g>
			<path class="st36" d="M133.78,81.39c0,1.4,1.09,1.95,2.34,1.95c0.81,0,2.06-0.24,2.06-1.32c0-1.14-1.58-1.33-3.13-1.75
				c-1.57-0.41-3.15-1.02-3.15-3c0-2.16,2.04-3.19,3.95-3.19c2.2,0,4.23,0.96,4.23,3.4h-2.25c-0.07-1.27-0.98-1.6-2.08-1.6
				c-0.74,0-1.6,0.31-1.6,1.2c0,0.81,0.5,0.92,3.15,1.6c0.77,0.19,3.13,0.68,3.13,3.08c0,1.94-1.52,3.39-4.39,3.39
				c-2.34,0-4.52-1.15-4.49-3.75H133.78z"/>
			<path class="st36" d="M141.48,79.6c0.12-1.97,1.88-2.56,3.59-2.56c1.52,0,3.36,0.34,3.36,2.17v3.98c0,0.69,0.07,1.39,0.27,1.7
				h-2.13c-0.07-0.24-0.13-0.49-0.15-0.74c-0.67,0.7-1.64,0.95-2.57,0.95c-1.45,0-2.6-0.72-2.6-2.29c0-1.73,1.3-2.14,2.6-2.32
				c1.29-0.19,2.48-0.15,2.48-1c0-0.9-0.62-1.04-1.36-1.04c-0.8,0-1.32,0.33-1.39,1.15H141.48z M146.33,81.15
				c-0.35,0.31-1.09,0.33-1.74,0.44c-0.65,0.13-1.24,0.35-1.24,1.12c0,0.78,0.61,0.98,1.29,0.98c1.64,0,1.7-1.3,1.7-1.76V81.15z"/>
			<path class="st36" d="M150.11,77.25h1.98v1.04h0.03c0.55-0.78,1.35-1.24,2.34-1.24c0.96,0,1.82,0.36,2.23,1.27
				c0.44-0.67,1.24-1.27,2.31-1.27c1.63,0,2.79,0.75,2.79,2.74v5.12h-2.1v-4.33c0-1.02-0.09-1.86-1.29-1.86
				c-1.18,0-1.4,0.98-1.4,1.94v4.26h-2.1V80.6c0-0.89,0.06-1.91-1.27-1.91c-0.41,0-1.42,0.27-1.42,1.76v4.44h-2.1V77.25z"/>
			<path class="st36" d="M163.44,77.25h2v0.98h0.03c0.5-0.81,1.33-1.18,2.28-1.18c2.4,0,3.47,1.94,3.47,4.11
				c0,2.04-1.12,3.95-3.36,3.95c-0.92,0-1.79-0.4-2.29-1.15h-0.03v3.64h-2.1V77.25z M169.12,81.09c0-1.21-0.49-2.47-1.83-2.47
				c-1.38,0-1.82,1.23-1.82,2.47s0.47,2.42,1.83,2.42C168.67,83.52,169.12,82.34,169.12,81.09z"/>
			<path class="st36" d="M172.53,74.34h2.1v10.56h-2.1V74.34z"/>
			<path class="st36" d="M178.01,81.58c0.06,1.33,0.71,1.94,1.88,1.94c0.84,0,1.52-0.52,1.66-0.99h1.85
				c-0.59,1.8-1.85,2.57-3.58,2.57c-2.41,0-3.9-1.66-3.9-4.02c0-2.29,1.58-4.04,3.9-4.04c2.6,0,3.86,2.19,3.71,4.54H178.01z
				 M181.43,80.25c-0.19-1.06-0.65-1.63-1.67-1.63c-1.33,0-1.71,1.04-1.74,1.63H181.43z"/>
			<path class="st36" d="M186.39,82.41c0.01,0.92,0.78,1.29,1.61,1.29c0.61,0,1.38-0.24,1.38-0.98c0-0.64-0.87-0.86-2.38-1.18
				c-1.21-0.27-2.42-0.7-2.42-2.04c0-1.95,1.69-2.46,3.33-2.46c1.67,0,3.21,0.56,3.37,2.44h-2c-0.06-0.81-0.68-1.04-1.43-1.04
				c-0.47,0-1.17,0.09-1.17,0.71c0,0.75,1.18,0.86,2.38,1.14c1.23,0.28,2.42,0.72,2.42,2.14c0,2.01-1.74,2.66-3.49,2.66
				c-1.77,0-3.5-0.67-3.59-2.69H186.39z"/>
			<path class="st36" d="M196.81,74.34h2.1v3.84h0.03c0.52-0.78,1.46-1.14,2.41-1.14c1.52,0,3.16,1.23,3.16,4.02
				c0,2.81-1.64,4.04-3.16,4.04c-1.12,0-2.06-0.34-2.51-1.18h-0.03v0.98h-2V74.34z M200.62,78.62c-1.24,0-1.79,1.17-1.79,2.46
				c0,1.27,0.55,2.44,1.79,2.44c1.24,0,1.79-1.17,1.79-2.44C202.41,79.79,201.87,78.62,200.62,78.62z"/>
			<path class="st36" d="M209.61,85.85c-0.46,1.23-1.18,1.73-2.63,1.73c-0.43,0-0.86-0.03-1.29-0.07v-1.73
				c0.4,0.03,0.81,0.09,1.23,0.07c0.72-0.07,0.96-0.83,0.72-1.43l-2.69-7.17h2.25l1.73,5.23h0.03l1.67-5.23h2.17L209.61,85.85z"/>
			<path class="st36" d="M224.97,84.4c0,1.26-0.44,3.39-3.96,3.39c-1.51,0-3.27-0.71-3.37-2.46h2.08c0.19,0.78,0.83,1.05,1.57,1.05
				c1.17,0,1.7-0.8,1.69-1.89v-1h-0.03c-0.46,0.8-1.38,1.18-2.29,1.18c-2.29,0-3.27-1.75-3.27-3.84c0-1.98,1.14-3.79,3.28-3.79
				c1.01,0,1.77,0.34,2.28,1.23h0.03v-1.02h2V84.4z M222.97,80.97c0-1.24-0.43-2.35-1.79-2.35c-1.18,0-1.7,1.04-1.7,2.17
				c0,1.09,0.41,2.29,1.7,2.29C222.38,83.09,222.97,82.07,222.97,80.97z"/>
			<path class="st36" d="M226.65,77.25h2v1.42h0.03c0.38-0.96,1.42-1.63,2.44-1.63c0.15,0,0.33,0.03,0.46,0.07v1.95
				c-0.19-0.04-0.5-0.07-0.75-0.07c-1.54,0-2.07,1.11-2.07,2.45v3.45h-2.1V77.25z"/>
			<path class="st36" d="M236.11,77.04c2.41,0,3.96,1.6,3.96,4.04c0,2.42-1.55,4.02-3.96,4.02c-2.4,0-3.95-1.6-3.95-4.02
				C232.16,78.64,233.71,77.04,236.11,77.04z M236.11,83.52c1.43,0,1.86-1.23,1.86-2.44c0-1.23-0.43-2.46-1.86-2.46
				c-1.42,0-1.85,1.23-1.85,2.46C234.26,82.29,234.69,83.52,236.11,83.52z"/>
			<path class="st36" d="M248.6,84.89h-2v-1.06h-0.04c-0.53,0.86-1.45,1.27-2.34,1.27c-2.23,0-2.79-1.26-2.79-3.15v-4.7h2.1v4.32
				c0,1.26,0.37,1.88,1.35,1.88c1.14,0,1.63-0.64,1.63-2.19v-4.01h2.1V84.89z"/>
			<path class="st36" d="M250.19,77.25h2v0.98h0.03c0.5-0.81,1.33-1.18,2.28-1.18c2.4,0,3.47,1.94,3.47,4.11
				c0,2.04-1.12,3.95-3.36,3.95c-0.92,0-1.79-0.4-2.29-1.15h-0.03v3.64h-2.1V77.25z M255.87,81.09c0-1.21-0.49-2.47-1.83-2.47
				c-1.38,0-1.82,1.23-1.82,2.47s0.47,2.42,1.83,2.42C255.42,83.52,255.87,82.34,255.87,81.09z"/>
		</g>
	</g>
	<g>
		<path class="st36" d="M319.26,268.2h-3.39v2h3.39V268.2L319.26,268.2z M312.49,268.2h-3.39v2h3.39V268.2L312.49,268.2z
			 M305.71,268.2h-3.39v2h3.39V268.2L305.71,268.2z M298.93,268.2h-3.39v2h3.39V268.2L298.93,268.2z M292.15,268.2h-3.39v2h3.39
			V268.2L292.15,268.2z M285.37,268.2h-3.39v2h3.39V268.2L285.37,268.2z M278.59,268.2h-3.39v2h3.39V268.2L278.59,268.2z
			 M271.82,268.2h-3.39v2h3.39V268.2L271.82,268.2z M265.04,268.2h-3.39v2h3.39V268.2L265.04,268.2z M258.26,268.2h-3.39v2h3.39
			V268.2L258.26,268.2z M251.48,268.2h-3.39v2h3.39V268.2L251.48,268.2z M244.7,268.2h-3.39v2h3.39V268.2L244.7,268.2z
			 M237.92,268.2h-3.39v2h3.39V268.2L237.92,268.2z M231.15,268.2h-3.39v2h3.39V268.2L231.15,268.2z M224.37,268.2h-3.39v2h3.39
			V268.2L224.37,268.2z M217.59,268.2h-3.39v2h3.39V268.2L217.59,268.2z M210.81,268.2h-3.39v2h3.39V268.2L210.81,268.2z
			 M204.03,268.2h-3.39v2h3.39V268.2L204.03,268.2z M197.25,268.2h-3.39v2h3.39V268.2L197.25,268.2z M190.48,268.2h-3.39v2h3.39
			V268.2L190.48,268.2z M183.7,268.2h-3.39v2h3.39V268.2L183.7,268.2z M176.92,268.2h-3.39v2h3.39V268.2L176.92,268.2z
			 M170.14,268.2h-3.39v2h3.39V268.2L170.14,268.2z M163.36,268.2h-3.39v2h3.39V268.2L163.36,268.2z M156.58,268.2h-3.39v2h3.39
			V268.2L156.58,268.2z M149.81,268.2h-3.39v2h3.39V268.2L149.81,268.2z M143.03,268.2h-3.39v2h3.39V268.2L143.03,268.2z
			 M136.25,268.2h-3.39v2h3.39V268.2L136.25,268.2z M129.47,268.2h-3.39v2h3.39V268.2L129.47,268.2z M122.69,268.2h-3.39v2h3.39
			V268.2L122.69,268.2z M115.91,268.2h-3.39v2h3.39V268.2L115.91,268.2z M109.14,268.2h-3.39v2h3.39V268.2L109.14,268.2z
			 M102.36,268.2h-3.39v2h3.39V268.2L102.36,268.2z M95.58,268.2h-3.39v2h3.39V268.2L95.58,268.2z M88.8,268.2h-3.39v2h3.39V268.2
			L88.8,268.2z M82.02,268.2h-3.39v2h3.39V268.2L82.02,268.2z M75.24,268.2h-3.39v2h3.39V268.2L75.24,268.2z M70.75,272.48h-2v3.39
			h2V272.48L70.75,272.48z M70.75,279.26h-2v3.39h2V279.26L70.75,279.26z M74.49,285.68H71.1v2h3.39V285.68L74.49,285.68z
			 M81.27,285.68h-3.39v2h3.39V285.68L81.27,285.68z M88.05,285.68h-3.39v2h3.39V285.68L88.05,285.68z M94.83,285.68h-3.39v2h3.39
			V285.68L94.83,285.68z M101.6,285.68h-3.39v2h3.39V285.68L101.6,285.68z M108.38,285.68h-3.39v2h3.39V285.68L108.38,285.68z
			 M115.16,285.68h-3.39v2h3.39V285.68L115.16,285.68z M121.94,285.68h-3.39v2h3.39V285.68L121.94,285.68z M128.72,285.68h-3.39v2
			h3.39V285.68L128.72,285.68z M135.5,285.68h-3.39v2h3.39V285.68L135.5,285.68z M142.28,285.68h-3.39v2h3.39V285.68L142.28,285.68z
			 M149.05,285.68h-3.39v2h3.39V285.68L149.05,285.68z M155.83,285.68h-3.39v2h3.39V285.68L155.83,285.68z M162.61,285.68h-3.39v2
			h3.39V285.68L162.61,285.68z M169.39,285.68H166v2h3.39V285.68L169.39,285.68z M176.17,285.68h-3.39v2h3.39V285.68L176.17,285.68z
			 M182.95,285.68h-3.39v2h3.39V285.68L182.95,285.68z M189.72,285.68h-3.39v2h3.39V285.68L189.72,285.68z M196.5,285.68h-3.39v2
			h3.39V285.68L196.5,285.68z M203.28,285.68h-3.39v2h3.39V285.68L203.28,285.68z M210.06,285.68h-3.39v2h3.39V285.68L210.06,285.68
			z M216.84,285.68h-3.39v2h3.39V285.68L216.84,285.68z M223.62,285.68h-3.39v2h3.39V285.68L223.62,285.68z M230.39,285.68H227v2
			h3.39V285.68L230.39,285.68z M237.17,285.68h-3.39v2h3.39V285.68L237.17,285.68z M243.95,285.68h-3.39v2h3.39V285.68
			L243.95,285.68z M250.73,285.68h-3.39v2h3.39V285.68L250.73,285.68z M257.51,285.68h-3.39v2h3.39V285.68L257.51,285.68z
			 M264.29,285.68h-3.39v2h3.39V285.68L264.29,285.68z M271.06,285.68h-3.39v2h3.39V285.68L271.06,285.68z M277.84,285.68h-3.39v2
			h3.39V285.68L277.84,285.68z M284.62,285.68h-3.39v2h3.39V285.68L284.62,285.68z M291.4,285.68h-3.39v2h3.39V285.68L291.4,285.68z
			 M298.18,285.68h-3.39v2h3.39V285.68L298.18,285.68z M304.96,285.68h-3.39v2h3.39V285.68L304.96,285.68z M311.73,285.68h-3.39v2
			h3.39V285.68L311.73,285.68z M318.51,285.68h-3.39v2h3.39V285.68L318.51,285.68z M321.26,279.65h-2v3.39h2V279.65L321.26,279.65z
			 M321.26,272.87h-2v3.39h2V272.87L321.26,272.87z"/>
	</g>
	<g>
		<g>
			<g>
				<line class="st553" x1="322.51" y1="276.45" x2="324.23" y2="276.45"/>
				<line class="st554" x1="327.56" y1="276.45" x2="379.26" y2="276.45"/>
				<line class="st553" x1="380.92" y1="276.45" x2="382.64" y2="276.45"/>
			</g>
		</g>
		<g>
			<polygon class="st422" points="387.45,276.28 380.91,272.74 382.46,276.28 380.91,279.82 			"/>
		</g>
	</g>
	<g>
		<path d="M405.5,134.89l0.23,0.33c-0.94,0.71-1.99,1.8-3.14,3.27c-1.15,1.47-2.03,2.85-2.64,4.13l-0.49,0.33
			c-0.4,0.28-0.68,0.49-0.82,0.63c-0.06-0.21-0.18-0.54-0.38-1.02l-0.18-0.43c-0.26-0.62-0.51-1.07-0.74-1.36
			c-0.23-0.29-0.48-0.49-0.76-0.59c0.47-0.5,0.91-0.75,1.31-0.75c0.34,0,0.71,0.46,1.13,1.38l0.2,0.46c0.74-1.25,1.7-2.47,2.86-3.65
			C403.25,136.43,404.39,135.53,405.5,134.89z"/>
		<path d="M405.5,147.09l0.23,0.33c-0.94,0.71-1.99,1.8-3.14,3.27c-1.15,1.47-2.03,2.85-2.64,4.13l-0.49,0.33
			c-0.4,0.28-0.68,0.49-0.82,0.63c-0.06-0.21-0.18-0.54-0.38-1.02l-0.18-0.43c-0.26-0.62-0.51-1.07-0.74-1.36
			c-0.23-0.29-0.48-0.49-0.76-0.59c0.47-0.5,0.91-0.75,1.31-0.75c0.34,0,0.71,0.46,1.13,1.38l0.2,0.46c0.74-1.25,1.7-2.47,2.86-3.65
			C403.25,148.63,404.39,147.73,405.5,147.09z"/>
		<path d="M405.5,171.49l0.23,0.33c-0.94,0.71-1.99,1.8-3.14,3.27c-1.15,1.47-2.03,2.85-2.64,4.13l-0.49,0.33
			c-0.4,0.28-0.68,0.49-0.82,0.63c-0.06-0.21-0.18-0.54-0.38-1.02l-0.18-0.43c-0.26-0.62-0.51-1.07-0.74-1.36
			c-0.23-0.29-0.48-0.49-0.76-0.59c0.47-0.5,0.91-0.75,1.31-0.75c0.34,0,0.71,0.46,1.13,1.38l0.2,0.46c0.74-1.25,1.7-2.47,2.86-3.65
			C403.25,173.03,404.39,172.13,405.5,171.49z"/>
		<path d="M405.5,183.69l0.23,0.33c-0.94,0.71-1.99,1.8-3.14,3.27c-1.15,1.47-2.03,2.85-2.64,4.13l-0.49,0.33
			c-0.4,0.28-0.68,0.49-0.82,0.63c-0.06-0.21-0.18-0.54-0.38-1.02l-0.18-0.43c-0.26-0.62-0.51-1.07-0.74-1.36
			c-0.23-0.29-0.48-0.49-0.76-0.59c0.47-0.5,0.91-0.75,1.31-0.75c0.34,0,0.71,0.46,1.13,1.38l0.2,0.46c0.74-1.25,1.7-2.47,2.86-3.65
			C403.25,185.23,404.39,184.33,405.5,183.69z"/>
		<path d="M405.5,195.89l0.23,0.33c-0.94,0.71-1.99,1.8-3.14,3.27c-1.15,1.47-2.03,2.85-2.64,4.13l-0.49,0.33
			c-0.4,0.28-0.68,0.49-0.82,0.63c-0.06-0.21-0.18-0.54-0.38-1.02l-0.18-0.43c-0.26-0.62-0.51-1.07-0.74-1.36
			c-0.23-0.29-0.48-0.49-0.76-0.59c0.47-0.5,0.91-0.75,1.31-0.75c0.34,0,0.71,0.46,1.13,1.38l0.2,0.46c0.74-1.25,1.7-2.47,2.86-3.65
			C403.25,197.43,404.39,196.53,405.5,195.89z"/>
		<path d="M405.5,220.29l0.23,0.33c-0.94,0.71-1.99,1.8-3.14,3.27c-1.15,1.47-2.03,2.85-2.64,4.13l-0.49,0.33
			c-0.4,0.28-0.68,0.49-0.82,0.63c-0.06-0.21-0.18-0.54-0.38-1.02l-0.18-0.43c-0.26-0.62-0.51-1.07-0.74-1.36
			c-0.23-0.29-0.48-0.49-0.76-0.59c0.47-0.5,0.91-0.75,1.31-0.75c0.34,0,0.71,0.46,1.13,1.38l0.2,0.46c0.74-1.25,1.7-2.47,2.86-3.65
			C403.25,221.83,404.39,220.93,405.5,220.29z"/>
		<path d="M405.5,232.49l0.23,0.33c-0.94,0.71-1.99,1.8-3.14,3.27c-1.15,1.47-2.03,2.85-2.64,4.13l-0.49,0.33
			c-0.4,0.28-0.68,0.49-0.82,0.63c-0.06-0.21-0.18-0.54-0.38-1.02l-0.18-0.43c-0.26-0.62-0.51-1.07-0.74-1.36
			c-0.23-0.29-0.48-0.49-0.76-0.59c0.47-0.5,0.91-0.75,1.31-0.75c0.34,0,0.71,0.46,1.13,1.38l0.2,0.46c0.74-1.25,1.7-2.47,2.86-3.65
			C403.25,234.03,404.39,233.13,405.5,232.49z"/>
		<path d="M405.5,244.69l0.23,0.33c-0.94,0.71-1.99,1.8-3.14,3.27c-1.15,1.47-2.03,2.85-2.64,4.13l-0.49,0.33
			c-0.4,0.28-0.68,0.49-0.82,0.63c-0.06-0.21-0.18-0.54-0.38-1.02l-0.18-0.43c-0.26-0.62-0.51-1.07-0.74-1.36
			c-0.23-0.29-0.48-0.49-0.76-0.59c0.47-0.5,0.91-0.75,1.31-0.75c0.34,0,0.71,0.46,1.13,1.38l0.2,0.46c0.74-1.25,1.7-2.47,2.86-3.65
			C403.25,246.23,404.39,245.33,405.5,244.69z"/>
		<path d="M405.5,256.89l0.23,0.33c-0.94,0.71-1.99,1.8-3.14,3.27c-1.15,1.47-2.03,2.85-2.64,4.13l-0.49,0.33
			c-0.4,0.28-0.68,0.49-0.82,0.63c-0.06-0.21-0.18-0.54-0.38-1.02l-0.18-0.43c-0.26-0.62-0.51-1.07-0.74-1.36
			c-0.23-0.29-0.48-0.49-0.76-0.59c0.47-0.5,0.91-0.75,1.31-0.75c0.34,0,0.71,0.46,1.13,1.38l0.2,0.46c0.74-1.25,1.7-2.47,2.86-3.65
			C403.25,258.43,404.39,257.53,405.5,256.89z"/>
		<path d="M405.5,269.09l0.23,0.33c-0.94,0.71-1.99,1.8-3.14,3.27c-1.15,1.47-2.03,2.85-2.64,4.13l-0.49,0.33
			c-0.4,0.28-0.68,0.49-0.82,0.63c-0.06-0.21-0.18-0.54-0.38-1.02l-0.18-0.43c-0.26-0.62-0.51-1.07-0.74-1.36
			c-0.23-0.29-0.48-0.49-0.76-0.59c0.47-0.5,0.91-0.75,1.31-0.75c0.34,0,0.71,0.46,1.13,1.38l0.2,0.46c0.74-1.25,1.7-2.47,2.86-3.65
			C403.25,270.63,404.39,269.73,405.5,269.09z"/>
		<path d="M405.5,281.29l0.23,0.33c-0.94,0.71-1.99,1.8-3.14,3.27c-1.15,1.47-2.03,2.85-2.64,4.13l-0.49,0.33
			c-0.4,0.28-0.68,0.49-0.82,0.63c-0.06-0.21-0.18-0.54-0.38-1.02l-0.18-0.43c-0.26-0.62-0.51-1.07-0.74-1.36
			c-0.23-0.29-0.48-0.49-0.76-0.59c0.47-0.5,0.91-0.75,1.31-0.75c0.34,0,0.71,0.46,1.13,1.38l0.2,0.46c0.74-1.25,1.7-2.47,2.86-3.65
			C403.25,282.83,404.39,281.93,405.5,281.29z"/>
		<path d="M405.5,305.69l0.23,0.33c-0.94,0.71-1.99,1.8-3.14,3.27c-1.15,1.47-2.03,2.85-2.64,4.13l-0.49,0.33
			c-0.4,0.28-0.68,0.49-0.82,0.63c-0.06-0.21-0.18-0.54-0.38-1.02l-0.18-0.43c-0.26-0.62-0.51-1.07-0.74-1.36
			c-0.23-0.29-0.48-0.49-0.76-0.59c0.47-0.5,0.91-0.75,1.31-0.75c0.34,0,0.71,0.46,1.13,1.38l0.2,0.46c0.74-1.25,1.7-2.47,2.86-3.65
			C403.25,307.23,404.39,306.33,405.5,305.69z"/>
		<path d="M405.5,317.89l0.23,0.33c-0.94,0.71-1.99,1.8-3.14,3.27c-1.15,1.47-2.03,2.85-2.64,4.13l-0.49,0.33
			c-0.4,0.28-0.68,0.49-0.82,0.63c-0.06-0.21-0.18-0.54-0.38-1.02l-0.18-0.43c-0.26-0.62-0.51-1.07-0.74-1.36
			c-0.23-0.29-0.48-0.49-0.76-0.59c0.47-0.5,0.91-0.75,1.31-0.75c0.34,0,0.71,0.46,1.13,1.38l0.2,0.46c0.74-1.25,1.7-2.47,2.86-3.65
			C403.25,319.43,404.39,318.53,405.5,317.89z"/>
		<path d="M405.5,330.09l0.23,0.33c-0.94,0.71-1.99,1.8-3.14,3.27c-1.15,1.47-2.03,2.85-2.64,4.13l-0.49,0.33
			c-0.4,0.28-0.68,0.49-0.82,0.63c-0.06-0.21-0.18-0.54-0.38-1.02l-0.18-0.43c-0.26-0.62-0.51-1.07-0.74-1.36
			c-0.23-0.29-0.48-0.49-0.76-0.59c0.47-0.5,0.91-0.75,1.31-0.75c0.34,0,0.71,0.46,1.13,1.38l0.2,0.46c0.74-1.25,1.7-2.47,2.86-3.65
			C403.25,331.63,404.39,330.73,405.5,330.09z"/>
		<path d="M405.5,342.29l0.23,0.33c-0.94,0.71-1.99,1.8-3.14,3.27c-1.15,1.47-2.03,2.85-2.64,4.13l-0.49,0.33
			c-0.4,0.28-0.68,0.49-0.82,0.63c-0.06-0.21-0.18-0.54-0.38-1.02l-0.18-0.43c-0.26-0.62-0.51-1.07-0.74-1.36
			c-0.23-0.29-0.48-0.49-0.76-0.59c0.47-0.5,0.91-0.75,1.31-0.75c0.34,0,0.71,0.46,1.13,1.38l0.2,0.46c0.74-1.25,1.7-2.47,2.86-3.65
			C403.25,343.83,404.39,342.93,405.5,342.29z"/>
		<path d="M405.5,354.49l0.23,0.33c-0.94,0.71-1.99,1.8-3.14,3.27c-1.15,1.47-2.03,2.85-2.64,4.13l-0.49,0.33
			c-0.4,0.28-0.68,0.49-0.82,0.63c-0.06-0.21-0.18-0.54-0.38-1.02l-0.18-0.43c-0.26-0.62-0.51-1.07-0.74-1.36
			c-0.23-0.29-0.48-0.49-0.76-0.59c0.47-0.5,0.91-0.75,1.31-0.75c0.34,0,0.71,0.46,1.13,1.38l0.2,0.46c0.74-1.25,1.7-2.47,2.86-3.65
			C403.25,356.03,404.39,355.13,405.5,354.49z"/>
	</g>
	<g>
		<g>
			<g>
				<line class="st555" x1="415.5" y1="276.45" x2="417.11" y2="276.45"/>
				<line class="st556" x1="420.45" y1="276.45" x2="465.48" y2="276.45"/>
				<line class="st555" x1="467.14" y1="276.45" x2="468.76" y2="276.45"/>
			</g>
		</g>
		<g>
			<polygon class="st422" points="473.02,276.28 467.23,272.74 468.6,276.28 467.23,279.82 			"/>
		</g>
	</g>
	<g>
		<path d="M489.82,134.89l0.23,0.33c-0.94,0.71-1.99,1.8-3.14,3.27c-1.15,1.47-2.03,2.85-2.64,4.13l-0.49,0.33
			c-0.4,0.28-0.68,0.49-0.82,0.63c-0.06-0.21-0.18-0.54-0.38-1.02l-0.18-0.43c-0.26-0.62-0.51-1.07-0.74-1.36
			c-0.23-0.29-0.48-0.49-0.76-0.59c0.47-0.5,0.91-0.75,1.31-0.75c0.34,0,0.71,0.46,1.13,1.38l0.2,0.46c0.74-1.25,1.7-2.47,2.86-3.65
			C487.57,136.43,488.71,135.53,489.82,134.89z"/>
		<path d="M489.82,269.09l0.23,0.33c-0.94,0.71-1.99,1.8-3.14,3.27c-1.15,1.47-2.03,2.85-2.64,4.13l-0.49,0.33
			c-0.4,0.28-0.68,0.49-0.82,0.63c-0.06-0.21-0.18-0.54-0.38-1.02l-0.18-0.43c-0.26-0.62-0.51-1.07-0.74-1.36
			c-0.23-0.29-0.48-0.49-0.76-0.59c0.47-0.5,0.91-0.75,1.31-0.75c0.34,0,0.71,0.46,1.13,1.38l0.2,0.46c0.74-1.25,1.7-2.47,2.86-3.65
			C487.57,270.63,488.71,269.73,489.82,269.09z"/>
		<path d="M489.82,342.29l0.23,0.33c-0.94,0.71-1.99,1.8-3.14,3.27c-1.15,1.47-2.03,2.85-2.64,4.13l-0.49,0.33
			c-0.4,0.28-0.68,0.49-0.82,0.63c-0.06-0.21-0.18-0.54-0.38-1.02l-0.18-0.43c-0.26-0.62-0.51-1.07-0.74-1.36
			c-0.23-0.29-0.48-0.49-0.76-0.59c0.47-0.5,0.91-0.75,1.31-0.75c0.34,0,0.71,0.46,1.13,1.38l0.2,0.46c0.74-1.25,1.7-2.47,2.86-3.65
			C487.57,343.83,488.71,342.93,489.82,342.29z"/>
	</g>
	<g>
		<g>
			<g>
				<line class="st555" x1="496.09" y1="276.45" x2="497.71" y2="276.45"/>
				<line class="st556" x1="501.04" y1="276.45" x2="546.07" y2="276.45"/>
				<line class="st555" x1="547.74" y1="276.45" x2="549.35" y2="276.45"/>
			</g>
		</g>
		<g>
			<polygon class="st422" points="553.61,276.28 547.82,272.74 549.19,276.28 547.82,279.82 			"/>
		</g>
	</g>
	<g>
		<g>
			<path class="st2" d="M341.36,266.05v-3.27l7.26-2.47v-0.03l-7.26-2.34v-3.27h10.56v2.17h-7.48v0.03l7.48,2.59v1.79l-7.41,2.59
				v0.03h7.41v2.17H341.36z"/>
			<path class="st2" d="M348.61,251.14c1.33-0.06,1.94-0.71,1.94-1.88c0-0.84-0.52-1.52-0.99-1.66v-1.85
				c1.8,0.59,2.57,1.85,2.57,3.58c0,2.41-1.66,3.9-4.02,3.9c-2.29,0-4.04-1.58-4.04-3.9c0-2.6,2.19-3.86,4.54-3.71V251.14z
				 M347.28,247.73c-1.06,0.19-1.63,0.65-1.63,1.67c0,1.33,1.04,1.71,1.63,1.74V247.73z"/>
			<path class="st2" d="M346.63,244.48c-1.97-0.12-2.56-1.88-2.56-3.59c0-1.52,0.34-3.36,2.17-3.36h3.98c0.69,0,1.39-0.07,1.7-0.27
				v2.13c-0.24,0.07-0.49,0.13-0.74,0.15c0.7,0.67,0.95,1.64,0.95,2.57c0,1.45-0.72,2.6-2.29,2.6c-1.73,0-2.14-1.3-2.32-2.6
				c-0.19-1.29-0.15-2.48-1-2.48c-0.9,0-1.04,0.62-1.04,1.36c0,0.8,0.33,1.32,1.15,1.39V244.48z M348.18,239.63
				c0.31,0.36,0.33,1.09,0.44,1.75c0.13,0.65,0.35,1.24,1.12,1.24c0.78,0,0.98-0.61,0.98-1.29c0-1.64-1.3-1.7-1.76-1.7H348.18z"/>
			<path class="st2" d="M344.27,235.91v-2h1.06v-0.04c-0.86-0.53-1.27-1.45-1.27-2.34c0-2.23,1.26-2.79,3.15-2.79h4.7v2.1h-4.32
				c-1.26,0-1.88,0.37-1.88,1.35c0,1.14,0.64,1.63,2.19,1.63h4.01v2.1H344.27z"/>
			<path class="st2" d="M350.94,217.58v0.03c0.83,0.49,1.18,1.35,1.18,2.32c0,2.31-1.98,3.43-4.1,3.43c-2.06,0-3.96-1.14-3.96-3.39
				c0-0.9,0.38-1.79,1.14-2.26v-0.03h-3.84v-2.1h10.56v2H350.94z M345.65,219.41c0,1.38,1.18,1.85,2.44,1.85
				c1.2,0,2.45-0.55,2.45-1.85c0-1.39-1.21-1.8-2.47-1.8C346.83,217.61,345.65,218.05,345.65,219.41z"/>
			<path class="st2" d="M343.09,211.85v2.1h-1.73v-2.1H343.09z M344.27,213.95v-2.1h7.64v2.1H344.27z"/>
			<path class="st2" d="M345.68,209.73v1.26h-1.41v-1.26h-0.59c-1.35,0-2.32-0.84-2.32-2.56c0-0.37,0.04-0.75,0.06-1.11h1.57
				c-0.03,0.25-0.04,0.5-0.04,0.77c0,0.56,0.24,0.8,0.87,0.8h0.46v-1.45h1.41v1.45h6.24v2.1H345.68z"/>
			<path class="st2" d="M345.68,204.81v1.26h-1.41v-1.26h-0.59c-1.35,0-2.32-0.84-2.32-2.56c0-0.37,0.04-0.75,0.06-1.11h1.57
				c-0.03,0.25-0.04,0.5-0.04,0.77c0,0.56,0.24,0.8,0.87,0.8h0.46v-1.45h1.41v1.45h6.24v2.1H345.68z"/>
			<path class="st2" d="M348.61,198.62c1.33-0.06,1.94-0.71,1.94-1.88c0-0.84-0.52-1.52-0.99-1.66v-1.85
				c1.8,0.59,2.57,1.85,2.57,3.58c0,2.41-1.66,3.9-4.02,3.9c-2.29,0-4.04-1.58-4.04-3.9c0-2.6,2.19-3.86,4.54-3.71V198.62z
				 M347.28,195.2c-1.06,0.19-1.63,0.65-1.63,1.67c0,1.33,1.04,1.71,1.63,1.74V195.2z"/>
			<path class="st2" d="M344.27,191.87v-2h1.42v-0.03c-0.96-0.38-1.63-1.42-1.63-2.44c0-0.15,0.03-0.32,0.07-0.46h1.95
				c-0.04,0.19-0.07,0.5-0.07,0.75c0,1.54,1.11,2.07,2.45,2.07h3.45v2.1H344.27z"/>
			<path class="st2" d="M348.61,184.39c1.33-0.06,1.94-0.71,1.94-1.88c0-0.84-0.52-1.52-0.99-1.66v-1.85
				c1.8,0.59,2.57,1.85,2.57,3.58c0,2.41-1.66,3.9-4.02,3.9c-2.29,0-4.04-1.58-4.04-3.9c0-2.6,2.19-3.86,4.54-3.71V184.39z
				 M347.28,180.97c-1.06,0.19-1.63,0.65-1.63,1.67c0,1.33,1.04,1.71,1.63,1.75V180.97z"/>
			<path class="st2" d="M344.27,177.64v-2h1.06v-0.04c-0.86-0.53-1.27-1.45-1.27-2.34c0-2.23,1.26-2.79,3.15-2.79h4.7v2.1h-4.32
				c-1.26,0-1.88,0.37-1.88,1.35c0,1.14,0.64,1.63,2.19,1.63h4.01v2.1H344.27z"/>
			<path class="st2" d="M346.97,163.67c-0.86,0.13-1.32,0.68-1.32,1.55c0,1.35,1.36,1.79,2.48,1.79c1.09,0,2.41-0.43,2.41-1.74
				c0-0.98-0.62-1.54-1.55-1.67v-2.03c2.03,0.27,3.13,1.67,3.13,3.68c0,2.31-1.63,3.86-3.92,3.86c-2.38,0-4.14-1.42-4.14-3.9
				c0-1.8,0.95-3.46,2.9-3.59V163.67z"/>
			<path class="st2" d="M348.61,158.66c1.33-0.06,1.94-0.71,1.94-1.88c0-0.84-0.52-1.52-0.99-1.66v-1.85
				c1.8,0.59,2.57,1.85,2.57,3.58c0,2.41-1.66,3.9-4.02,3.9c-2.29,0-4.04-1.58-4.04-3.9c0-2.6,2.19-3.86,4.54-3.71V158.66z
				 M347.28,155.24c-1.06,0.19-1.63,0.65-1.63,1.67c0,1.33,1.04,1.71,1.63,1.74V155.24z"/>
			<path class="st2" d="M344.27,145.14v-1.54h1.41v1.54h3.79c0.71,0,0.89-0.18,0.89-0.89c0-0.22-0.01-0.43-0.06-0.65h1.64
				c0.06,0.36,0.07,0.81,0.07,1.23c0,1.29-0.3,2.41-1.82,2.41h-4.51v1.27h-1.41v-1.27h-2.29v-2.1H344.27z"/>
			<path class="st2" d="M348.61,140.87c1.33-0.06,1.94-0.71,1.94-1.88c0-0.84-0.52-1.52-0.99-1.66v-1.85
				c1.8,0.59,2.57,1.85,2.57,3.58c0,2.41-1.66,3.9-4.02,3.9c-2.29,0-4.04-1.58-4.04-3.9c0-2.6,2.19-3.86,4.54-3.71V140.87z
				 M347.28,137.45c-1.06,0.19-1.63,0.65-1.63,1.67c0,1.33,1.04,1.71,1.63,1.74V137.45z"/>
			<path class="st2" d="M349.43,132.49c0.92-0.01,1.29-0.78,1.29-1.61c0-0.61-0.24-1.38-0.98-1.38c-0.64,0-0.86,0.87-1.18,2.38
				c-0.27,1.21-0.7,2.42-2.04,2.42c-1.95,0-2.46-1.69-2.46-3.33c0-1.67,0.56-3.21,2.44-3.37v2c-0.81,0.06-1.04,0.68-1.04,1.43
				c0,0.47,0.09,1.17,0.71,1.17c0.75,0,0.86-1.18,1.14-2.38c0.28-1.23,0.72-2.42,2.14-2.42c2.01,0,2.66,1.74,2.66,3.49
				c0,1.77-0.67,3.5-2.69,3.59V132.49z"/>
			<path class="st2" d="M344.27,123.52v-1.54h1.41v1.54h3.79c0.71,0,0.89-0.18,0.89-0.89c0-0.22-0.01-0.43-0.06-0.65h1.64
				c0.06,0.35,0.07,0.81,0.07,1.23c0,1.29-0.3,2.41-1.82,2.41h-4.51v1.27h-1.41v-1.27h-2.29v-2.1H344.27z"/>
			<path class="st2" d="M363.41,239.56v1.26h-1.41v-1.26h-0.59c-1.35,0-2.32-0.84-2.32-2.56c0-0.37,0.04-0.75,0.06-1.11h1.57
				c-0.03,0.25-0.04,0.5-0.04,0.77c0,0.56,0.24,0.8,0.87,0.8h0.46v-1.45h1.41v1.45h6.24v2.1H363.41z"/>
			<path class="st2" d="M361.8,231.38c0-2.41,1.6-3.96,4.04-3.96c2.42,0,4.02,1.55,4.02,3.96c0,2.4-1.6,3.95-4.02,3.95
				C363.4,235.33,361.8,233.78,361.8,231.38z M368.28,231.38c0-1.43-1.23-1.86-2.44-1.86c-1.23,0-2.46,0.43-2.46,1.86
				c0,1.42,1.23,1.85,2.46,1.85C367.05,233.23,368.28,232.8,368.28,231.38z"/>
			<path class="st2" d="M362.01,226.06v-2h1.42v-0.03c-0.96-0.38-1.63-1.42-1.63-2.44c0-0.15,0.03-0.32,0.07-0.46h1.95
				c-0.04,0.19-0.07,0.5-0.07,0.75c0,1.54,1.11,2.07,2.45,2.07h3.45v2.1H362.01z"/>
			<path class="st2" d="M366.34,214.48c1.33-0.06,1.94-0.71,1.94-1.88c0-0.84-0.52-1.52-0.99-1.66v-1.85
				c1.8,0.59,2.57,1.85,2.57,3.58c0,2.41-1.66,3.9-4.02,3.9c-2.29,0-4.04-1.58-4.04-3.9c0-2.6,2.19-3.86,4.54-3.71V214.48z
				 M365.01,211.06c-1.06,0.19-1.63,0.65-1.63,1.67c0,1.33,1.04,1.71,1.63,1.75V211.06z"/>
			<path class="st2" d="M364.36,207.81c-1.97-0.12-2.56-1.88-2.56-3.59c0-1.52,0.34-3.36,2.17-3.36h3.98c0.69,0,1.39-0.07,1.7-0.27
				v2.13c-0.24,0.07-0.49,0.13-0.74,0.15c0.7,0.67,0.95,1.64,0.95,2.57c0,1.45-0.72,2.6-2.29,2.6c-1.73,0-2.14-1.3-2.32-2.6
				c-0.19-1.29-0.15-2.48-1-2.48c-0.9,0-1.04,0.62-1.04,1.36c0,0.8,0.33,1.32,1.15,1.39V207.81z M365.91,202.96
				c0.31,0.35,0.33,1.09,0.44,1.74c0.13,0.65,0.35,1.24,1.12,1.24c0.78,0,0.98-0.61,0.98-1.29c0-1.64-1.3-1.7-1.76-1.7H365.91z"/>
			<path class="st2" d="M364.7,194.04c-0.86,0.13-1.32,0.68-1.32,1.55c0,1.35,1.36,1.79,2.48,1.79c1.09,0,2.41-0.43,2.41-1.74
				c0-0.98-0.62-1.54-1.55-1.67v-2.03c2.03,0.27,3.13,1.67,3.13,3.68c0,2.31-1.63,3.86-3.92,3.86c-2.38,0-4.14-1.42-4.14-3.9
				c0-1.8,0.95-3.46,2.9-3.59V194.04z"/>
			<path class="st2" d="M359.1,190.76v-2.1h3.98v-0.04c-0.86-0.53-1.27-1.45-1.27-2.23c0-2.23,1.26-2.79,3.15-2.79h4.7v2.1h-4.32
				c-1.26,0-1.88,0.37-1.88,1.35c0,1.14,0.64,1.63,2.19,1.63h4.01v2.1H359.1z"/>
			<path class="st2" d="M369.16,170.54c1.26,0,3.39,0.44,3.39,3.96c0,1.51-0.71,3.27-2.46,3.37v-2.08c0.78-0.19,1.05-0.83,1.05-1.57
				c0-1.17-0.8-1.7-1.89-1.69h-1v0.03c0.8,0.46,1.18,1.38,1.18,2.29c0,2.29-1.75,3.27-3.84,3.27c-1.98,0-3.79-1.14-3.79-3.28
				c0-1,0.34-1.77,1.23-2.28v-0.03h-1.02v-2H369.16z M365.73,172.53c-1.24,0-2.35,0.43-2.35,1.79c0,1.18,1.04,1.7,2.17,1.7
				c1.09,0,2.29-0.41,2.29-1.7C367.85,173.13,366.83,172.53,365.73,172.53z"/>
			<path class="st2" d="M366.34,167.13c1.33-0.06,1.94-0.71,1.94-1.88c0-0.84-0.52-1.52-0.99-1.66v-1.85
				c1.8,0.59,2.57,1.85,2.57,3.58c0,2.41-1.66,3.9-4.02,3.9c-2.29,0-4.04-1.58-4.04-3.9c0-2.6,2.19-3.86,4.54-3.71V167.13z
				 M365.01,163.71c-1.06,0.19-1.63,0.65-1.63,1.67c0,1.33,1.04,1.71,1.63,1.75V163.71z"/>
			<path class="st2" d="M362.01,160.37v-2h1.06v-0.04c-0.86-0.53-1.27-1.45-1.27-2.34c0-2.23,1.26-2.79,3.15-2.79h4.7v2.1h-4.32
				c-1.26,0-1.88,0.37-1.88,1.35c0,1.14,0.64,1.63,2.19,1.63h4.01v2.1H362.01z"/>
			<path class="st2" d="M366.34,149.88c1.33-0.06,1.94-0.71,1.94-1.88c0-0.84-0.52-1.52-0.99-1.66v-1.85
				c1.8,0.59,2.57,1.85,2.57,3.58c0,2.41-1.66,3.9-4.02,3.9c-2.29,0-4.04-1.58-4.04-3.9c0-2.6,2.19-3.86,4.54-3.71V149.88z
				 M365.01,146.47c-1.06,0.19-1.63,0.65-1.63,1.67c0,1.33,1.04,1.71,1.63,1.75V146.47z"/>
		</g>
	</g>
	<g>
		<g>
			<path class="st2" d="M430.12,233.85c-1.05,0.15-1.85,1.15-1.85,2.31c0,2.08,1.77,2.87,3.62,2.87c1.76,0,3.53-0.78,3.53-2.87
				c0-1.42-0.98-2.22-2.37-2.39v-2.25c2.63,0.24,4.32,2.05,4.32,4.64c0,3.27-2.44,5.19-5.49,5.19c-3.13,0-5.57-1.92-5.57-5.19
				c0-2.32,1.36-4.27,3.8-4.55V233.85z"/>
			<path class="st2" d="M429.28,226.45c0-2.41,1.6-3.96,4.04-3.96c2.42,0,4.02,1.55,4.02,3.96c0,2.4-1.6,3.95-4.02,3.95
				C430.87,230.39,429.28,228.84,429.28,226.45z M435.75,226.45c0-1.43-1.23-1.86-2.44-1.86c-1.23,0-2.46,0.43-2.46,1.86
				c0,1.42,1.23,1.85,2.46,1.85C434.53,228.29,435.75,227.87,435.75,226.45z"/>
			<path class="st2" d="M429.48,221.13v-2h1.42v-0.03c-0.96-0.38-1.63-1.42-1.63-2.44c0-0.15,0.03-0.33,0.07-0.46h1.95
				c-0.04,0.19-0.07,0.5-0.07,0.75c0,1.54,1.11,2.07,2.45,2.07h3.45v2.1H429.48z"/>
			<path class="st2" d="M429.48,215.38v-2h1.42v-0.03c-0.96-0.38-1.63-1.42-1.63-2.44c0-0.15,0.03-0.33,0.07-0.46h1.95
				c-0.04,0.19-0.07,0.5-0.07,0.75c0,1.54,1.11,2.07,2.45,2.07h3.45v2.1H429.48z"/>
			<path class="st2" d="M433.82,207.9c1.33-0.06,1.94-0.71,1.94-1.88c0-0.84-0.52-1.52-0.99-1.66v-1.85
				c1.8,0.59,2.57,1.85,2.57,3.58c0,2.41-1.66,3.9-4.02,3.9c-2.29,0-4.04-1.58-4.04-3.9c0-2.6,2.19-3.86,4.54-3.71V207.9z
				 M432.49,204.48c-1.06,0.19-1.63,0.65-1.63,1.67c0,1.33,1.04,1.71,1.63,1.75V204.48z"/>
			<path class="st2" d="M432.18,195.94c-0.86,0.13-1.32,0.68-1.32,1.55c0,1.35,1.36,1.79,2.48,1.79c1.09,0,2.41-0.43,2.41-1.74
				c0-0.98-0.62-1.54-1.55-1.67v-2.03c2.03,0.27,3.13,1.67,3.13,3.68c0,2.31-1.63,3.86-3.92,3.86c-2.38,0-4.14-1.42-4.14-3.9
				c0-1.8,0.95-3.46,2.9-3.59V195.94z"/>
			<path class="st2" d="M429.48,190v-1.54h1.41V190h3.79c0.71,0,0.89-0.18,0.89-0.89c0-0.22-0.01-0.43-0.06-0.65h1.64
				c0.06,0.36,0.07,0.81,0.07,1.23c0,1.29-0.3,2.41-1.82,2.41h-4.51v1.27h-1.41v-1.27h-2.29V190H429.48z"/>
			<path class="st2" d="M433.82,185.73c1.33-0.06,1.94-0.71,1.94-1.88c0-0.84-0.52-1.52-0.99-1.66v-1.85
				c1.8,0.59,2.57,1.85,2.57,3.58c0,2.41-1.66,3.9-4.02,3.9c-2.29,0-4.04-1.58-4.04-3.9c0-2.6,2.19-3.86,4.54-3.71V185.73z
				 M432.49,182.32c-1.06,0.19-1.63,0.65-1.63,1.67c0,1.33,1.04,1.71,1.63,1.74V182.32z"/>
			<path class="st2" d="M436.15,173.52v0.03c0.83,0.49,1.18,1.34,1.18,2.32c0,2.31-1.98,3.43-4.1,3.43c-2.06,0-3.96-1.14-3.96-3.38
				c0-0.9,0.38-1.79,1.14-2.26v-0.03h-3.84v-2.1h10.56v2H436.15z M430.86,175.36c0,1.38,1.18,1.85,2.44,1.85
				c1.2,0,2.45-0.55,2.45-1.85c0-1.39-1.21-1.8-2.47-1.8C432.04,173.55,430.86,174,430.86,175.36z"/>
			<path class="st2" d="M430.89,165.38v1.26h-1.41v-1.26h-0.59c-1.35,0-2.32-0.84-2.32-2.56c0-0.37,0.04-0.75,0.06-1.11h1.57
				c-0.03,0.25-0.04,0.5-0.04,0.77c0,0.56,0.24,0.8,0.87,0.8h0.46v-1.45h1.41v1.45h6.24v2.1H430.89z"/>
			<path class="st2" d="M429.28,157.21c0-2.41,1.6-3.96,4.04-3.96c2.42,0,4.02,1.55,4.02,3.96c0,2.4-1.6,3.95-4.02,3.95
				C430.87,161.16,429.28,159.6,429.28,157.21z M435.75,157.21c0-1.43-1.23-1.86-2.44-1.86c-1.23,0-2.46,0.43-2.46,1.86
				c0,1.42,1.23,1.85,2.46,1.85C434.53,159.06,435.75,158.63,435.75,157.21z"/>
			<path class="st2" d="M429.48,151.89v-2h1.42v-0.03c-0.96-0.38-1.63-1.42-1.63-2.44c0-0.15,0.03-0.33,0.07-0.46h1.95
				c-0.04,0.19-0.07,0.5-0.07,0.75c0,1.54,1.11,2.07,2.45,2.07h3.45v2.1H429.48z"/>
			<path class="st2" d="M447.22,245.93v-1.98h1.04v-0.03c-0.78-0.55-1.24-1.35-1.24-2.34c0-0.96,0.36-1.82,1.27-2.23
				c-0.67-0.44-1.27-1.24-1.27-2.31c0-1.63,0.75-2.79,2.74-2.79h5.12v2.1h-4.33c-1.02,0-1.86,0.09-1.86,1.29
				c0,1.18,0.98,1.41,1.94,1.41h4.26v2.1h-4.29c-0.89,0-1.91-0.06-1.91,1.27c0,0.41,0.27,1.42,1.76,1.42h4.44v2.1H447.22z"/>
			<path class="st2" d="M454.86,225.43v2h-1.06v0.04c0.86,0.53,1.27,1.45,1.27,2.34c0,2.23-1.26,2.79-3.15,2.79h-4.7v-2.1h4.32
				c1.26,0,1.88-0.37,1.88-1.35c0-1.14-0.64-1.63-2.19-1.63h-4.01v-2.1H454.86z"/>
			<path class="st2" d="M444.31,223.78v-2.1h10.56v2.1H444.31z"/>
			<path class="st2" d="M447.22,217.36v-1.54h1.41v1.54h3.79c0.71,0,0.89-0.18,0.89-0.89c0-0.22-0.01-0.43-0.06-0.65h1.64
				c0.06,0.36,0.07,0.81,0.07,1.23c0,1.29-0.3,2.41-1.82,2.41h-4.51v1.27h-1.41v-1.27h-2.29v-2.1H447.22z"/>
			<path class="st2" d="M446.04,212.67v2.1h-1.73v-2.1H446.04z M447.22,214.77v-2.1h7.64v2.1H447.22z"/>
			<path class="st2" d="M447.22,211.01v-2h0.98v-0.03c-0.81-0.5-1.18-1.33-1.18-2.28c0-2.4,1.94-3.47,4.11-3.47
				c2.04,0,3.95,1.12,3.95,3.36c0,0.92-0.4,1.79-1.15,2.29v0.03h3.64v2.1H447.22z M451.06,205.33c-1.21,0-2.47,0.49-2.47,1.83
				c0,1.38,1.23,1.82,2.47,1.82s2.42-0.47,2.42-1.83C453.49,205.78,452.31,205.33,451.06,205.33z"/>
			<path class="st2" d="M444.31,201.92v-2.1h10.56v2.1H444.31z"/>
			<path class="st2" d="M451.55,196.44c1.33-0.06,1.94-0.71,1.94-1.88c0-0.84-0.52-1.52-0.99-1.66v-1.85
				c1.8,0.59,2.57,1.85,2.57,3.58c0,2.41-1.66,3.9-4.02,3.9c-2.29,0-4.04-1.58-4.04-3.9c0-2.6,2.19-3.86,4.54-3.71V196.44z
				 M450.22,193.02c-1.06,0.19-1.63,0.65-1.63,1.67c0,1.33,1.04,1.71,1.63,1.75V193.02z"/>
			<path class="st2" d="M447.22,182.92v-1.54h1.41v1.54h3.79c0.71,0,0.89-0.18,0.89-0.89c0-0.22-0.01-0.43-0.06-0.65h1.64
				c0.06,0.35,0.07,0.81,0.07,1.23c0,1.29-0.3,2.41-1.82,2.41h-4.51v1.27h-1.41v-1.27h-2.29v-2.1H447.22z"/>
			<path class="st2" d="M451.55,178.65c1.33-0.06,1.94-0.71,1.94-1.88c0-0.84-0.52-1.52-0.99-1.66v-1.85
				c1.8,0.59,2.57,1.85,2.57,3.58c0,2.41-1.66,3.9-4.02,3.9c-2.29,0-4.04-1.58-4.04-3.9c0-2.6,2.19-3.86,4.54-3.71V178.65z
				 M450.22,175.23c-1.06,0.19-1.63,0.65-1.63,1.67c0,1.33,1.04,1.71,1.63,1.75V175.23z"/>
			<path class="st2" d="M452.38,170.27c0.92-0.01,1.29-0.78,1.29-1.61c0-0.61-0.24-1.38-0.98-1.38c-0.64,0-0.86,0.87-1.18,2.38
				c-0.27,1.21-0.7,2.42-2.04,2.42c-1.95,0-2.46-1.69-2.46-3.33c0-1.67,0.56-3.21,2.44-3.37v2c-0.81,0.06-1.04,0.68-1.04,1.43
				c0,0.47,0.09,1.17,0.71,1.17c0.75,0,0.86-1.18,1.14-2.38c0.28-1.23,0.72-2.43,2.14-2.43c2.01,0,2.66,1.75,2.66,3.49
				c0,1.77-0.67,3.5-2.69,3.59V170.27z"/>
			<path class="st2" d="M447.22,161.3v-1.54h1.41v1.54h3.79c0.71,0,0.89-0.18,0.89-0.89c0-0.22-0.01-0.43-0.06-0.65h1.64
				c0.06,0.36,0.07,0.81,0.07,1.23c0,1.29-0.3,2.41-1.82,2.41h-4.51v1.27h-1.41v-1.27h-2.29v-2.1H447.22z"/>
			<path class="st2" d="M446.04,156.6v2.1h-1.73v-2.1H446.04z M447.22,158.7v-2.1h7.64v2.1H447.22z"/>
			<path class="st2" d="M447.22,154.94v-2h1.06v-0.04c-0.86-0.53-1.27-1.45-1.27-2.34c0-2.23,1.26-2.79,3.15-2.79h4.7v2.1h-4.32
				c-1.26,0-1.88,0.37-1.88,1.35c0,1.14,0.64,1.63,2.19,1.63h4.01v2.1H447.22z"/>
			<path class="st2" d="M454.37,138.83c1.26,0,3.39,0.44,3.39,3.96c0,1.51-0.71,3.27-2.46,3.37v-2.08c0.78-0.19,1.05-0.83,1.05-1.57
				c0-1.17-0.8-1.7-1.89-1.69h-1v0.03c0.8,0.46,1.18,1.38,1.18,2.29c0,2.29-1.75,3.27-3.84,3.27c-1.98,0-3.79-1.14-3.79-3.28
				c0-1,0.34-1.77,1.23-2.28v-0.03h-1.02v-2H454.37z M450.95,140.83c-1.24,0-2.35,0.43-2.35,1.79c0,1.18,1.04,1.7,2.17,1.7
				c1.09,0,2.29-0.41,2.29-1.7C453.06,141.42,452.04,140.83,450.95,140.83z"/>
		</g>
	</g>
	<g>
		<g>
			<path class="st2" d="M508.9,257.83v-2.32h8.6v-5.14h1.95v7.47H508.9z"/>
			<path class="st2" d="M514.17,249.38c-1.97-0.12-2.56-1.88-2.56-3.59c0-1.52,0.34-3.36,2.17-3.36h3.98c0.69,0,1.39-0.07,1.7-0.27
				v2.13c-0.24,0.07-0.49,0.13-0.74,0.15c0.7,0.67,0.95,1.64,0.95,2.57c0,1.45-0.72,2.6-2.29,2.6c-1.73,0-2.14-1.3-2.32-2.6
				c-0.19-1.29-0.15-2.48-1-2.48c-0.9,0-1.04,0.62-1.04,1.36c0,0.8,0.33,1.32,1.15,1.39V249.38z M515.72,244.53
				c0.31,0.35,0.33,1.09,0.44,1.75c0.13,0.65,0.35,1.24,1.12,1.24c0.78,0,0.98-0.61,0.98-1.29c0-1.64-1.3-1.7-1.76-1.7H515.72z"/>
			<path class="st2" d="M508.9,240.81v-2.1h3.84v-0.03c-0.78-0.52-1.14-1.46-1.14-2.41c0-1.52,1.23-3.16,4.02-3.16
				c2.81,0,4.04,1.64,4.04,3.16c0,1.12-0.34,2.06-1.18,2.51v0.03h0.98v2H508.9z M513.19,236.99c0,1.24,1.17,1.79,2.46,1.79
				c1.27,0,2.44-0.55,2.44-1.79s-1.17-1.79-2.44-1.79C514.36,235.2,513.19,235.75,513.19,236.99z"/>
			<path class="st2" d="M516.15,230.05c1.33-0.06,1.94-0.71,1.94-1.88c0-0.84-0.52-1.52-0.99-1.66v-1.85
				c1.8,0.59,2.57,1.85,2.57,3.58c0,2.41-1.66,3.9-4.02,3.9c-2.29,0-4.04-1.58-4.04-3.9c0-2.6,2.19-3.86,4.54-3.71V230.05z
				 M514.82,226.63c-1.06,0.19-1.63,0.65-1.63,1.67c0,1.33,1.04,1.71,1.63,1.74V226.63z"/>
			<path class="st2" d="M508.9,223.23v-2.1h10.56v2.1H508.9z"/>
			<path class="st2" d="M508.9,219.42v-2.1h10.56v2.1H508.9z"/>
			<path class="st2" d="M510.63,213.51v2.1h-1.73v-2.1H510.63z M511.82,215.61v-2.1h7.64v2.1H511.82z"/>
			<path class="st2" d="M511.82,211.85v-2h1.06v-0.04c-0.86-0.53-1.27-1.45-1.27-2.34c0-2.23,1.26-2.79,3.15-2.79h4.7v2.1h-4.32
				c-1.26,0-1.88,0.37-1.88,1.35c0,1.14,0.64,1.63,2.19,1.63h4.01v2.1H511.82z"/>
			<path class="st2" d="M518.97,195.74c1.26,0,3.39,0.44,3.39,3.96c0,1.51-0.71,3.27-2.46,3.37v-2.08c0.78-0.19,1.05-0.83,1.05-1.57
				c0-1.17-0.8-1.7-1.89-1.69h-1v0.03c0.8,0.46,1.18,1.38,1.18,2.29c0,2.29-1.75,3.27-3.84,3.27c-1.98,0-3.79-1.14-3.79-3.28
				c0-1.01,0.34-1.77,1.23-2.28v-0.03h-1.02v-2H518.97z M515.54,197.74c-1.24,0-2.35,0.43-2.35,1.79c0,1.18,1.04,1.7,2.17,1.7
				c1.09,0,2.29-0.41,2.29-1.7C517.66,198.33,516.64,197.74,515.54,197.74z"/>
			<path class="st2" d="M508.9,189.95v-2.1h3.84v-0.03c-0.78-0.52-1.14-1.46-1.14-2.41c0-1.52,1.23-3.16,4.02-3.16
				c2.81,0,4.04,1.64,4.04,3.16c0,1.12-0.34,2.06-1.18,2.51v0.03h0.98v2H508.9z M513.19,186.14c0,1.24,1.17,1.79,2.46,1.79
				c1.27,0,2.44-0.55,2.44-1.79c0-1.24-1.17-1.79-2.44-1.79C514.36,184.35,513.19,184.9,513.19,186.14z"/>
			<path class="st2" d="M514.17,181.01c-1.97-0.12-2.56-1.88-2.56-3.59c0-1.52,0.34-3.36,2.17-3.36h3.98c0.69,0,1.39-0.07,1.7-0.27
				v2.13c-0.24,0.07-0.49,0.13-0.74,0.15c0.7,0.67,0.95,1.64,0.95,2.57c0,1.45-0.72,2.6-2.29,2.6c-1.73,0-2.14-1.3-2.32-2.6
				c-0.19-1.29-0.15-2.48-1-2.48c-0.9,0-1.04,0.62-1.04,1.36c0,0.8,0.33,1.32,1.15,1.39V181.01z M515.72,176.16
				c0.31,0.35,0.33,1.09,0.44,1.74c0.13,0.65,0.35,1.24,1.12,1.24c0.78,0,0.98-0.61,0.98-1.29c0-1.64-1.3-1.7-1.76-1.7H515.72z"/>
			<path class="st2" d="M516.98,170.81c0.92-0.02,1.29-0.78,1.29-1.61c0-0.61-0.24-1.38-0.98-1.38c-0.64,0-0.86,0.87-1.18,2.38
				c-0.27,1.21-0.7,2.43-2.04,2.43c-1.95,0-2.46-1.69-2.46-3.33c0-1.67,0.56-3.21,2.44-3.37v2c-0.81,0.06-1.04,0.68-1.04,1.43
				c0,0.47,0.09,1.17,0.71,1.17c0.75,0,0.86-1.18,1.14-2.38c0.28-1.23,0.72-2.42,2.14-2.42c2.01,0,2.66,1.75,2.66,3.49
				c0,1.77-0.67,3.5-2.69,3.59V170.81z"/>
			<path class="st2" d="M516.15,162.77c1.33-0.06,1.94-0.71,1.94-1.88c0-0.84-0.52-1.52-0.99-1.66v-1.85
				c1.8,0.59,2.57,1.85,2.57,3.58c0,2.41-1.66,3.9-4.02,3.9c-2.29,0-4.04-1.58-4.04-3.9c0-2.6,2.19-3.86,4.54-3.71V162.77z
				 M514.82,159.36c-1.06,0.19-1.63,0.65-1.63,1.67c0,1.33,1.04,1.71,1.63,1.75V159.36z"/>
			<path class="st2" d="M518.48,150.57v0.03c0.83,0.49,1.18,1.34,1.18,2.32c0,2.31-1.98,3.43-4.1,3.43c-2.06,0-3.96-1.14-3.96-3.39
				c0-0.9,0.38-1.79,1.14-2.26v-0.03h-3.84v-2.1h10.56v2H518.48z M513.19,152.4c0,1.38,1.18,1.85,2.44,1.85
				c1.2,0,2.45-0.55,2.45-1.85c0-1.39-1.21-1.8-2.47-1.8C514.37,150.6,513.19,151.04,513.19,152.4z"/>
			<path class="st2" d="M511.61,139.17c0-2.41,1.6-3.96,4.04-3.96c2.42,0,4.02,1.55,4.02,3.96c0,2.4-1.6,3.95-4.02,3.95
				C513.21,143.12,511.61,141.57,511.61,139.17z M518.09,139.17c0-1.43-1.23-1.86-2.44-1.86c-1.23,0-2.46,0.43-2.46,1.86
				c0,1.42,1.23,1.85,2.46,1.85C516.86,141.02,518.09,140.59,518.09,139.17z"/>
			<path class="st2" d="M511.82,133.85v-2h1.06v-0.04c-0.86-0.53-1.27-1.45-1.27-2.34c0-2.23,1.26-2.79,3.15-2.79h4.7v2.1h-4.32
				c-1.26,0-1.88,0.37-1.88,1.35c0,1.14,0.64,1.63,2.19,1.63h4.01v2.1H511.82z"/>
			<path class="st2" d="M526.64,251.42v-2.32h8.6v-5.14h1.95v7.47H526.64z"/>
			<path class="st2" d="M529.34,239.17c0-2.41,1.6-3.96,4.04-3.96c2.42,0,4.02,1.55,4.02,3.96c0,2.4-1.6,3.95-4.02,3.95
				C530.94,243.12,529.34,241.57,529.34,239.17z M535.82,239.17c0-1.43-1.23-1.86-2.44-1.86c-1.23,0-2.46,0.43-2.46,1.86
				c0,1.42,1.23,1.85,2.46,1.85C534.59,241.02,535.82,240.59,535.82,239.17z"/>
			<path class="st2" d="M536.71,226.5c1.26,0,3.39,0.44,3.39,3.96c0,1.51-0.71,3.27-2.46,3.37v-2.09c0.78-0.19,1.05-0.83,1.05-1.57
				c0-1.17-0.8-1.7-1.89-1.69h-1v0.03c0.8,0.46,1.18,1.38,1.18,2.29c0,2.29-1.75,3.27-3.84,3.27c-1.98,0-3.79-1.14-3.79-3.28
				c0-1.01,0.34-1.78,1.23-2.28v-0.03h-1.02v-2H536.71z M533.28,228.5c-1.24,0-2.35,0.43-2.35,1.79c0,1.18,1.04,1.7,2.17,1.7
				c1.09,0,2.29-0.41,2.29-1.7C535.39,229.09,534.37,228.5,533.28,228.5z"/>
			<path class="st2" d="M526.64,220.49v-7.42h1.95v5.1h2.44v-4.42h1.8v4.42h4.36v2.32H526.64z"/>
			<path class="st2" d="M529.34,208.24c0-2.41,1.6-3.96,4.04-3.96c2.42,0,4.02,1.55,4.02,3.96c0,2.4-1.6,3.95-4.02,3.95
				C530.94,212.19,529.34,210.64,529.34,208.24z M535.82,208.24c0-1.43-1.23-1.86-2.44-1.86c-1.23,0-2.46,0.43-2.46,1.86
				c0,1.42,1.23,1.85,2.46,1.85C534.59,210.09,535.82,209.66,535.82,208.24z"/>
			<path class="st2" d="M526.64,202.86v-2.1h10.56v2.1H526.64z"/>
			<path class="st2" d="M536.22,193.65v0.03c0.83,0.49,1.18,1.35,1.18,2.32c0,2.31-1.98,3.43-4.1,3.43c-2.06,0-3.96-1.14-3.96-3.39
				c0-0.9,0.38-1.79,1.14-2.26v-0.03h-3.84v-2.1h10.56v2H536.22z M530.92,195.49c0,1.38,1.18,1.85,2.44,1.85
				c1.2,0,2.45-0.55,2.45-1.85c0-1.39-1.21-1.8-2.47-1.8C532.11,193.68,530.92,194.13,530.92,195.49z"/>
			<path class="st2" d="M530.19,178.71c-1.05,0.15-1.85,1.15-1.85,2.31c0,2.08,1.77,2.87,3.62,2.87c1.76,0,3.53-0.78,3.53-2.87
				c0-1.42-0.98-2.22-2.37-2.4v-2.25c2.63,0.24,4.32,2.06,4.32,4.64c0,3.27-2.44,5.19-5.49,5.19c-3.13,0-5.57-1.92-5.57-5.19
				c0-2.32,1.36-4.27,3.8-4.55V178.71z"/>
			<path class="st2" d="M526.64,175.02v-2.1h3.98v-0.04c-0.86-0.53-1.27-1.45-1.27-2.23c0-2.23,1.26-2.79,3.15-2.79h4.7v2.1h-4.32
				c-1.26,0-1.88,0.37-1.88,1.35c0,1.14,0.64,1.63,2.19,1.63h4.01v2.1H526.64z"/>
			<path class="st2" d="M531.9,166.34c-1.97-0.12-2.56-1.88-2.56-3.59c0-1.52,0.34-3.36,2.17-3.36h3.98c0.69,0,1.39-0.07,1.7-0.27
				v2.13c-0.24,0.07-0.49,0.13-0.74,0.15c0.7,0.66,0.95,1.64,0.95,2.57c0,1.45-0.72,2.6-2.29,2.6c-1.73,0-2.14-1.3-2.32-2.6
				c-0.19-1.29-0.15-2.48-1-2.48c-0.9,0-1.04,0.62-1.04,1.36c0,0.8,0.33,1.32,1.15,1.39V166.34z M533.45,161.49
				c0.31,0.36,0.33,1.09,0.44,1.74c0.13,0.65,0.35,1.24,1.12,1.24c0.78,0,0.98-0.61,0.98-1.29c0-1.64-1.3-1.7-1.76-1.7H533.45z"/>
			<path class="st2" d="M529.55,157.77v-2h1.06v-0.04c-0.86-0.53-1.27-1.45-1.27-2.34c0-2.23,1.26-2.79,3.15-2.79h4.7v2.1h-4.32
				c-1.26,0-1.88,0.37-1.88,1.35c0,1.14,0.64,1.63,2.19,1.63h4.01v2.1H529.55z"/>
			<path class="st2" d="M536.71,141.66c1.26,0,3.39,0.44,3.39,3.96c0,1.51-0.71,3.27-2.46,3.37v-2.08c0.78-0.19,1.05-0.83,1.05-1.57
				c0-1.17-0.8-1.7-1.89-1.69h-1v0.03c0.8,0.46,1.18,1.38,1.18,2.29c0,2.29-1.75,3.27-3.84,3.27c-1.98,0-3.79-1.14-3.79-3.28
				c0-1,0.34-1.77,1.23-2.28v-0.03h-1.02v-2H536.71z M533.28,143.66c-1.24,0-2.35,0.43-2.35,1.79c0,1.18,1.04,1.7,2.17,1.7
				c1.09,0,2.29-0.41,2.29-1.7C535.39,144.25,534.37,143.66,533.28,143.66z"/>
			<path class="st2" d="M533.88,138.25c1.33-0.06,1.94-0.71,1.94-1.88c0-0.84-0.52-1.52-0.99-1.66v-1.85
				c1.8,0.59,2.57,1.85,2.57,3.58c0,2.41-1.66,3.9-4.02,3.9c-2.29,0-4.04-1.58-4.04-3.9c0-2.6,2.19-3.86,4.54-3.71V138.25z
				 M532.55,134.83c-1.06,0.19-1.63,0.65-1.63,1.67c0,1.33,1.04,1.71,1.63,1.75V134.83z"/>
		</g>
	</g>
	<path class="st215" d="M572.09,347.96c0,5.65-8.47,5.65-8.47,0C563.62,342.31,572.09,342.31,572.09,347.96"/>
	<path class="st214" d="M572.09,139.87c0,5.65-8.47,5.65-8.47,0C563.62,134.21,572.09,134.21,572.09,139.87"/>
	<path class="st214" d="M572.09,276.28c0,5.65-8.47,5.65-8.47,0C563.62,270.63,572.09,270.63,572.09,276.28"/>
</g>
</svg>
